<svg width="36" height="36" viewBox="0 0 36 36" fill="none" xmlns="http://www.w3.org/2000/svg">
<path d="M31.5 11.25C26.6242 11.5721 21.935 13.497 18 16.7918C14.065 13.497 9.37579 11.5721 4.5 11.25V16.3067C3.70302 16.3085 2.93929 16.6707 2.37673 17.3136C1.81416 17.9566 1.49881 18.8276 1.5 19.7353V21.4505C1.5 23.345 4.5 25.2225 4.5 25.2225V28.6511C8.48401 28.9429 12.3262 30.4473 15.6255 33.0073C16.4586 33.6657 17.2519 34.3871 18 35.1667C18.7481 34.3871 19.5414 33.6657 20.3745 33.0073C23.6738 30.4473 27.516 28.9429 31.5 28.6511V24.8791C32.297 24.8773 33.0607 24.5151 33.6233 23.8721C34.1858 23.2292 34.5012 22.3581 34.5 21.4505V19.7353C34.5012 18.8276 34.1858 17.9566 33.6233 17.3136C33.0607 16.6707 32.297 16.3085 31.5 16.3067V11.25ZM18 30.7626C14.889 28.166 11.2972 26.4152 7.5 25.6444V15.1382C10.4101 15.8058 13.1731 17.1315 15.6255 19.0366C16.4586 19.695 17.2519 20.4164 18 21.1959C18.7481 20.4164 19.5414 19.695 20.3745 19.0366C22.8268 17.1309 25.5898 15.8047 28.5 15.1365V25.6444C24.7028 26.4152 21.111 28.166 18 30.7626ZM16.5 7.83333H19.5V9.54167H16.5V7.83333ZM16.5 1H19.5V2.70833H16.5V1Z" fill="white"/>
</svg>
