<svg width="49" height="49" viewBox="0 0 49 49" fill="none" xmlns="http://www.w3.org/2000/svg">
<path fill-rule="evenodd" clip-rule="evenodd" d="M24.8206 24.708L34.8206 14.708C34.8206 9.18501 30.3436 4.70801 24.8206 4.70801C19.2976 4.70801 14.8206 9.18501 14.8206 14.708L24.8206 24.708Z" stroke="white" stroke-width="2" stroke-linecap="round" stroke-linejoin="round"/>
<path fill-rule="evenodd" clip-rule="evenodd" d="M14.8206 34.708L24.8206 24.708L14.8206 14.708C9.29756 14.708 4.82056 19.185 4.82056 24.708C4.82056 30.231 9.29756 34.708 14.8206 34.708ZM34.8206 34.708C40.3436 34.708 44.8206 30.231 44.8206 24.708C44.8206 19.185 40.3436 14.708 34.8206 14.708L24.8206 24.708L34.8206 34.708Z" stroke="white" stroke-width="2" stroke-linecap="round" stroke-linejoin="round"/>
<path fill-rule="evenodd" clip-rule="evenodd" d="M24.8206 44.708C30.3436 44.708 34.8206 40.231 34.8206 34.708L24.8206 24.708L14.8206 34.708C14.8206 40.231 19.2976 44.708 24.8206 44.708Z" stroke="white" stroke-width="2" stroke-linecap="round" stroke-linejoin="round"/>
</svg>
