<svg width="36" height="36" viewBox="0 0 36 36" fill="none" xmlns="http://www.w3.org/2000/svg">
<path d="M30.3751 2.25C29.4011 2.24958 28.4533 2.5653 27.6742 3.14969C26.895 3.73409 26.3266 4.55559 26.0544 5.49072C25.7821 6.42585 25.8207 7.42409 26.1644 8.33539C26.5081 9.24669 27.1383 10.0218 27.9603 10.5443L25.0239 20.8216C24.9327 20.8158 24.8414 20.8128 24.7501 20.8125C23.7821 20.8114 22.8398 21.1242 22.0646 21.7039L16.6397 17.1832C16.8966 16.4212 16.9445 15.6043 16.7786 14.8174C16.6127 14.0306 16.239 13.3026 15.6963 12.7092C15.1537 12.1158 14.4619 11.6786 13.6931 11.4432C12.9242 11.2077 12.1063 11.1826 11.3244 11.3704C10.5425 11.5582 9.82522 11.9521 9.24718 12.5111C8.66914 13.0701 8.25144 13.7738 8.03755 14.5489C7.82366 15.3241 7.82138 16.1424 8.03095 16.9187C8.24053 17.6951 8.6543 18.4011 9.22922 18.9633L6.04463 25.3328C5.90517 25.3195 5.76516 25.3127 5.62507 25.3125C4.54702 25.3111 3.50421 25.6963 2.68591 26.3982C1.86761 27.1 1.32808 28.072 1.16524 29.1377C1.00239 30.2033 1.22704 31.2921 1.7984 32.2063C2.36976 33.1205 3.24996 33.7995 4.27923 34.1201C5.3085 34.4408 6.41862 34.3817 7.40807 33.9537C8.39753 33.5258 9.20075 32.7572 9.67193 31.7876C10.1431 30.8179 10.251 29.7115 9.97606 28.6691C9.70111 27.6267 9.06153 26.7174 8.17341 26.1063L11.1828 20.0884C11.9138 20.29 12.684 20.3032 13.4215 20.1267C14.159 19.9502 14.8398 19.5897 15.4003 19.0789L20.6526 23.456C20.2959 24.242 20.1728 25.114 20.298 25.968C20.4231 26.822 20.7913 27.622 21.3584 28.2727C21.9256 28.9233 22.668 29.397 23.497 29.6375C24.3259 29.8779 25.2065 29.8748 26.0338 29.6287C26.8611 29.3825 27.6002 28.9036 28.1628 28.2491C28.7255 27.5946 29.0881 26.792 29.2073 25.9372C29.3265 25.0823 29.1974 24.2112 28.8353 23.4277C28.4732 22.6442 27.8934 21.9814 27.165 21.5182L30.1013 11.2409C30.1919 11.2463 30.283 11.25 30.3751 11.25C31.5686 11.25 32.7131 10.7759 33.5571 9.93198C34.401 9.08807 34.8751 7.94347 34.8751 6.75C34.8751 5.55653 34.401 4.41193 33.5571 3.56802C32.7131 2.72411 31.5686 2.25 30.3751 2.25ZM5.62507 32.0625C5.18007 32.0625 4.74505 31.9305 4.37504 31.6833C4.00503 31.4361 3.71664 31.0847 3.54635 30.6735C3.37605 30.2624 3.33149 29.81 3.41831 29.3735C3.50512 28.9371 3.71942 28.5362 4.03408 28.2215C4.34875 27.9068 4.74966 27.6925 5.18612 27.6057C5.62258 27.5189 6.07498 27.5635 6.48611 27.7338C6.89725 27.9041 7.24865 28.1925 7.49588 28.5625C7.74311 28.9325 7.87508 29.3675 7.87508 29.8125C7.87441 30.409 7.63714 30.9809 7.21533 31.4028C6.79351 31.8246 6.22161 32.0618 5.62507 32.0625ZM12.3751 18C11.9301 18 11.4951 17.868 11.125 17.6208C10.755 17.3736 10.4666 17.0222 10.2963 16.611C10.126 16.1999 10.0815 15.7475 10.1683 15.311C10.2551 14.8746 10.4694 14.4737 10.7841 14.159C11.0988 13.8443 11.4997 13.63 11.9361 13.5432C12.3726 13.4564 12.825 13.501 13.2361 13.6713C13.6472 13.8416 13.9986 14.13 14.2459 14.5C14.4931 14.87 14.6251 15.305 14.6251 15.75C14.6244 16.3465 14.3871 16.9184 13.9653 17.3403C13.5435 17.7621 12.9716 17.9993 12.3751 18ZM24.7501 27.5625C24.3051 27.5625 23.8701 27.4305 23.5 27.1833C23.13 26.9361 22.8416 26.5847 22.6713 26.1735C22.501 25.7624 22.4565 25.31 22.5433 24.8735C22.6301 24.4371 22.8444 24.0362 23.1591 23.7215C23.4738 23.4068 23.8747 23.1925 24.3111 23.1057C24.7476 23.0189 25.2 23.0635 25.6111 23.2338C26.0222 23.4041 26.3736 23.6925 26.6209 24.0625C26.8681 24.4325 27.0001 24.8675 27.0001 25.3125C26.9994 25.909 26.7621 26.4809 26.3403 26.9028C25.9185 27.3246 25.3466 27.5618 24.7501 27.5625ZM30.3751 9C29.9301 9 29.4951 8.86804 29.125 8.62081C28.755 8.37357 28.4666 8.02217 28.2963 7.61104C28.1261 7.1999 28.0815 6.7475 28.1683 6.31105C28.2551 5.87459 28.4694 5.47368 28.7841 5.15901C29.0988 4.84434 29.4997 4.63005 29.9361 4.54323C30.3726 4.45642 30.825 4.50097 31.2361 4.67127C31.6472 4.84157 31.9986 5.12996 32.2459 5.49997C32.4931 5.86998 32.6251 6.30499 32.6251 6.75C32.6244 7.34653 32.3871 7.91844 31.9653 8.34025C31.5435 8.76206 30.9716 8.99933 30.3751 9Z" fill="white"/>
</svg>
