<svg width="37" height="37" viewBox="0 0 37 37" fill="none" xmlns="http://www.w3.org/2000/svg">
<path d="M26.2083 6.16671V30.8334C27.9041 30.8334 29.2916 29.4459 29.2916 27.75V9.25004C29.2916 7.55421 27.9041 6.16671 26.2083 6.16671ZM20.0416 3.08337H6.16659C4.47075 3.08337 3.08325 4.47087 3.08325 6.16671V30.8334C3.08325 32.5292 4.47075 33.9167 6.16659 33.9167H20.0416C21.7374 33.9167 23.1249 32.5292 23.1249 30.8334V6.16671C23.1249 4.47087 21.7374 3.08337 20.0416 3.08337ZM20.0416 30.8334H6.16659V6.16671H20.0416V30.8334ZM32.3749 9.25004V27.75C33.6545 27.75 34.6874 26.7171 34.6874 25.4375V11.5625C34.6874 10.283 33.6545 9.25004 32.3749 9.25004Z" fill="white"/>
</svg>
