<svg width="346" height="330" viewBox="0 0 346 330" fill="none" xmlns="http://www.w3.org/2000/svg">
<path d="M56.732 53.7944C59.129 52.7074 64.1821 56.2575 65.273 56.9004L65.4005 56.8425L62.077 52.293C61.0087 52.3777 57.94 53.0006 56.6395 53.5904C50.3663 56.4349 48.5238 61.7283 50.9521 67.0834C53.3804 72.4386 58.5762 74.5405 63.9059 72.1238C69.1845 69.7301 69.6197 65.1979 68.7806 62.8729L68.5256 62.9885C69.249 65.0585 68.5758 68.9301 64.4447 70.8034C60.033 72.8038 55.9196 70.5801 53.6416 65.5565C51.3636 60.5328 52.3203 55.7948 56.732 53.7944ZM76.108 51.6798C73.3794 52.9171 73.4137 55.9759 74.3218 58.7923L72.0785 53.8451C71.9976 53.6666 71.8007 53.5714 71.6708 53.6918L68.584 56.4443L68.7415 56.5881C69.5323 55.8913 70.3732 56.1864 70.7432 57.0024L74.1197 64.4486C74.8829 66.1317 74.7408 66.9032 73.6953 67.3773L73.7531 67.5048L78.9553 65.1459L78.8975 65.0184C77.8519 65.4925 77.178 65.091 76.4148 63.4079L75.1544 60.6283C73.9402 57.9508 74.1959 54.5144 76.3635 53.5316C76.95 53.2656 77.6546 53.1921 78.5141 53.325L78.4471 53.1094L76.108 51.6798ZM82.3957 56.3609C84.0377 59.9821 87.874 61.2554 91.6991 59.5209C95.0652 57.9946 96.1245 55.1777 95.2742 52.4889L95.0702 52.5814C95.6358 54.8459 94.4331 57.4819 91.832 58.6613C88.7719 60.0489 86.345 58.2902 84.8302 54.9496C84.7377 54.7456 84.6567 54.5671 84.5642 54.3631L94.1525 50.0153L94.0369 49.7603L89.1662 51.9689C90.736 50.8881 91.8961 49.3783 91.2254 47.8992C90.5316 46.3692 88.3928 46.263 85.6897 47.4887C81.9921 49.1654 80.7538 52.7398 82.3957 56.3609ZM84.4741 54.0965C83.3459 51.134 83.5637 48.6987 85.8077 47.6811C87.5418 46.8948 89.1403 47.369 89.6953 48.593C90.6667 50.7351 88.2367 52.3596 87.4577 52.7436L84.4741 54.0965ZM105.641 50.0014C106.335 51.5315 108.003 52.1586 109.482 51.488C111.216 50.7017 111.363 49.4667 110.866 48.3702L110.646 48.5623C111.085 49.5313 110.873 50.4882 110.032 50.8698C108.91 51.3785 108.364 49.9042 107.89 48.8587L105.346 43.2485C104.178 40.673 100.988 40.5519 98.769 41.5579C97.188 42.2748 95.2656 43.7306 95.4055 45.3274C95.557 46.9496 97.1291 48.4504 100.367 47.6585C98.2825 49.0956 96.4778 51.0822 97.3914 53.0968C98.2933 55.0858 100.52 55.5212 102.534 54.6077C105.186 53.4051 105.629 50.9909 105.237 49.1089L105.641 50.0014ZM103.78 45.8958C102.929 46.1893 101.742 46.7583 100.599 47.4918C97.3076 48.3694 96.4611 46.5704 96.3953 45.0015C96.3595 43.6343 97.306 42.4673 98.6575 41.8544C100.8 40.8831 102.184 42.3767 103.063 44.3147L103.78 45.8958ZM103.826 45.9978L104.728 47.9869C105.387 49.4404 105.086 52.0981 103.377 52.8728C101.822 53.5782 100.45 53.0625 99.7564 51.5324C98.5538 48.8804 101.689 46.844 103.826 45.9978ZM108.914 30.9319L108.633 31.0591C110.194 34.5017 108.943 37.0983 106.928 38.0118L107.044 38.2668L109.059 37.3533L113.534 47.2221C114.25 48.8031 116.072 48.6843 116.151 48.587C117.429 46.9313 118.2 45.7827 119.087 43.874L118.878 43.7533C118.24 44.7191 117.611 45.4345 117.034 45.7885C116.366 46.2143 115.794 46.1049 115.412 45.2634L111.354 36.3126L114.363 34.9481L114.247 34.6931L111.238 36.0576L108.914 30.9319ZM116.04 29.4838C116.479 30.4529 117.38 30.8129 118.273 30.4081C119.191 29.9919 119.514 29.0768 119.074 28.1078C118.646 27.1643 117.745 26.8043 116.827 27.2205C115.935 27.6253 115.612 28.5403 116.04 29.4838ZM120.281 31.6497L117.194 34.4022L117.351 34.546C118.2 33.9767 118.983 34.1443 119.353 34.9603L122.73 42.4065C123.493 44.0896 123.606 44.7455 122.56 45.2196L122.618 45.3471L127.565 43.1038L127.507 42.9763C126.462 43.4504 125.788 43.0489 125.025 41.3658L120.688 31.803C120.607 31.6245 120.411 31.5293 120.281 31.6497ZM128.843 30.2574C127.982 29.5105 128.156 28.5397 129.253 28.0424L129.195 27.9149L123.738 30.3895L123.796 30.517C124.459 30.2163 124.878 30.3952 126.469 31.7337L135.65 39.4378L135.828 39.3568L135.7 27.8861C135.679 25.8051 136.291 24.851 137.031 24.5156L136.973 24.3881L132.663 26.3423L132.721 26.4698C133.461 26.1345 135.178 26.1245 135.246 27.9691L135.525 36.1123L128.843 30.2574ZM137.692 19.6654C138.132 20.6344 139.033 20.9944 139.925 20.5897C140.844 20.1734 141.166 19.2584 140.727 18.2894C140.299 17.3458 139.398 16.9858 138.48 17.4021C137.588 17.8068 137.265 18.7219 137.692 19.6654ZM141.933 21.8313L138.847 24.5838L139.004 24.7276C139.853 24.1583 140.636 24.3258 141.006 25.1419L144.382 32.5881C145.146 34.2712 145.258 34.9271 144.213 35.4011L144.271 35.5287L149.218 33.2854L149.16 33.1579C148.115 33.632 147.441 33.2305 146.677 31.5474L142.341 21.9846C142.26 21.8061 142.063 21.7109 141.933 21.8313ZM147.886 13.2599L147.606 13.3871C149.167 16.8297 147.915 19.4263 145.901 20.3398L146.016 20.5948L148.031 19.6813L152.506 29.5501C153.223 31.1312 155.044 31.0123 155.123 30.9151C156.402 29.2594 157.172 28.1107 158.059 26.202L157.85 26.0813C157.212 27.0471 156.584 27.7625 156.006 28.1166C155.339 28.5423 154.766 28.4329 154.385 27.5914L150.326 18.6406L153.335 17.2761L153.219 17.0211L150.21 18.3856L147.886 13.2599ZM160.164 16.0549C159.303 15.3079 159.478 14.3371 160.574 13.8399L160.516 13.7124L155.059 16.1869L155.117 16.3144C155.78 16.0138 156.199 16.1926 157.79 17.5311L166.911 25.1703L166.906 25.2954C166.961 26.5005 166.469 27.2462 165.627 27.6278C164.862 27.9747 163.808 28.0224 162.564 27.7872L162.466 28.0467L167.279 30.322L167.276 13.5679C167.28 11.4754 167.612 10.6484 168.352 10.3131L168.294 10.1856L163.984 12.1398L164.042 12.2673C164.782 11.932 166.499 11.9219 166.567 13.7666L166.786 21.8449L160.164 16.0549Z" fill="#0D0D0D"/>
<path d="M252.213 43.8175L247.501 49.4818L245.804 48.0698L256.793 34.8592L264.506 41.2748L263.155 42.8985L257.14 37.8949L253.533 42.2308L258.958 46.7432L257.638 48.33L252.213 43.8175ZM268.02 44.1981L257.03 57.4087L255.333 55.9967L266.322 42.7861L268.02 44.1981ZM267.217 65.8827L265.593 64.532L266.637 63.2774L266.563 63.216C265.936 63.4439 265.23 63.4804 264.443 63.3254C263.668 63.1806 262.992 62.8677 262.414 62.3868C261.307 61.4659 260.713 60.4411 260.632 59.3124C260.574 58.1816 261.031 57.032 262.003 55.8634L266.73 50.1806L268.427 51.5927L263.792 57.1648C262.601 58.6715 262.732 60.0286 264.183 61.236C264.859 61.7988 265.65 61.9989 266.556 61.8363C267.471 61.6613 268.246 61.1926 268.881 60.4299L273.04 55.4298L274.738 56.8419L267.217 65.8827ZM281.778 57.4226C281.502 57.7547 281.149 57.9404 280.721 57.9797C280.293 58.019 279.913 57.9005 279.581 57.6242C279.249 57.348 279.063 56.9958 279.024 56.5677C278.985 56.1395 279.103 55.7594 279.379 55.4273C279.656 55.0952 280.008 54.9095 280.436 54.8702C280.864 54.8309 281.244 54.9494 281.576 55.2257C281.908 55.5019 282.094 55.8541 282.133 56.2823C282.173 56.7104 282.054 57.0905 281.778 57.4226ZM278.833 60.2491L271.313 69.2899L269.615 67.8779L277.136 58.8371L278.833 60.2491ZM278.719 73.3281C279.555 74.0239 280.489 74.2904 281.519 74.1277C282.574 73.9855 283.506 73.4285 284.314 72.4567C285.102 71.5096 285.475 70.4983 285.433 69.4228C285.403 68.3576 284.976 67.4822 284.152 66.7966C283.341 66.1213 282.402 65.8609 281.337 66.0155C280.272 66.17 279.345 66.7209 278.557 67.668C277.759 68.6274 277.386 69.6387 277.438 70.7019C277.48 71.7774 277.907 72.6528 278.719 73.3281ZM277.153 74.6477C275.972 73.6654 275.346 72.3538 275.275 70.713C275.227 69.0701 275.755 67.5844 276.86 66.2559C277.965 64.9275 279.33 64.1376 280.954 63.8863C282.58 63.6575 283.984 64.0342 285.165 65.0165C285.829 65.5691 286.314 66.2119 286.62 66.945C286.938 67.6884 287.05 68.4166 286.957 69.1296L287.031 69.191L288.001 67.8749L291.469 63.7051L293.167 65.1172L282.177 78.3278L280.554 76.9771L281.597 75.7225L281.523 75.6611C280.839 75.8829 280.103 75.9051 279.314 75.7275C278.538 75.5602 277.817 75.2003 277.153 74.6477ZM296.742 69.8705C296.465 70.2026 296.113 70.3883 295.685 70.4276C295.257 70.4669 294.877 70.3484 294.545 70.0721C294.213 69.7958 294.027 69.4436 293.988 69.0155C293.948 68.5874 294.067 68.2073 294.343 67.8752C294.619 67.5431 294.972 67.3574 295.4 67.3181C295.828 67.2788 296.208 67.3973 296.54 67.6735C296.872 67.9498 297.058 68.302 297.097 68.7301C297.136 69.1583 297.018 69.5384 296.742 69.8705ZM293.797 72.697L286.276 81.7378L284.579 80.3257L292.1 71.2849L293.797 72.697ZM292.036 86.7792C291.298 86.1652 290.873 85.4261 290.759 84.5616C290.658 83.7075 290.939 82.8694 291.602 82.0473L295.808 76.9918L294.221 75.6719L295.51 74.122L297.097 75.442L299.399 72.6744L301.097 74.0865L298.794 76.8541L301.008 78.6959L299.719 80.2457L297.505 78.4039L293.76 82.9058C293.259 83.5086 293.033 84.0178 293.082 84.4336C293.142 84.8372 293.32 85.1617 293.615 85.4073C293.75 85.5198 293.889 85.615 294.033 85.6927C294.199 85.7684 294.358 85.8276 294.509 85.8705L293.786 87.8286C293.21 87.6201 292.627 87.2703 292.036 86.7792ZM310.979 86.9902L294.479 95.3043L292.726 93.8462L298.62 91.0386L301.938 79.4694L303.783 81.0043L301.075 89.7397L301.111 89.7704L309.134 85.4553L310.979 86.9902Z" fill="#0D0D0D"/>
<path d="M272.697 263.77L276.135 265.783L279.615 259.838L282.266 261.39L278.786 267.335L282.225 269.347L286.092 262.74L288.743 264.292L283.239 273.695L268.409 265.014L273.913 255.611L276.565 257.163L272.697 263.77ZM296.037 251.832L294.449 254.545L286.62 249.962L284.377 253.794L292.206 258.377L290.618 261.09L282.789 256.507L281.722 258.33L279.402 256.972L280.469 255.149L279.475 254.567C278.853 254.203 278.36 253.794 277.996 253.34C277.626 252.864 277.383 252.36 277.267 251.829C277.138 251.29 277.128 250.737 277.237 250.171C277.332 249.596 277.546 249.026 277.877 248.46C278.039 248.183 278.182 247.971 278.307 247.821C278.431 247.671 278.566 247.537 278.71 247.417L281.16 249.074C281.062 249.147 280.963 249.237 280.863 249.345C280.762 249.453 280.656 249.604 280.542 249.797C280.308 250.198 280.253 250.592 280.378 250.98C280.503 251.369 280.794 251.696 281.249 251.963L282.057 252.436L284.3 248.604L283.306 248.022C282.684 247.658 282.192 247.249 281.827 246.795C281.457 246.319 281.214 245.815 281.099 245.284C280.969 244.745 280.959 244.192 281.068 243.625C281.164 243.051 281.377 242.481 281.708 241.914C281.87 241.638 282.013 241.425 282.138 241.276C282.262 241.126 282.397 240.992 282.541 240.872L284.992 242.529C284.894 242.602 284.794 242.692 284.694 242.8C284.594 242.908 284.487 243.059 284.374 243.252C284.139 243.653 284.085 244.047 284.21 244.435C284.335 244.824 284.625 245.151 285.08 245.418L285.888 245.891L289.72 239.346L299.869 245.286L298.28 248L290.451 243.417L288.208 247.249L296.037 251.832ZM287.449 239.852C287.311 240.086 287.137 240.29 286.924 240.463C286.706 240.613 286.473 240.727 286.224 240.804C285.97 240.858 285.71 240.874 285.447 240.849C285.191 240.811 284.939 240.719 284.69 240.573C284.442 240.428 284.238 240.253 284.08 240.049C283.929 239.831 283.822 239.602 283.759 239.361C283.691 239.098 283.676 238.839 283.714 238.583C283.747 238.306 283.832 238.05 283.969 237.815C284.252 237.332 284.667 237.018 285.214 236.875C285.748 236.724 286.256 236.79 286.739 237.073C287.223 237.356 287.536 237.771 287.679 238.318C287.808 238.857 287.732 239.368 287.449 239.852ZM304.44 231.539C305.037 232.482 305.378 233.515 305.461 234.64C305.539 235.742 305.23 236.887 304.535 238.074C304.075 238.861 303.519 239.51 302.869 240.019C302.213 240.506 301.502 240.85 300.735 241.05C299.977 241.237 299.193 241.278 298.382 241.175C297.566 241.049 296.764 240.756 295.977 240.295C295.19 239.834 294.542 239.279 294.033 238.629C293.531 237.964 293.184 237.26 292.989 236.516C292.789 235.75 292.747 234.965 292.865 234.163C292.976 233.338 293.263 232.533 293.723 231.745C294.41 230.572 295.258 229.742 296.265 229.256C297.272 228.771 298.313 228.592 299.388 228.72L298.968 231.812C298.361 231.772 297.831 231.87 297.378 232.105C296.92 232.319 296.529 232.702 296.205 233.254C295.995 233.613 295.866 233.992 295.818 234.39C295.771 234.788 295.798 235.185 295.901 235.579C296.012 235.959 296.207 236.323 296.485 236.671C296.763 237.02 297.123 237.323 297.565 237.582C298.007 237.84 298.448 238.006 298.888 238.078C299.328 238.15 299.741 238.141 300.127 238.052C300.521 237.949 300.88 237.779 301.204 237.542C301.528 237.306 301.795 237.008 302.005 236.649C302.336 236.083 302.491 235.533 302.469 235.001C302.441 234.447 302.254 233.911 301.908 233.394L304.44 231.539ZM297.385 222.878C297.247 223.113 297.072 223.316 296.86 223.489C296.642 223.639 296.409 223.753 296.16 223.83C295.905 223.885 295.646 223.9 295.382 223.875C295.127 223.837 294.875 223.745 294.626 223.6C294.378 223.454 294.174 223.279 294.015 223.075C293.865 222.857 293.758 222.628 293.695 222.387C293.626 222.124 293.611 221.865 293.65 221.61C293.682 221.332 293.767 221.076 293.905 220.841C294.188 220.358 294.603 220.045 295.15 219.902C295.684 219.75 296.192 219.816 296.675 220.099C297.159 220.382 297.472 220.797 297.615 221.344C297.744 221.884 297.667 222.395 297.385 222.878ZM308.216 231.026L298.067 225.085L299.655 222.372L309.804 228.313L308.216 231.026ZM314.5 214.685C315.054 215.639 315.352 216.666 315.394 217.766C315.444 218.852 315.134 219.968 314.463 221.114C314.01 221.888 313.459 222.529 312.809 223.038C312.152 223.526 311.441 223.869 310.675 224.07C309.909 224.27 309.121 224.318 308.31 224.215C307.494 224.089 306.692 223.796 305.905 223.335C305.173 222.907 304.559 222.372 304.064 221.729C303.555 221.079 303.196 220.378 302.987 219.625C302.765 218.865 302.695 218.082 302.777 217.277C302.867 216.458 303.138 215.662 303.591 214.889C304.067 214.074 304.63 213.43 305.278 212.957C305.912 212.475 306.596 212.162 307.33 212.017C308.05 211.863 308.799 211.866 309.577 212.025C310.356 212.184 311.125 212.486 311.884 212.931C311.981 212.987 312.064 213.036 312.133 213.076C312.207 213.138 312.279 213.19 312.348 213.23C312.409 213.284 312.481 213.336 312.564 213.384L308.09 221.027C308.537 221.214 308.96 221.314 309.361 221.326C309.756 221.316 310.13 221.248 310.483 221.121C310.83 220.971 311.14 220.773 311.415 220.526C311.675 220.271 311.899 219.984 312.085 219.667C312.448 219.045 312.609 218.454 312.568 217.891C312.52 217.307 312.351 216.773 312.06 216.287L314.5 214.685ZM309.122 214.846C308.935 214.754 308.698 214.699 308.412 214.681C308.135 214.648 307.839 214.678 307.524 214.772C307.218 214.853 306.914 215.008 306.611 215.239C306.317 215.456 306.049 215.772 305.807 216.186C305.467 216.766 305.334 217.374 305.407 218.01C305.479 218.646 305.76 219.227 306.249 219.755L309.122 214.846ZM310.845 206.297L310.942 206.131C310.617 205.515 310.467 204.852 310.492 204.144C310.504 203.428 310.711 202.724 311.116 202.034C311.487 201.399 311.918 200.9 312.408 200.538C312.898 200.176 313.426 199.956 313.99 199.879C314.549 199.779 315.142 199.811 315.769 199.975C316.391 200.116 317.026 200.377 317.675 200.757L323.827 204.358L322.239 207.071L316.418 203.664C315.687 203.236 315.051 203.086 314.512 203.215C313.967 203.323 313.513 203.687 313.149 204.309C312.931 204.681 312.82 205.061 312.816 205.448C312.806 205.813 312.878 206.18 313.033 206.549C313.182 206.896 313.411 207.234 313.719 207.562C314.022 207.869 314.38 208.144 314.794 208.386L319.765 211.296L318.177 214.01L308.028 208.069L309.519 205.521L310.845 206.297ZM328.309 190.762C328.906 191.705 329.247 192.739 329.33 193.863C329.408 194.965 329.1 196.11 328.404 197.298C327.944 198.085 327.388 198.733 326.738 199.242C326.082 199.729 325.371 200.073 324.605 200.274C323.846 200.46 323.062 200.502 322.251 200.398C321.435 200.272 320.633 199.979 319.846 199.518C319.059 199.058 318.411 198.502 317.902 197.852C317.401 197.188 317.053 196.484 316.858 195.739C316.658 194.973 316.616 194.189 316.734 193.386C316.846 192.562 317.132 191.756 317.593 190.969C318.28 189.795 319.127 188.965 320.134 188.48C321.142 187.994 322.182 187.815 323.257 187.944L322.837 191.035C322.231 190.995 321.701 191.093 321.248 191.328C320.789 191.542 320.398 191.925 320.075 192.477C319.864 192.836 319.735 193.215 319.688 193.613C319.64 194.012 319.667 194.408 319.77 194.802C319.882 195.182 320.076 195.547 320.354 195.895C320.633 196.243 320.993 196.546 321.435 196.805C321.876 197.064 322.317 197.229 322.757 197.301C323.197 197.373 323.61 197.365 323.996 197.275C324.39 197.172 324.749 197.002 325.073 196.766C325.397 196.529 325.664 196.231 325.874 195.872C326.205 195.306 326.36 194.757 326.338 194.225C326.31 193.671 326.123 193.135 325.777 192.617L328.309 190.762ZM333.358 186.935L321.209 185.551L323.015 182.465L330.67 183.498L330.755 183.353L326.046 177.287L327.816 174.263L338.717 189.182L337.008 192.102L333.358 186.935Z" fill="#0D0D0D"/>
<path d="M96.7116 293.75L108.368 294.891L108.101 297.614L103.611 297.175L102.173 311.865L99.3543 311.589L100.792 296.899L96.445 296.473L96.7116 293.75ZM111.869 302.589L111.851 305.481L111.795 305.066C112.141 304.489 112.582 304.009 113.118 303.628C113.655 303.23 114.197 302.946 114.745 302.774C115.31 302.588 115.759 302.512 116.094 302.544L115.686 305.229C114.928 305.091 114.253 305.17 113.661 305.465C113.071 305.745 112.589 306.156 112.214 306.698C111.841 307.224 111.624 307.798 111.564 308.419L111.14 312.742L108.441 312.478L109.433 302.351L111.869 302.589ZM121.957 314.066C121.001 313.973 120.153 313.689 119.412 313.214C118.686 312.741 118.131 312.092 117.745 311.267C117.377 310.427 117.251 309.418 117.367 308.24C117.477 307.109 117.812 306.153 118.371 305.372C118.929 304.59 119.613 304.014 120.421 303.643C121.245 303.274 122.103 303.133 122.994 303.22C123.982 303.317 124.751 303.585 125.303 304.025C125.855 304.464 126.281 304.956 126.581 305.5L126.401 305.868L126.843 304.055L129.351 304.3L128.36 314.428L125.637 314.161L125.875 311.725L126.054 312.369C125.996 312.46 125.861 312.608 125.648 312.812C125.437 313 125.152 313.206 124.792 313.428C124.451 313.635 124.039 313.812 123.559 313.958C123.08 314.088 122.546 314.124 121.957 314.066ZM122.917 311.894C123.649 311.965 124.28 311.842 124.81 311.524C125.355 311.208 125.764 310.725 126.037 310.077L126.254 307.856C126.122 307.232 125.804 306.702 125.3 306.267C124.796 305.832 124.178 305.578 123.446 305.507C122.904 305.454 122.389 305.54 121.901 305.766C121.43 305.977 121.036 306.308 120.719 306.759C120.401 307.21 120.212 307.746 120.151 308.367C120.091 308.988 120.179 309.56 120.418 310.082C120.657 310.587 120.994 311.006 121.428 311.338C121.879 311.655 122.376 311.841 122.917 311.894ZM140.744 314.7C140.262 315.022 139.684 315.263 139.009 315.422C138.336 315.565 137.681 315.606 137.044 315.543C135.913 315.433 134.939 315.12 134.121 314.606C133.321 314.078 132.72 313.4 132.319 312.573C131.935 311.731 131.797 310.761 131.904 309.663C132.013 308.548 132.362 307.617 132.949 306.871C133.537 306.125 134.257 305.584 135.109 305.25C135.98 304.901 136.876 304.772 137.8 304.862C138.66 304.946 139.405 305.14 140.034 305.443C140.665 305.729 141.199 306.103 141.636 306.564L140.128 308.177C139.894 307.945 139.578 307.721 139.181 307.505C138.8 307.291 138.347 307.158 137.821 307.107C137.296 307.055 136.797 307.143 136.325 307.37C135.852 307.597 135.466 307.929 135.166 308.366C134.866 308.803 134.686 309.324 134.627 309.929C134.571 310.502 134.655 311.041 134.879 311.545C135.104 312.034 135.435 312.436 135.87 312.752C136.321 313.069 136.858 313.258 137.479 313.319C137.877 313.358 138.248 313.338 138.594 313.259C138.956 313.166 139.275 313.037 139.548 312.87L140.744 314.7ZM143.634 315.923L145.46 297.268L148.183 297.535L146.357 316.19L143.634 315.923ZM149.531 309.628L153.499 316.889L150.322 316.578L147.564 311.003L149.531 309.628ZM145.818 313.074L145.81 310.445L152.411 306.316L153.917 307.935L145.818 313.074ZM157.25 307.031L159.973 307.298L158.982 317.425L156.259 317.159L157.25 307.031ZM157.486 303.389C157.527 302.975 157.719 302.648 158.064 302.409C158.427 302.155 158.799 302.046 159.181 302.084C159.563 302.121 159.9 302.299 160.19 302.617C160.482 302.919 160.608 303.277 160.567 303.691C160.525 304.12 160.332 304.455 159.987 304.695C159.643 304.918 159.281 305.011 158.898 304.974C158.516 304.937 158.17 304.774 157.861 304.487C157.569 304.185 157.444 303.819 157.486 303.389ZM166.317 307.919L166.322 310.09L166.276 309.82C166.679 309.152 167.243 308.644 167.968 308.297C168.711 307.936 169.568 307.803 170.539 307.898C171.495 307.992 172.256 308.347 172.822 308.966C173.389 309.584 173.635 310.347 173.563 311.257L172.826 318.781L170.103 318.514L170.744 311.969C170.776 311.474 170.672 311.062 170.431 310.733C170.191 310.388 169.786 310.179 169.214 310.107C168.386 310.026 167.674 310.318 167.078 310.984C166.484 311.633 166.133 312.507 166.026 313.605L165.589 318.072L162.866 317.806L163.857 307.678L166.317 307.919ZM181.294 324.722C180.466 324.641 179.76 324.467 179.175 324.201C178.605 323.952 178.111 323.655 177.695 323.308C177.279 322.962 176.889 322.595 176.525 322.205L178.308 320.499C178.727 320.974 179.178 321.38 179.659 321.716C180.157 322.054 180.764 322.258 181.48 322.329C182.468 322.425 183.279 322.264 183.915 321.843C184.551 321.423 184.918 320.8 185.015 319.974L185.26 317.466L185.354 317.981C185.021 318.592 184.475 319.085 183.715 319.461C182.972 319.822 182.067 319.95 181 319.846C180.076 319.756 179.247 319.441 178.512 318.903C177.779 318.349 177.213 317.643 176.814 316.784C176.432 315.926 176.291 314.988 176.391 313.969C176.495 312.902 176.834 311.987 177.407 311.223C177.982 310.443 178.69 309.861 179.531 309.478C180.39 309.079 181.273 308.925 182.181 309.013C183.073 309.101 183.845 309.337 184.499 309.723C185.17 310.094 185.649 310.535 185.937 311.045L185.78 311.416L186.221 309.867L188.729 310.113L187.733 320.288C187.641 321.228 187.304 322.047 186.721 322.745C186.136 323.46 185.377 323.996 184.441 324.355C183.506 324.713 182.457 324.836 181.294 324.722ZM179.147 314.142C179.086 314.763 179.175 315.335 179.413 315.856C179.653 316.362 179.998 316.782 180.447 317.115C180.899 317.433 181.419 317.62 182.008 317.678C182.804 317.756 183.491 317.638 184.068 317.325C184.663 316.997 185.111 316.527 185.412 315.913L185.63 313.692C185.483 313.05 185.142 312.511 184.607 312.072C184.071 311.634 183.413 311.377 182.632 311.3C182.043 311.243 181.496 311.326 180.992 311.55C180.488 311.774 180.069 312.11 179.736 312.56C179.404 312.994 179.208 313.521 179.147 314.142Z" fill="#0D0D0D"/>
<path d="M9.34902 132.158C9.01937 130.987 8.932 129.918 9.0869 128.949C9.2418 127.98 9.60025 126.998 10.1622 126.003C10.2034 125.909 10.2621 125.819 10.3383 125.732C10.4186 125.661 10.5206 125.609 10.6443 125.576C10.8297 125.526 11.0184 125.55 11.2101 125.648C11.4061 125.761 11.5288 125.911 11.5784 126.096C11.628 126.282 11.5962 126.472 11.483 126.668C10.9951 127.445 10.6823 128.257 10.5449 129.105C10.4115 129.969 10.4627 130.842 10.6983 131.723C10.8968 132.465 11.1884 133.09 11.5732 133.6C11.9622 134.126 12.4185 134.5 12.9422 134.725C13.466 134.949 14.0138 134.985 14.5857 134.832C15.2967 134.642 15.8169 134.295 16.1464 133.793C16.4912 133.287 16.7181 132.68 16.8268 131.972C16.9509 131.259 17.0256 130.486 17.0507 129.651C17.0667 128.968 17.1142 128.309 17.193 127.675C17.2874 127.037 17.4446 126.448 17.6648 125.909C17.9004 125.366 18.2402 124.902 18.6841 124.519C19.128 124.135 19.7132 123.846 20.4397 123.652C21.2589 123.432 22.0432 123.454 22.7927 123.718C23.5422 123.981 24.2001 124.459 24.7664 125.153C25.3524 125.857 25.7859 126.735 26.067 127.786C26.311 128.698 26.39 129.612 26.3041 130.53C26.2223 131.463 25.9462 132.257 25.4757 132.913C25.2904 133.211 25.0973 133.387 24.8963 133.44C24.7418 133.482 24.5665 133.446 24.3706 133.333C24.1747 133.219 24.0519 133.07 24.0023 132.885C23.961 132.73 23.9799 132.584 24.0592 132.447C24.3135 132.097 24.5106 131.689 24.6504 131.221C24.8057 130.748 24.8867 130.246 24.8935 129.715C24.9045 129.198 24.8397 128.677 24.6991 128.152C24.5048 127.425 24.2132 126.799 23.8242 126.274C23.4549 125.76 23.0161 125.389 22.5078 125.16C22.0036 124.947 21.4579 124.919 20.8705 125.077C20.2213 125.25 19.7377 125.578 19.4196 126.061C19.1015 126.543 18.8839 127.123 18.7669 127.801C18.6654 128.474 18.5897 129.181 18.5397 129.923C18.532 130.638 18.4851 131.329 18.399 131.998C18.3326 132.678 18.1836 133.298 17.9521 133.857C17.7248 134.431 17.3757 134.922 16.905 135.329C16.4385 135.752 15.7956 136.073 14.9764 136.292C14.1881 136.503 13.4171 136.469 12.6635 136.191C11.9099 135.912 11.2422 135.428 10.6604 134.739C10.0827 134.065 9.6456 133.205 9.34902 132.158ZM26.281 147.07C26.3348 147.271 26.3086 147.452 26.2026 147.613C26.1007 147.789 25.9493 147.904 25.7483 147.958L15.3151 150.748C15.1296 150.798 14.9487 150.772 14.7724 150.67C14.5961 150.568 14.4831 150.424 14.4335 150.239C14.3797 150.038 14.4038 149.849 14.5057 149.673C14.6118 149.512 14.7575 149.407 14.943 149.357L17.702 148.619L17.9929 148.964C17.5601 149.08 17.0865 149.074 16.5722 148.946C16.0619 148.834 15.5577 148.621 15.0597 148.307C14.5617 147.993 14.1125 147.584 13.7122 147.078C13.3316 146.583 13.0544 146.012 12.8808 145.362C12.5996 144.311 12.618 143.296 12.9357 142.317C13.2576 141.353 13.8259 140.505 14.6406 139.774C15.4594 139.058 16.4562 138.543 17.6309 138.229C18.8365 137.906 19.9593 137.863 20.9994 138.098C22.055 138.329 22.9551 138.784 23.6997 139.463C24.4444 140.141 24.9552 140.998 25.2322 142.034C25.4099 142.699 25.4594 143.348 25.3805 143.982C25.3058 144.631 25.1253 145.226 24.8392 145.766C24.5531 146.307 24.1783 146.763 23.7148 147.135C23.2708 147.519 22.7706 147.785 22.2142 147.934L22.4318 147.354L25.3763 146.567C25.5772 146.513 25.7638 146.529 25.9359 146.616C26.1123 146.718 26.2273 146.869 26.281 147.07ZM14.2101 145.131C14.4292 145.95 14.8322 146.621 15.4191 147.143C16.0213 147.661 16.741 147.999 17.578 148.156C18.4346 148.324 19.3266 148.284 20.254 148.036C21.1659 147.792 21.9355 147.388 22.5628 146.822C23.1941 146.273 23.6415 145.623 23.9048 144.873C24.1681 144.124 24.1901 143.34 23.971 142.52C23.7561 141.717 23.3531 141.046 22.7621 140.508C22.1753 139.986 21.469 139.637 20.6433 139.46C19.8218 139.299 18.9396 139.345 17.9967 139.597C17.0693 139.845 16.2745 140.248 15.6122 140.806C14.9695 141.375 14.5165 142.035 14.2532 142.784C14.0054 143.53 13.991 144.312 14.2101 145.131ZM27.2544 150.895L28.6993 156.297C28.7489 156.483 28.7207 156.656 28.6147 156.817C28.5241 156.973 28.3861 157.077 28.2006 157.126C28.0306 157.172 27.8672 157.149 27.7105 157.059C27.5537 156.968 27.4506 156.83 27.4009 156.644L25.9561 151.242C25.9064 151.057 25.9249 150.878 26.0113 150.706C26.1174 150.545 26.2554 150.442 26.4254 150.396C26.6109 150.347 26.782 150.367 26.9387 150.458C27.0996 150.564 27.2048 150.71 27.2544 150.895ZM31.1622 152.409C31.216 152.61 31.1898 152.791 31.0838 152.951C30.9819 153.128 30.8382 153.241 30.6527 153.29L19.0138 156.403C18.5811 156.519 18.2709 156.66 18.0835 156.826C17.9002 157.008 17.7947 157.201 17.767 157.408C17.7548 157.61 17.7735 157.803 17.8231 157.989C17.8562 158.113 17.9006 158.217 17.9563 158.301C18.0316 158.397 18.0858 158.507 18.1188 158.63C18.1561 158.769 18.133 158.9 18.0496 159.021C17.9703 159.159 17.8457 159.25 17.6756 159.295C17.4593 159.353 17.2407 159.279 17.02 159.073C16.8147 158.863 16.6666 158.588 16.5757 158.248C16.5385 158.109 16.4904 157.898 16.4314 157.616C16.3879 157.329 16.3965 157.021 16.457 156.69C16.533 156.355 16.7296 156.037 17.0469 155.737C17.3682 155.452 17.8767 155.217 18.5722 155.031L30.2806 151.899C30.4661 151.85 30.645 151.868 30.8171 151.954C30.9935 152.056 31.1085 152.208 31.1622 152.409ZM18.8765 164.064C18.691 164.113 18.5101 164.087 18.3338 163.985C18.1575 163.883 18.0445 163.74 17.9949 163.554C17.9412 163.353 17.9653 163.165 18.0672 162.988C18.1732 162.828 18.319 162.722 18.5044 162.673L29.1696 159.82C29.355 159.77 29.5339 159.789 29.706 159.875C29.8824 159.977 29.9974 160.129 30.0511 160.33C30.1049 160.531 30.0787 160.711 29.9727 160.872C29.8708 161.049 29.7271 161.162 29.5416 161.211L18.8765 164.064ZM31.6045 159.914C31.5177 159.59 31.5211 159.324 31.6148 159.116C31.728 158.92 31.9237 158.785 32.2019 158.711L32.4338 158.649C32.712 158.574 32.9434 158.604 33.128 158.737C33.3322 158.881 33.4756 159.107 33.5583 159.416C33.6368 159.71 33.6195 159.955 33.5063 160.151C33.4126 160.358 33.2267 160.499 32.9485 160.573L32.7166 160.635C32.4384 160.71 32.1993 160.683 31.9992 160.554C31.8188 160.437 31.6872 160.223 31.6045 159.914ZM20.9077 166.921C21.0601 166.748 21.2213 166.638 21.3913 166.593C21.581 166.559 21.7547 166.62 21.9125 166.776C22.0537 166.871 22.1373 166.998 22.1632 167.156C22.1932 167.331 22.1573 167.506 22.0554 167.682C21.626 168.244 21.3199 168.864 21.1369 169.543C20.9736 170.232 21.0014 170.987 21.2205 171.806C21.3363 172.239 21.5196 172.645 21.7703 173.025C22.0406 173.417 22.3598 173.712 22.7279 173.912C23.1115 174.107 23.5351 174.143 23.9988 174.019C24.4779 173.891 24.8271 173.649 25.0464 173.292C25.2657 172.935 25.4004 172.51 25.4505 172.016C25.5048 171.538 25.5276 171.035 25.5189 170.507C25.5175 169.944 25.5356 169.393 25.5734 168.853C25.6265 168.309 25.7328 167.808 25.8923 167.351C26.0713 166.906 26.323 166.516 26.6474 166.181C26.9718 165.845 27.4122 165.603 27.9686 165.455C28.6178 165.281 29.2372 165.306 29.8269 165.529C30.4166 165.752 30.9312 166.128 31.3707 166.656C31.8143 167.2 32.1394 167.859 32.3461 168.631C32.4495 169.018 32.507 169.45 32.5187 169.927C32.5458 170.4 32.5014 170.884 32.3853 171.379C32.2692 171.873 32.0557 172.344 31.7447 172.792C31.6428 172.968 31.4992 173.081 31.3137 173.131C31.1437 173.176 30.9684 173.14 30.788 173.023C30.6621 172.924 30.5765 172.79 30.531 172.62C30.4897 172.465 30.5164 172.317 30.6111 172.176C30.9292 171.693 31.1282 171.168 31.2082 170.6C31.2882 170.032 31.2496 169.455 31.0925 168.867C30.9726 168.419 30.7816 168.015 30.5196 167.654C30.2771 167.305 29.9739 167.038 29.61 166.854C29.246 166.67 28.8244 166.642 28.3453 166.77C27.9053 166.921 27.5834 167.172 27.3796 167.525C27.1799 167.893 27.0494 168.334 26.9879 168.847C26.9306 169.376 26.9032 169.955 26.9057 170.583C26.9144 171.111 26.8936 171.622 26.8435 172.115C26.7975 172.625 26.6886 173.084 26.5168 173.495C26.3646 173.916 26.1221 174.279 25.7894 174.584C25.4609 174.903 25.003 175.142 24.4156 175.299C23.7355 175.481 23.0965 175.445 22.4985 175.191C21.9047 174.952 21.3916 174.551 20.9594 173.987C20.5271 173.424 20.2076 172.756 20.0009 171.983C19.7777 171.148 19.7229 170.293 19.8367 169.418C19.9545 168.559 20.3116 167.726 20.9077 166.921ZM40.3898 178.92C40.4518 179.152 40.4948 179.406 40.5187 179.681C40.5467 179.972 40.5258 180.234 40.4559 180.468C40.4014 180.698 40.2583 180.844 40.0264 180.906C39.8564 180.951 39.6853 180.931 39.5131 180.844C39.3564 180.754 39.2574 180.631 39.216 180.477C39.1747 180.322 39.1616 180.118 39.1769 179.866C39.2076 179.609 39.1879 179.35 39.1176 179.087C39.0308 178.762 38.8791 178.505 38.6625 178.314C38.4614 178.119 38.2052 177.998 37.8939 177.948C37.598 177.895 37.2569 177.92 36.8705 178.023L23.5623 181.583C23.3768 181.632 23.1959 181.606 23.0196 181.504C22.8474 181.418 22.7344 181.274 22.6807 181.073C22.627 180.872 22.651 180.684 22.7529 180.507C22.859 180.347 23.0047 180.241 23.1902 180.192L36.4984 176.632C37.4876 176.368 38.3215 176.451 39 176.882C39.6826 177.329 40.1459 178.008 40.3898 178.92ZM35.177 181.259C35.2266 181.444 35.2061 181.615 35.1155 181.772C35.0249 181.929 34.8869 182.032 34.7014 182.082C34.5159 182.131 34.3448 182.111 34.1881 182.02C34.0314 181.929 33.9282 181.791 33.8786 181.606L32.3593 175.926C32.3138 175.756 32.3343 175.585 32.4208 175.412C32.5268 175.251 32.6648 175.148 32.8348 175.103C33.0358 175.049 33.2069 175.07 33.3482 175.164C33.509 175.27 33.6122 175.408 33.6577 175.578L35.177 181.259ZM38.9209 194.328C38.9746 194.528 38.9485 194.709 38.8425 194.87C38.7405 195.047 38.5891 195.162 38.3882 195.215L27.9549 198.006C27.7695 198.056 27.5886 198.029 27.4122 197.927C27.2359 197.826 27.123 197.682 27.0734 197.496C27.0196 197.295 27.0437 197.107 27.1456 196.931C27.2516 196.77 27.3974 196.664 27.5829 196.615L30.3419 195.877L30.6328 196.221C30.2 196.337 29.7264 196.331 29.212 196.204C28.7018 196.092 28.1976 195.879 27.6996 195.565C27.2015 195.251 26.7524 194.841 26.3521 194.335C25.9714 193.841 25.6943 193.269 25.5206 192.62C25.2395 191.569 25.2578 190.554 25.5756 189.574C25.8974 188.61 26.4657 187.763 27.2804 187.032C28.0993 186.316 29.096 185.801 30.2707 185.486C31.4763 185.164 32.5992 185.12 33.6393 185.356C34.6949 185.587 35.595 186.042 36.3396 186.72C37.0842 187.399 37.5951 188.256 37.872 189.292C38.0498 189.956 38.0993 190.605 38.0204 191.239C37.9456 191.889 37.7652 192.484 37.4791 193.024C37.1929 193.564 36.8181 194.02 36.3546 194.393C35.9107 194.777 35.4105 195.043 34.8541 195.192L35.0716 194.612L38.0161 193.824C38.2171 193.771 38.4036 193.787 38.5758 193.873C38.7521 193.975 38.8671 194.127 38.9209 194.328ZM26.85 192.389C27.0691 193.208 27.4721 193.879 28.0589 194.401C28.6612 194.919 29.3808 195.256 30.2179 195.413C31.0745 195.582 31.9665 195.542 32.8939 195.294C33.8058 195.05 34.5754 194.645 35.2026 194.08C35.834 193.53 36.2813 192.88 36.5446 192.131C36.8079 191.381 36.83 190.597 36.6109 189.778C36.3959 188.974 35.9929 188.304 35.402 187.766C34.8152 187.244 34.1089 186.894 33.2832 186.718C32.4617 186.557 31.5795 186.602 30.6366 186.854C29.7092 187.102 28.9144 187.505 28.2521 188.064C27.6094 188.633 27.1564 189.292 26.8931 190.042C26.6453 190.787 26.6309 191.569 26.85 192.389ZM41.8188 204.048C42.0172 204.789 42.1141 205.492 42.1095 206.156C42.1203 206.816 42.0362 207.368 41.8572 207.814C41.6823 208.274 41.4326 208.548 41.108 208.635C40.9534 208.676 40.7844 208.664 40.6009 208.597C40.4328 208.526 40.324 208.397 40.2744 208.212C40.2248 208.027 40.2298 207.86 40.2895 207.711C40.3533 207.578 40.4305 207.433 40.521 207.277C40.6158 207.135 40.6883 206.942 40.7386 206.697C40.7776 206.471 40.7861 206.162 40.7642 205.771C40.7422 205.379 40.6672 204.944 40.539 204.464C40.3075 203.599 39.8824 202.876 39.2635 202.296C38.6447 201.717 37.9106 201.325 37.0612 201.121C36.2272 200.914 35.3543 200.932 34.4423 201.176C33.5149 201.424 32.732 201.84 32.0934 202.425C31.4548 203.01 31.0101 203.701 30.7592 204.496C30.5238 205.288 30.528 206.14 30.7719 207.052C30.9373 207.67 31.1196 208.135 31.3187 208.446C31.5179 208.757 31.7201 209.018 31.9253 209.228C32.1739 209.476 32.392 209.641 32.5796 209.724C32.7869 209.817 32.9194 209.972 32.9773 210.189C33.0311 210.39 33.0085 210.553 32.9097 210.679C32.8304 210.816 32.698 210.909 32.5125 210.959C32.2652 211.025 31.9374 210.914 31.5291 210.626C31.1403 210.349 30.7452 209.924 30.3439 209.353C29.958 208.777 29.6555 208.079 29.4364 207.26C29.1263 206.101 29.124 205.008 29.4293 203.983C29.7388 202.972 30.2911 202.096 31.0862 201.353C31.9009 200.622 32.8956 200.099 34.0703 199.785C35.1986 199.483 36.2926 199.455 37.3523 199.702C38.412 199.949 39.3379 200.438 40.13 201.17C40.9417 201.914 41.5046 202.873 41.8188 204.048ZM43.1659 210.385L44.6108 215.787C44.6604 215.972 44.6322 216.145 44.5262 216.306C44.4356 216.463 44.2976 216.566 44.1121 216.616C43.9421 216.661 43.7787 216.639 43.622 216.548C43.4652 216.457 43.3621 216.319 43.3125 216.134L41.8676 210.732C41.818 210.546 41.8364 210.367 41.9228 210.195C42.0289 210.034 42.1669 209.931 42.3369 209.886C42.5224 209.836 42.6935 209.857 42.8502 209.947C43.0111 210.053 43.1163 210.199 43.1659 210.385ZM47.0737 211.898C47.1275 212.099 47.1013 212.28 46.9953 212.441C46.8934 212.617 46.7497 212.73 46.5642 212.78L34.9253 215.893C34.4926 216.009 34.1824 216.149 33.995 216.316C33.8117 216.497 33.7062 216.691 33.6785 216.897C33.6663 217.099 33.685 217.293 33.7346 217.478C33.7677 217.602 33.8121 217.706 33.8678 217.791C33.9431 217.886 33.9973 217.996 34.0303 218.12C34.0676 218.259 34.0445 218.389 33.9611 218.511C33.8818 218.648 33.7572 218.739 33.5871 218.785C33.3708 218.843 33.1522 218.769 32.9315 218.563C32.7262 218.353 32.5781 218.077 32.4872 217.737C32.45 217.598 32.4019 217.388 32.3429 217.105C32.2994 216.819 32.308 216.51 32.3685 216.179C32.4445 215.844 32.6412 215.527 32.9584 215.226C33.2797 214.942 33.7882 214.706 34.4837 214.52L46.1921 211.389C46.3776 211.339 46.5565 211.358 46.7286 211.444C46.905 211.546 47.02 211.697 47.0737 211.898ZM34.788 223.553C34.6025 223.603 34.4216 223.577 34.2453 223.475C34.069 223.373 33.956 223.229 33.9064 223.044C33.8527 222.843 33.8768 222.654 33.9787 222.478C34.0847 222.317 34.2305 222.212 34.416 222.162L45.0811 219.31C45.2665 219.26 45.4454 219.278 45.6176 219.365C45.7939 219.467 45.9089 219.618 45.9626 219.819C46.0164 220.02 45.9902 220.201 45.8842 220.362C45.7823 220.538 45.6386 220.651 45.4531 220.701L34.788 223.553ZM47.516 219.404C47.4292 219.079 47.4326 218.813 47.5263 218.606C47.6395 218.41 47.8352 218.275 48.1134 218.2L48.3453 218.138C48.6235 218.064 48.8549 218.093 49.0395 218.226C49.2437 218.37 49.3871 218.597 49.4698 218.906C49.5483 219.2 49.531 219.444 49.4178 219.64C49.3241 219.848 49.1382 219.988 48.86 220.063L48.6281 220.125C48.3499 220.199 48.1108 220.172 47.9107 220.043C47.7303 219.926 47.5987 219.713 47.516 219.404ZM44.0082 237.033C42.8335 237.348 41.7065 237.376 40.6272 237.118C39.5634 236.856 38.6432 236.357 37.8665 235.62C37.1054 234.88 36.5739 233.946 36.2721 232.817C35.9786 231.72 35.9747 230.653 36.2604 229.615C36.5657 228.59 37.1118 227.69 37.8987 226.917C38.7051 226.154 39.6957 225.616 40.8704 225.302C42.0605 224.984 43.1875 224.955 44.2514 225.217C45.3193 225.495 46.2416 226.002 47.0183 226.738C47.799 227.49 48.3362 228.415 48.6297 229.512C48.9315 230.64 48.9297 231.717 48.6244 232.743C48.319 233.769 47.7709 234.661 46.9799 235.419C46.1889 236.177 45.1984 236.715 44.0082 237.033ZM43.6361 235.642C44.579 235.39 45.362 234.974 45.9851 234.393C46.6237 233.808 47.0606 233.12 47.2961 232.328C47.5511 231.548 47.5628 230.725 47.3313 229.859C47.1081 229.025 46.6891 228.325 46.0744 227.761C45.4752 227.192 44.7509 226.806 43.9015 226.603C43.0716 226.411 42.1853 226.441 41.2425 226.693C40.2996 226.945 39.5166 227.362 38.8935 227.942C38.2745 228.538 37.8396 229.235 37.5887 230.03C37.3533 230.822 37.3472 231.635 37.5704 232.47C37.802 233.335 38.2153 234.045 38.8104 234.598C39.4251 235.162 40.1473 235.54 40.9771 235.732C41.8069 235.925 42.6933 235.895 43.6361 235.642ZM52.5459 244.154C52.8187 245.174 52.8271 246.041 52.571 246.755C52.3345 247.481 51.8959 248.071 51.2552 248.524C50.634 248.988 49.8984 249.334 49.0483 249.561L42.2319 251.384C42.0464 251.434 41.8655 251.408 41.6892 251.306C41.5129 251.204 41.3999 251.06 41.3503 250.875C41.2924 250.658 41.3165 250.47 41.4225 250.309C41.5286 250.148 41.6743 250.043 41.8598 249.993L48.6066 248.188C49.2249 248.023 49.7622 247.772 50.2185 247.434C50.6749 247.097 50.9956 246.655 51.1807 246.109C51.3699 245.578 51.3653 244.941 51.1669 244.199C50.9891 243.535 50.6651 242.942 50.1947 242.422C49.7285 241.918 49.1907 241.548 48.5814 241.314C47.9721 241.079 47.3583 241.044 46.7401 241.21L39.9932 243.014C39.8078 243.064 39.6269 243.038 39.4505 242.936C39.2742 242.834 39.1613 242.69 39.1116 242.505C39.0538 242.288 39.0778 242.1 39.1839 241.939C39.2899 241.778 39.4357 241.673 39.6212 241.623L50.008 238.845C50.1935 238.795 50.3724 238.814 50.5445 238.9C50.7209 239.002 50.8359 239.154 50.8896 239.355C50.9434 239.556 50.9172 239.736 50.8112 239.897C50.7093 240.074 50.5656 240.187 50.3801 240.236L48.4326 240.757L47.4553 240.447C47.9582 240.346 48.4709 240.374 48.9936 240.533C49.5359 240.702 50.0447 240.964 50.5201 241.317C51.0109 241.666 51.4292 242.084 51.7748 242.571C52.14 243.07 52.397 243.597 52.5459 244.154Z" fill="#0D0D0D"/>
<path fill-rule="evenodd" clip-rule="evenodd" d="M172.576 134.534C154.573 134.534 139.98 149.128 139.98 167.13C139.98 185.132 154.573 199.726 172.576 199.726C190.578 199.726 205.172 185.132 205.172 167.13C205.172 149.128 190.578 134.534 172.576 134.534ZM141.397 167.13C141.397 149.91 155.356 135.951 172.576 135.951C189.795 135.951 203.755 149.91 203.755 167.13C203.755 184.349 189.795 198.309 172.576 198.309C155.356 198.309 141.397 184.349 141.397 167.13Z" fill="#1D57A6"/>
<path fill-rule="evenodd" clip-rule="evenodd" d="M172.576 129.219C151.638 129.219 134.665 146.192 134.665 167.13C134.665 188.067 151.638 205.04 172.576 205.04C193.513 205.04 210.486 188.067 210.486 167.13C210.486 146.192 193.513 129.219 172.576 129.219ZM136.082 167.13C136.082 146.975 152.421 130.637 172.576 130.637C192.73 130.637 209.069 146.975 209.069 167.13C209.069 187.285 192.73 203.623 172.576 203.623C152.421 203.623 136.082 187.285 136.082 167.13Z" fill="#1D57A6"/>
<path fill-rule="evenodd" clip-rule="evenodd" d="M129.351 167.13C129.351 143.257 148.703 123.905 172.576 123.905C196.448 123.905 215.801 143.257 215.801 167.13C215.801 191.002 196.448 210.355 172.576 210.355C148.703 210.355 129.351 191.002 129.351 167.13ZM172.576 125.322C149.486 125.322 130.768 144.04 130.768 167.13C130.768 190.22 149.486 208.938 172.576 208.938C195.666 208.938 214.384 190.22 214.384 167.13C214.384 144.04 195.666 125.322 172.576 125.322Z" fill="#1D57A6"/>
<path fill-rule="evenodd" clip-rule="evenodd" d="M124.036 167.13C124.036 140.322 145.768 118.59 172.576 118.59C199.383 118.59 221.115 140.322 221.115 167.13C221.115 193.938 199.383 215.67 172.576 215.67C145.768 215.67 124.036 193.938 124.036 167.13ZM172.576 120.007C146.551 120.007 125.453 141.105 125.453 167.13C125.453 193.155 146.551 214.252 172.576 214.252C198.601 214.252 219.698 193.155 219.698 167.13C219.698 141.105 198.601 120.007 172.576 120.007Z" fill="#1D57A6"/>
<path fill-rule="evenodd" clip-rule="evenodd" d="M118.721 167.13C118.721 137.387 142.833 113.276 172.576 113.276C202.319 113.276 226.43 137.387 226.43 167.13C226.43 196.873 202.319 220.984 172.576 220.984C142.833 220.984 118.721 196.873 118.721 167.13ZM172.576 114.693C143.615 114.693 120.139 138.17 120.139 167.13C120.139 196.09 143.615 219.567 172.576 219.567C201.536 219.567 225.013 196.09 225.013 167.13C225.013 138.17 201.536 114.693 172.576 114.693Z" fill="#1D57A6"/>
<path fill-rule="evenodd" clip-rule="evenodd" d="M172.576 107.961C139.898 107.961 113.407 134.452 113.407 167.13C113.407 199.808 139.898 226.299 172.576 226.299C205.254 226.299 231.745 199.808 231.745 167.13C231.745 134.452 205.254 107.961 172.576 107.961ZM114.824 167.13C114.824 135.235 140.68 109.378 172.576 109.378C204.471 109.378 230.327 135.235 230.327 167.13C230.327 199.025 204.471 224.882 172.576 224.882C140.68 224.882 114.824 199.025 114.824 167.13Z" fill="#1D57A6"/>
<path fill-rule="evenodd" clip-rule="evenodd" d="M108.092 167.13C108.092 131.517 136.962 102.646 172.576 102.646C208.189 102.646 237.059 131.517 237.059 167.13C237.059 202.743 208.189 231.613 172.576 231.613C136.962 231.613 108.092 202.743 108.092 167.13ZM172.576 104.064C137.745 104.064 109.509 132.299 109.509 167.13C109.509 201.96 137.745 230.196 172.576 230.196C207.406 230.196 235.642 201.96 235.642 167.13C235.642 132.299 207.406 104.064 172.576 104.064Z" fill="#1D57A6"/>
<path fill-rule="evenodd" clip-rule="evenodd" d="M172.576 97.3319C134.027 97.3319 102.778 128.582 102.778 167.13C102.778 205.678 134.027 236.928 172.576 236.928C211.124 236.928 242.374 205.678 242.374 167.13C242.374 128.582 211.124 97.3319 172.576 97.3319ZM104.195 167.13C104.195 129.364 134.81 98.7491 172.576 98.7491C210.341 98.7491 240.956 129.364 240.956 167.13C240.956 204.896 210.341 235.511 172.576 235.511C134.81 235.511 104.195 204.896 104.195 167.13Z" fill="#1D57A6"/>
<path fill-rule="evenodd" clip-rule="evenodd" d="M97.4631 167.13C97.4631 125.646 131.092 92.0173 172.576 92.0173C214.059 92.0173 247.688 125.646 247.688 167.13C247.688 208.613 214.059 242.242 172.576 242.242C131.092 242.242 97.4631 208.613 97.4631 167.13ZM172.576 93.4345C131.875 93.4345 98.8803 126.429 98.8803 167.13C98.8803 207.831 131.875 240.825 172.576 240.825C213.277 240.825 246.271 207.831 246.271 167.13C246.271 126.429 213.277 93.4345 172.576 93.4345Z" fill="#1D57A6"/>
<path fill-rule="evenodd" clip-rule="evenodd" d="M172.576 86.7027C128.157 86.7027 92.1485 122.711 92.1485 167.13C92.1485 211.549 128.157 247.557 172.576 247.557C216.994 247.557 253.003 211.549 253.003 167.13C253.003 122.711 216.994 86.7027 172.576 86.7027ZM93.5658 167.13C93.5658 123.494 128.94 88.1199 172.576 88.1199C216.212 88.1199 251.586 123.494 251.586 167.13C251.586 210.766 216.212 246.14 172.576 246.14C128.94 246.14 93.5658 210.766 93.5658 167.13Z" fill="#1D57A6"/>
<path fill-rule="evenodd" clip-rule="evenodd" d="M86.834 167.13C86.834 119.776 125.222 81.3882 172.576 81.3882C219.93 81.3882 258.317 119.776 258.317 167.13C258.317 214.484 219.93 252.872 172.576 252.872C125.222 252.872 86.834 214.484 86.834 167.13ZM172.576 82.8054C126.005 82.8054 88.2512 120.559 88.2512 167.13C88.2512 213.701 126.005 251.454 172.576 251.454C219.147 251.454 256.9 213.701 256.9 167.13C256.9 120.559 219.147 82.8054 172.576 82.8054Z" fill="#1D57A6"/>
<path fill-rule="evenodd" clip-rule="evenodd" d="M172.576 76.0736C122.287 76.0736 81.5194 116.841 81.5194 167.13C81.5194 217.419 122.287 258.186 172.576 258.186C222.865 258.186 263.632 217.419 263.632 167.13C263.632 116.841 222.865 76.0736 172.576 76.0736ZM82.9366 167.13C82.9366 117.624 123.069 77.4908 172.576 77.4908C222.082 77.4908 262.215 117.624 262.215 167.13C262.215 216.636 222.082 256.769 172.576 256.769C123.069 256.769 82.9366 216.636 82.9366 167.13Z" fill="#1D57A6"/>
<path fill-rule="evenodd" clip-rule="evenodd" d="M76.2048 167.13C76.2048 113.906 119.352 70.759 172.576 70.759C225.8 70.759 268.947 113.906 268.947 167.13C268.947 220.354 225.8 263.501 172.576 263.501C119.352 263.501 76.2048 220.354 76.2048 167.13ZM172.576 72.1762C120.134 72.1762 77.622 114.688 77.622 167.13C77.622 219.571 120.134 262.084 172.576 262.084C225.017 262.084 267.529 219.571 267.529 167.13C267.529 114.688 225.017 72.1762 172.576 72.1762Z" fill="#1D57A6"/>
<path fill-rule="evenodd" clip-rule="evenodd" d="M172.576 65.4445C116.416 65.4445 70.8903 110.971 70.8903 167.13C70.8903 223.289 116.416 268.815 172.576 268.815C228.735 268.815 274.261 223.289 274.261 167.13C274.261 110.971 228.735 65.4445 172.576 65.4445ZM72.3075 167.13C72.3075 111.753 117.199 66.8617 172.576 66.8617C227.952 66.8617 272.844 111.753 272.844 167.13C272.844 222.506 227.952 267.398 172.576 267.398C117.199 267.398 72.3075 222.506 72.3075 167.13Z" fill="#1D57A6"/>
<path fill-rule="evenodd" clip-rule="evenodd" d="M65.5757 167.13C65.5757 108.035 113.481 60.1299 172.576 60.1299C231.67 60.1299 279.576 108.035 279.576 167.13C279.576 226.224 231.67 274.13 172.576 274.13C113.481 274.13 65.5757 226.224 65.5757 167.13ZM172.576 61.5471C114.264 61.5471 66.9929 108.818 66.9929 167.13C66.9929 225.442 114.264 272.713 172.576 272.713C230.887 272.713 278.158 225.442 278.158 167.13C278.158 108.818 230.887 61.5471 172.576 61.5471Z" fill="#1D57A6"/>
</svg>
