<svg xmlns="http://www.w3.org/2000/svg" viewBox="0 0 182.23 41.51"><defs><style>.cls-1{fill:#010101;}</style></defs><g id="Layer_2" data-name="Layer 2"><g id="Calque_1" data-name="Calque 1"><path class="cls-1" d="M15,.52V2H4v8.09h8v1.45H4V23.12H.18V.52Z"/><path class="cls-1" d="M33.71.52V2H21.8v8.09h8v1.45h-8V21.67H33.71v1.45H18V.52Z"/><path class="cls-1" d="M53.65.52V2H41.73v8.09h8v1.45h-8V21.67H53.65v1.45H37.93V.52Z"/><path class="cls-1" d="M57.87.52h3.8V21.67H73v1.45H57.87Z"/><path class="cls-1" d="M79.16,0l1.75,5.86H80L75,0Z"/><path class="cls-1" d="M86.6.52h2.12L103.54,17h.15V.52h1.66V23.66h-.88l-16-18.39H88.3V23.12H86.6Z"/><path class="cls-1" d="M114,0l1.76,5.86h-.92l-5-5.86Z"/><path class="cls-1" d="M136.27.52V2h-11v8.09h8v1.45h-8V23.12h-3.8V.52Z"/><path class="cls-1" d="M139.26.52h3.8v22.6h-3.8Z"/><path class="cls-1" d="M148.73.52h3.8V21.67H163.9v1.45H148.73Z"/><path class="cls-1" d="M167.06.52h3.8V21.67h11.37v1.45H167.06Z"/><path class="cls-1" d="M2.43,33.51a4.13,4.13,0,0,1,3,1.06,4,4,0,0,1,1.08,3,3.76,3.76,0,0,1-1.08,2.89,4.2,4.2,0,0,1-3,1H0V33.51ZM.8,40.81H2.43a3.19,3.19,0,0,0,2.43-.87,3.31,3.31,0,0,0,.83-2.42,3.35,3.35,0,0,0-.83-2.43,3.19,3.19,0,0,0-2.43-.87H.8Z"/><path class="cls-1" d="M14.94,33.51v.65H11.71v3h2.88v.64H11.71v3h3.23v.64h-4V33.51Z"/><path class="cls-1" d="M20.11,35.6a1.21,1.21,0,0,0,.25.77,1.53,1.53,0,0,0,.64.44,6.25,6.25,0,0,0,.86.25c.31.07.63.14.94.23a4.37,4.37,0,0,1,.86.32,1.65,1.65,0,0,1,.64.62,2,2,0,0,1,.25,1,2.17,2.17,0,0,1-.68,1.58,2.48,2.48,0,0,1-1.86.68A3.15,3.15,0,0,1,20.1,41a1.65,1.65,0,0,1-.73-1.42h.85a1.26,1.26,0,0,0,.47.91,1.91,1.91,0,0,0,1.27.36,2,2,0,0,0,1.34-.43,1.39,1.39,0,0,0,.5-1.09,1.09,1.09,0,0,0-.46-1,2.86,2.86,0,0,0-1.11-.46c-.43-.08-.86-.18-1.29-.29a2.24,2.24,0,0,1-1.11-.65A2.16,2.16,0,0,1,20.05,34a2.64,2.64,0,0,1,1.8-.6,2.72,2.72,0,0,1,1.77.52,2.19,2.19,0,0,1,.78,1.37h-.91a1.22,1.22,0,0,0-.48-.84,2.16,2.16,0,0,0-2.42,0A1.32,1.32,0,0,0,20.11,35.6Z"/><path class="cls-1" d="M29.14,41.43V33.51h.8v7.92Z"/><path class="cls-1" d="M35.47,40.36a4.17,4.17,0,0,1,0-5.79,3.94,3.94,0,0,1,2.86-1.14A4.19,4.19,0,0,1,40.5,34a3.46,3.46,0,0,1,1.43,1.61H41a2.55,2.55,0,0,0-1.05-1.08,3.23,3.23,0,0,0-1.57-.38,3.09,3.09,0,0,0-2.29.92,3.67,3.67,0,0,0,0,4.84,3,3,0,0,0,2.28.92,3.13,3.13,0,0,0,2.22-.8,3.33,3.33,0,0,0,1-2.2H38v-.64h4.4v.64a3.91,3.91,0,0,1-1.28,2.67,4,4,0,0,1-2.78,1A3.89,3.89,0,0,1,35.47,40.36Z"/><path class="cls-1" d="M52,33.51h.8v7.92H52l-4.44-6.64v6.64H46.7V33.51h.81L52,40.15Z"/><path class="cls-1" d="M69.6,41.43l-.67-1.85h-3.7l-.67,1.85h-.81l2.92-7.92h.82l2.91,7.92Zm-4.14-2.49h3.23l-1.61-4.43Z"/><path class="cls-1" d="M80.16,33.51H81v7.92h-.8l-4.45-6.64v6.64h-.8V33.51h.8l4.45,6.64Z"/><path class="cls-1" d="M88.16,33.51a4.09,4.09,0,0,1,3,1.06,4,4,0,0,1,1.09,3,3.76,3.76,0,0,1-1.08,2.89,4.22,4.22,0,0,1-3,1H85.73V33.51Zm-1.63,7.3h1.63a3.22,3.22,0,0,0,2.43-.87,3.35,3.35,0,0,0,.83-2.42,3.39,3.39,0,0,0-.83-2.43,3.22,3.22,0,0,0-2.43-.87H86.53Z"/><path class="cls-1" d="M103.12,41.43V33.51h4.27v.65h-3.47v3h2.77v.64h-2.77v3.66Z"/><path class="cls-1" d="M111.53,38.77V33.51h.81v5.26a2,2,0,0,0,.57,1.56,2.57,2.57,0,0,0,3.1,0,2,2,0,0,0,.56-1.56V33.51h.81v5.26a2.54,2.54,0,0,1-.82,2,3.13,3.13,0,0,1-2.1.69,3.17,3.17,0,0,1-2.11-.69A2.57,2.57,0,0,1,111.53,38.77Z"/><path class="cls-1" d="M122.93,38.11v3.32h-.8V33.51h2.42a2.85,2.85,0,0,1,2,.64,2.09,2.09,0,0,1,.69,1.61,2.28,2.28,0,0,1-.54,1.58,2.49,2.49,0,0,1-1.61.74l2.26,3.35h-1.05l-2.15-3.32Zm0-4v3.3h1.62c1.26,0,1.9-.55,1.9-1.65s-.64-1.65-1.9-1.65Z"/><path class="cls-1" d="M137.34,33.51h.81v7.92h-.81l-4.44-6.64v6.64h-.8V33.51h.8l4.44,6.64Z"/><path class="cls-1" d="M142.91,41.43V33.51h.8v7.92Z"/><path class="cls-1" d="M148.18,34.16v-.65h4.95v.65h-2.08v7.27h-.79V34.16Z"/><path class="cls-1" d="M157.59,38.77V33.51h.81v5.26a2,2,0,0,0,.57,1.56,2.57,2.57,0,0,0,3.1,0,2,2,0,0,0,.56-1.56V33.51h.81v5.26a2.54,2.54,0,0,1-.82,2,3.13,3.13,0,0,1-2.1.69,3.17,3.17,0,0,1-2.11-.69A2.57,2.57,0,0,1,157.59,38.77Z"/><path class="cls-1" d="M169,38.11v3.32h-.8V33.51h2.42a2.85,2.85,0,0,1,2,.64,2.09,2.09,0,0,1,.69,1.61,2.28,2.28,0,0,1-.54,1.58,2.49,2.49,0,0,1-1.61.74l2.25,3.35h-1l-2.15-3.32Zm0-4v3.3h1.62c1.26,0,1.9-.55,1.9-1.65s-.64-1.65-1.9-1.65Z"/><path class="cls-1" d="M182.18,33.51v.65H179v3h2.88v.64H179v3h3.22v.64h-4V33.51Z"/></g></g></svg>