<svg width="938" height="743" viewBox="0 0 938 743" fill="none" xmlns="http://www.w3.org/2000/svg">
<path opacity="0.0416667" d="M206.72 384.934L639.596 231.628C660.429 224.25 681.197 242.786 676.226 264.32L565.211 745.177C560.239 766.712 533.448 774.267 517.957 758.503L196.096 430.952C181.741 416.344 187.414 391.771 206.72 384.934Z" stroke="url(#paint0_linear_1035_234)" stroke-width="4"/>
<path opacity="0.0833333" d="M248.613 304.163L707.817 300.14C729.917 299.947 743.519 324.234 731.808 342.977L470.29 761.493C458.578 780.236 430.786 778.657 421.272 758.709L223.586 344.216C214.769 325.73 228.133 304.343 248.613 304.163Z" stroke="url(#paint1_linear_1035_234)" stroke-width="4"/>
<path opacity="0.125" d="M314.521 241.433L750.016 387.131C770.976 394.143 775.929 421.536 758.753 435.445L375.228 746.017C358.052 759.926 332.288 749.385 329.787 727.426L277.817 271.155C275.499 250.805 295.098 234.935 314.521 241.433Z" stroke="url(#paint2_linear_1035_234)" stroke-width="4"/>
<path opacity="0.166667" d="M397.261 203.576L761.595 483.12C779.13 496.574 774.896 524.087 754.127 531.646L290.384 700.435C269.616 707.994 248.687 689.639 253.472 668.062L352.88 219.73C357.314 199.734 381.012 191.109 397.261 203.576Z" stroke="url(#paint3_linear_1035_234)" stroke-width="4"/>
<path opacity="0.208333" d="M487.818 194.721L741.292 577.651C753.491 596.08 740.53 620.716 718.432 621.101L225.003 629.714C202.905 630.1 189.092 605.932 200.64 587.088L440.596 195.545C451.298 178.083 476.513 177.643 487.818 194.721Z" stroke="url(#paint4_linear_1035_234)" stroke-width="4"/>
<path opacity="0.25" d="M576.324 215.829L691.319 660.42C696.854 681.817 676.578 700.89 655.559 694.061L186.208 541.559C165.188 534.73 159.996 507.381 177.051 493.324L531.407 201.235C547.211 188.208 571.196 196.001 576.324 215.829Z" stroke="url(#paint5_linear_1035_234)" stroke-width="4"/>
<path opacity="0.291667" d="M653.137 264.603L617.122 722.41C615.389 744.443 590.008 755.877 572.357 742.576L178.227 445.577C160.576 432.276 164.571 404.728 185.273 396.988L615.418 236.18C634.602 229.008 654.743 244.185 653.137 264.603Z" stroke="url(#paint6_linear_1035_234)" stroke-width="4"/>
<path opacity="0.333333" d="M709.885 335.727L526.785 756.867C517.973 777.135 490.253 779.683 477.894 761.36L201.929 352.226C189.571 333.903 202.317 309.156 224.41 308.578L683.475 296.573C703.949 296.037 718.051 316.945 709.885 335.727Z" stroke="url(#paint7_linear_1035_234)" stroke-width="4"/>
<path opacity="0.375" d="M740.385 421.452L430.151 760.036C415.22 776.331 388.181 769.715 382.461 748.367L254.732 271.678C249.012 250.33 269.121 231.08 290.199 237.727L728.161 375.832C747.694 381.992 754.221 406.351 740.385 421.452Z" stroke="url(#paint8_linear_1035_234)" stroke-width="4"/>
<path opacity="0.416667" d="M741.315 512.437L337.751 731.572C318.328 742.118 294.916 727.06 296.458 705.012L330.883 212.709C332.425 190.662 357.705 179.008 375.47 192.155L744.609 465.323C761.073 477.506 759.314 502.663 741.315 512.437Z" stroke="url(#paint9_linear_1035_234)" stroke-width="4"/>
<path opacity="0.458333" d="M712.573 598.767L259.652 674.576C237.854 678.224 220.62 656.364 229.255 636.019L422.083 181.746C430.719 161.401 458.416 158.613 470.933 176.828L731.027 555.293C742.627 572.172 732.773 595.386 712.573 598.767Z" stroke="url(#paint10_linear_1035_234)" stroke-width="4"/>
<path opacity="0.5" d="M657.29 671.035L204.364 595.257C182.565 591.61 173.387 565.329 188.176 548.905L518.395 182.159C533.184 165.735 560.28 172.116 566.185 193.413L688.892 635.937C694.365 655.673 677.49 674.415 657.29 671.035Z" stroke="url(#paint11_linear_1035_234)" stroke-width="4"/>
<path opacity="0.541667" d="M581.49 721.369L177.911 502.261C158.488 491.716 158.366 463.879 177.696 453.164L609.326 213.909C628.656 203.194 652.198 218.048 650.848 240.108L622.798 698.472C621.547 718.915 599.49 731.141 581.49 721.369Z" stroke="url(#paint12_linear_1035_234)" stroke-width="4"/>
<path opacity="0.583333" d="M493.434 744.282L183.177 405.718C168.245 389.424 177.192 363.065 198.958 359.227L684.965 273.53C706.731 269.693 724.154 291.402 715.696 311.821L539.945 736.08C532.107 755.002 507.271 759.381 493.434 744.282Z" stroke="url(#paint13_linear_1035_234)" stroke-width="4"/>
<path opacity="0.625" d="M402.715 737.278L219.587 316.15C210.773 295.882 227.815 273.872 249.644 277.329L737.073 354.53C758.902 357.988 768.308 384.187 753.663 400.74L449.362 744.666C435.791 760.005 410.882 756.06 402.715 737.278Z" stroke="url(#paint14_linear_1035_234)" stroke-width="4"/>
<path opacity="0.666667" d="M319.218 701.121L283.172 243.317C281.438 221.284 304.717 206.02 324.231 216.396L759.97 448.083C779.485 458.459 779.848 486.293 760.612 497.176L360.919 723.294C343.093 733.379 320.826 721.539 319.218 701.121Z" stroke="url(#paint15_linear_1035_234)" stroke-width="4"/>
<path opacity="0.708333" d="M252.042 639.75L367.007 195.152C372.54 173.754 399.521 166.902 414.594 183.066L751.163 543.992C766.236 560.156 757.518 586.593 735.787 590.62L284.252 674.291C264.114 678.023 246.915 659.579 252.042 639.75Z" stroke="url(#paint16_linear_1035_234)" stroke-width="4"/>
<path opacity="0.75" d="M208.507 559.852L461.956 176.905C474.153 158.475 501.895 160.779 510.884 180.97L711.611 631.809C720.6 652 703.75 674.157 681.892 670.89L227.717 602.998C207.461 599.97 197.204 576.931 208.507 559.852Z" stroke="url(#paint17_linear_1035_234)" stroke-width="4"/>
<path opacity="0.791667" d="M193.356 470.133L557.671 190.565C575.205 177.11 600.684 188.321 602.611 210.338L645.622 701.965C647.549 723.982 624.403 739.447 604.799 729.241L197.472 517.182C179.306 507.725 177.108 482.602 193.356 470.133Z" stroke="url(#paint18_linear_1035_234)" stroke-width="4"/>
<path opacity="0.833333" d="M208.239 380.37L643.725 234.642C664.684 227.629 685.125 246.524 679.779 267.969L560.389 746.815C555.042 768.259 528.123 775.346 512.91 759.314L196.814 426.196C182.716 411.339 188.817 386.869 208.239 380.37Z" stroke="url(#paint19_linear_1035_234)" stroke-width="4"/>
<path opacity="0.875" d="M251.536 300.343L710.74 304.335C732.841 304.527 746.017 329.048 733.98 347.584L465.198 761.472C453.16 780.007 425.4 777.944 416.235 757.832L225.814 339.952C217.321 321.315 231.056 300.165 251.536 300.343Z" stroke="url(#paint20_linear_1035_234)" stroke-width="4"/>
<path opacity="0.916667" d="M318.529 238.771L751.415 392.048C772.249 399.425 776.724 426.9 759.308 440.507L370.421 744.339C353.005 757.946 327.429 746.957 325.311 724.957L281.312 267.848C279.35 247.462 299.222 231.935 318.529 238.771Z" stroke="url(#paint21_linear_1035_234)" stroke-width="4"/>
<path opacity="0.958333" d="M401.917 202.366L761.317 488.225C778.614 501.983 773.9 529.418 753.003 536.614L286.385 697.283C265.488 704.479 244.883 685.762 250.043 664.271L357.261 217.742C362.043 197.827 385.888 189.616 401.917 202.366Z" stroke="url(#paint22_linear_1035_234)" stroke-width="4"/>
<path d="M492.615 195.091L739.367 582.386C751.243 601.026 737.854 625.431 715.753 625.431H222.248C200.146 625.431 186.758 601.026 198.633 582.386L445.386 195.091C456.391 177.818 481.61 177.818 492.615 195.091Z" stroke="url(#paint23_linear_1035_234)" stroke-width="4"/>
<defs>
<linearGradient id="paint0_linear_1035_234" x1="423.95" y1="667.758" x2="517.086" y2="264.343" gradientUnits="userSpaceOnUse">
<stop stop-color="#FF1CF7"/>
<stop offset="1" stop-color="#00F0FF"/>
</linearGradient>
<linearGradient id="paint1_linear_1035_234" x1="361.93" y1="642.302" x2="581.331" y2="291.188" gradientUnits="userSpaceOnUse">
<stop stop-color="#FF1CF7"/>
<stop offset="1" stop-color="#00F0FF"/>
</linearGradient>
<linearGradient id="paint2_linear_1035_234" x1="311.576" y1="598.042" x2="633.336" y2="337.486" gradientUnits="userSpaceOnUse">
<stop stop-color="#FF1CF7"/>
<stop offset="1" stop-color="#00F0FF"/>
</linearGradient>
<linearGradient id="paint3_linear_1035_234" x1="278.377" y1="539.798" x2="667.434" y2="398.193" gradientUnits="userSpaceOnUse">
<stop stop-color="#FF1CF7"/>
<stop offset="1" stop-color="#00F0FF"/>
</linearGradient>
<linearGradient id="paint4_linear_1035_234" x1="265.947" y1="473.92" x2="679.911" y2="466.694" gradientUnits="userSpaceOnUse">
<stop stop-color="#FF1CF7"/>
<stop offset="1" stop-color="#00F0FF"/>
</linearGradient>
<linearGradient id="paint5_linear_1035_234" x1="275.643" y1="407.583" x2="669.406" y2="535.524" gradientUnits="userSpaceOnUse">
<stop stop-color="#FF1CF7"/>
<stop offset="1" stop-color="#00F0FF"/>
</linearGradient>
<linearGradient id="paint6_linear_1035_234" x1="306.408" y1="348.018" x2="637.065" y2="597.185" gradientUnits="userSpaceOnUse">
<stop stop-color="#FF1CF7"/>
<stop offset="1" stop-color="#00F0FF"/>
</linearGradient>
<linearGradient id="paint7_linear_1035_234" x1="354.889" y1="301.713" x2="586.41" y2="644.957" gradientUnits="userSpaceOnUse">
<stop stop-color="#FF1CF7"/>
<stop offset="1" stop-color="#00F0FF"/>
</linearGradient>
<linearGradient id="paint8_linear_1035_234" x1="415.804" y1="273.716" x2="522.962" y2="673.635" gradientUnits="userSpaceOnUse">
<stop stop-color="#FF1CF7"/>
<stop offset="1" stop-color="#00F0FF"/>
</linearGradient>
<linearGradient id="paint9_linear_1035_234" x1="482.516" y1="267.076" x2="453.635" y2="680.095" gradientUnits="userSpaceOnUse">
<stop stop-color="#FF1CF7"/>
<stop offset="1" stop-color="#00F0FF"/>
</linearGradient>
<linearGradient id="paint10_linear_1035_234" x1="547.755" y1="282.518" x2="385.982" y2="663.631" gradientUnits="userSpaceOnUse">
<stop stop-color="#FF1CF7"/>
<stop offset="1" stop-color="#00F0FF"/>
</linearGradient>
<linearGradient id="paint11_linear_1035_234" x1="604.412" y1="318.356" x2="327.374" y2="626.038" gradientUnits="userSpaceOnUse">
<stop stop-color="#FF1CF7"/>
<stop offset="1" stop-color="#00F0FF"/>
</linearGradient>
<linearGradient id="paint12_linear_1035_234" x1="646.315" y1="370.689" x2="284.199" y2="571.413" gradientUnits="userSpaceOnUse">
<stop stop-color="#FF1CF7"/>
<stop offset="1" stop-color="#00F0FF"/>
</linearGradient>
<linearGradient id="paint13_linear_1035_234" x1="668.897" y1="433.812" x2="261.16" y2="505.707" gradientUnits="userSpaceOnUse">
<stop stop-color="#FF1CF7"/>
<stop offset="1" stop-color="#00F0FF"/>
</linearGradient>
<linearGradient id="paint14_linear_1035_234" x1="669.697" y1="500.848" x2="260.768" y2="436.08" gradientUnits="userSpaceOnUse">
<stop stop-color="#FF1CF7"/>
<stop offset="1" stop-color="#00F0FF"/>
</linearGradient>
<linearGradient id="paint15_linear_1035_234" x1="648.629" y1="564.493" x2="283.065" y2="370.119" gradientUnits="userSpaceOnUse">
<stop stop-color="#FF1CF7"/>
<stop offset="1" stop-color="#00F0FF"/>
</linearGradient>
<linearGradient id="paint16_linear_1035_234" x1="607.988" y1="617.811" x2="325.623" y2="315.011" gradientUnits="userSpaceOnUse">
<stop stop-color="#FF1CF7"/>
<stop offset="1" stop-color="#00F0FF"/>
</linearGradient>
<linearGradient id="paint17_linear_1035_234" x1="552.203" y1="654.993" x2="383.803" y2="276.761" gradientUnits="userSpaceOnUse">
<stop stop-color="#FF1CF7"/>
<stop offset="1" stop-color="#00F0FF"/>
</linearGradient>
<linearGradient id="paint18_linear_1035_234" x1="487.352" y1="671.988" x2="451.267" y2="259.536" gradientUnits="userSpaceOnUse">
<stop stop-color="#FF1CF7"/>
<stop offset="1" stop-color="#00F0FF"/>
</linearGradient>
<linearGradient id="paint19_linear_1035_234" x1="420.501" y1="666.943" x2="520.663" y2="265.214" gradientUnits="userSpaceOnUse">
<stop stop-color="#FF1CF7"/>
<stop offset="1" stop-color="#00F0FF"/>
</linearGradient>
<linearGradient id="paint20_linear_1035_234" x1="358.934" y1="640.408" x2="584.429" y2="293.176" gradientUnits="userSpaceOnUse">
<stop stop-color="#FF1CF7"/>
<stop offset="1" stop-color="#00F0FF"/>
</linearGradient>
<linearGradient id="paint21_linear_1035_234" x1="309.361" y1="595.275" x2="635.619" y2="340.374" gradientUnits="userSpaceOnUse">
<stop stop-color="#FF1CF7"/>
<stop offset="1" stop-color="#00F0FF"/>
</linearGradient>
<linearGradient id="paint22_linear_1035_234" x1="277.182" y1="536.461" x2="668.652" y2="401.667" gradientUnits="userSpaceOnUse">
<stop stop-color="#FF1CF7"/>
<stop offset="1" stop-color="#00F0FF"/>
</linearGradient>
<linearGradient id="paint23_linear_1035_234" x1="265.905" y1="470.375" x2="679.932" y2="470.375" gradientUnits="userSpaceOnUse">
<stop stop-color="#FF1CF7"/>
<stop offset="1" stop-color="#00F0FF"/>
</linearGradient>
</defs>
</svg>
