<svg width="374" height="749" viewBox="0 0 374 749" fill="none" xmlns="http://www.w3.org/2000/svg">
<path opacity="0.0714286" d="M189.356 238.896C206.344 247.792 216.407 265.947 214.949 285.068L196.417 528.115C194.733 550.202 178.153 568.268 156.292 571.838L-64.9532 607.967C-84.9517 611.233 -104.847 601.588 -114.671 583.865L-238.711 360.091C-248.535 342.368 -246.171 320.385 -232.804 305.156L-84.9231 136.675C-70.3107 120.028 -46.2039 115.541 -26.5806 125.817L189.356 238.896Z" stroke="url(#paint0_linear_1018_710)" stroke-width="4"/>
<path opacity="0.142857" d="M227.175 323.843C239.337 338.67 241.507 359.313 232.693 376.344L120.668 592.829C110.488 612.502 88.1671 622.654 66.6486 617.398L-151.125 564.208C-170.81 559.4 -185.355 542.748 -187.473 522.596L-214.217 268.144C-216.335 247.992 -205.57 228.68 -187.315 219.884L14.6409 122.579C34.5964 112.964 58.54 118.253 72.5881 135.38L227.175 323.843Z" stroke="url(#paint1_linear_1018_710)" stroke-width="4"/>
<path opacity="0.214286" d="M228.796 416.815C234.198 435.215 228.129 455.065 213.362 467.299L25.6547 622.803C8.5967 636.934 -15.9162 637.558 -33.6705 624.312L-213.349 490.259C-229.59 478.142 -236.473 457.131 -230.548 437.752L-155.744 193.079C-149.82 173.701 -132.365 160.131 -112.124 159.167L111.798 148.507C133.924 147.454 153.897 161.678 160.137 182.932L228.796 416.815Z" stroke="url(#paint2_linear_1018_710)" stroke-width="4"/>
<path opacity="0.285714" d="M193.962 503.03C191.744 522.078 178.402 537.979 160.029 543.47L-73.5169 613.269C-94.7405 619.612 -117.548 610.608 -128.716 591.478L-241.732 397.875C-251.948 380.375 -250.073 358.345 -237.048 342.823L-72.5889 146.828C-59.5638 131.305 -38.1939 125.634 -19.186 132.655L191.1 210.336C211.879 218.012 224.707 238.91 222.146 260.912L193.962 503.03Z" stroke="url(#paint3_linear_1018_710)" stroke-width="4"/>
<path opacity="0.357143" d="M128.21 568.779C118.726 585.447 100.232 594.87 81.1728 592.746L-161.08 565.742C-183.094 563.288 -200.571 546.088 -203.376 524.116L-231.761 301.745C-234.327 281.644 -223.994 262.098 -205.939 252.898L22.0277 136.743C40.0826 127.544 61.9696 130.674 76.723 144.564L239.94 298.235C256.068 313.419 259.711 337.668 248.756 356.921L128.21 568.779Z" stroke="url(#paint4_linear_1018_710)" stroke-width="4"/>
<path opacity="0.428571" d="M41.9939 603.611C26.7515 615.248 6.04529 616.696 -10.6683 607.293L-223.112 487.781C-242.418 476.92 -251.784 454.259 -245.781 432.937L-185.023 217.152C-179.531 197.647 -162.381 183.692 -142.167 182.279L113.063 164.431C133.277 163.018 152.201 174.45 160.354 193.001L250.552 398.23C259.465 418.509 253.343 442.253 235.737 455.695L41.9939 603.611Z" stroke="url(#paint5_linear_1018_710)" stroke-width="4"/>
<path opacity="0.5" d="M-50.9779 601.986C-69.5555 606.743 -89.1814 599.985 -100.893 584.799L-249.751 391.78C-263.278 374.239 -263.046 349.719 -249.188 332.438L-108.946 157.547C-96.2697 141.739 -75.0311 135.594 -55.8717 142.191L186.042 225.488C205.202 232.086 218.155 250.004 218.411 270.266L221.25 494.423C221.53 516.572 206.618 536.037 185.159 541.531L-50.9779 601.986Z" stroke="url(#paint6_linear_1018_710)" stroke-width="4"/>
<path opacity="0.571429" d="M-135.924 564.164C-154.883 561.284 -170.309 547.395 -175.155 528.841L-236.761 293.001C-242.36 271.569 -232.565 249.09 -213.057 238.597L-15.6282 132.406C2.2176 122.807 24.1689 125.449 39.2275 139.008L229.364 310.207C244.422 323.766 249.344 345.321 241.663 364.072L156.691 571.519C148.295 592.018 126.962 604.108 105.063 600.781L-135.924 564.164Z" stroke="url(#paint7_linear_1018_710)" stroke-width="4"/>
<path opacity="0.642857" d="M-199.34 496.157C-215.666 486.097 -224.438 467.285 -221.65 448.312L-186.209 207.15C-182.988 185.234 -165.188 168.368 -143.131 166.332L80.095 145.725C100.273 143.862 119.447 154.871 128.01 173.236L236.139 405.117C244.702 423.482 240.811 445.247 226.414 459.506L67.1406 617.261C51.4026 632.849 27.0415 635.643 8.18284 624.023L-199.34 496.157Z" stroke="url(#paint8_linear_1018_710)" stroke-width="4"/>
<path opacity="0.714286" d="M-231.141 408.78C-242.239 393.14 -242.963 372.396 -232.983 356.021L-106.13 147.878C-94.6018 128.963 -71.6274 120.393 -50.5279 127.137L163.005 195.389C182.306 201.558 195.654 219.184 196.362 239.435L205.291 495.132C205.998 515.383 193.912 533.897 175.088 541.398L-33.1637 624.379C-53.7414 632.578 -77.2577 625.632 -90.0769 607.567L-231.141 408.78Z" stroke="url(#paint9_linear_1018_710)" stroke-width="4"/>
<path opacity="0.785714" d="M-226.273 315.921C-230.378 297.189 -222.94 277.81 -207.355 266.636L-9.25743 124.605C8.74473 111.698 33.2414 112.786 50.0285 127.238L219.918 273.499C235.275 286.719 240.675 308.159 233.413 327.077L141.724 565.936C134.462 584.854 116.102 597.173 95.8441 596.723L-128.276 591.737C-150.421 591.244 -169.354 575.661 -174.096 554.024L-226.273 315.921Z" stroke="url(#paint10_linear_1018_710)" stroke-width="4"/>
<path opacity="0.857143" d="M-185.509 232.346C-181.969 213.499 -167.55 198.568 -148.838 194.371L89.0079 141.034C110.622 136.187 132.746 146.76 142.552 166.622L241.788 367.637C250.758 385.807 247.352 407.652 233.275 422.229L55.5448 606.274C41.4687 620.85 19.7552 625.017 1.28335 616.687L-203.072 524.526C-223.265 515.42 -234.603 493.678 -230.514 471.908L-185.509 232.346Z" stroke="url(#paint11_linear_1018_710)" stroke-width="4"/>
<path opacity="0.928571" d="M-115.331 171.343C-104.707 155.377 -85.6008 147.267 -66.7367 150.716L173.042 194.552C194.832 198.536 211.066 216.913 212.331 239.028L225.136 462.837C226.293 483.067 214.622 501.846 195.969 509.763L-39.5448 609.733C-58.1974 617.65 -79.8128 613.002 -93.5613 598.116L-245.661 433.434C-260.691 417.162 -262.633 392.718 -250.362 374.276L-115.331 171.343Z" stroke="url(#paint12_linear_1018_710)" stroke-width="4"/>
<path d="M-26.8954 142.61C-10.8784 132.064 9.87833 132.064 25.8953 142.61L229.485 276.65C247.986 288.831 255.749 312.091 248.273 332.942L172.61 543.963C165.771 563.037 147.69 575.762 127.427 575.762H-128.427C-148.69 575.762 -166.771 563.037 -173.61 543.963L-249.273 332.942C-256.749 312.091 -248.986 288.831 -230.485 276.65L-26.8954 142.61Z" stroke="url(#paint13_linear_1018_710)" stroke-width="4"/>
<defs>
<linearGradient id="paint0_linear_1018_710" x1="-79.4574" y1="232.945" x2="80.576" y2="521.653" gradientUnits="userSpaceOnUse">
<stop stop-color="#FF1CF7"/>
<stop offset="1" stop-color="#00F0FF"/>
</linearGradient>
<linearGradient id="paint1_linear_1018_710" x1="-17.9434" y1="213.331" x2="16.561" y2="541.618" gradientUnits="userSpaceOnUse">
<stop stop-color="#FF1CF7"/>
<stop offset="1" stop-color="#00F0FF"/>
</linearGradient>
<linearGradient id="paint2_linear_1018_710" x1="46.344" y1="219.313" x2="-50.1665" y2="534.985" gradientUnits="userSpaceOnUse">
<stop stop-color="#FF1CF7"/>
<stop offset="1" stop-color="#00F0FF"/>
</linearGradient>
<linearGradient id="paint3_linear_1018_710" x1="103.184" y1="249.938" x2="-108.997" y2="502.806" gradientUnits="userSpaceOnUse">
<stop stop-color="#FF1CF7"/>
<stop offset="1" stop-color="#00F0FF"/>
</linearGradient>
<linearGradient id="paint4_linear_1018_710" x1="143.539" y1="300.337" x2="-150.578" y2="450.197" gradientUnits="userSpaceOnUse">
<stop stop-color="#FF1CF7"/>
<stop offset="1" stop-color="#00F0FF"/>
</linearGradient>
<linearGradient id="paint5_linear_1018_710" x1="160.993" y1="362.498" x2="-168.298" y2="385.525" gradientUnits="userSpaceOnUse">
<stop stop-color="#FF1CF7"/>
<stop offset="1" stop-color="#00F0FF"/>
</linearGradient>
<linearGradient id="paint6_linear_1018_710" x1="152.771" y1="426.538" x2="-159.34" y2="319.069" gradientUnits="userSpaceOnUse">
<stop stop-color="#FF1CF7"/>
<stop offset="1" stop-color="#00F0FF"/>
</linearGradient>
<linearGradient id="paint7_linear_1018_710" x1="120.181" y1="482.274" x2="-125.127" y2="261.398" gradientUnits="userSpaceOnUse">
<stop stop-color="#FF1CF7"/>
<stop offset="1" stop-color="#00F0FF"/>
</linearGradient>
<linearGradient id="paint8_linear_1018_710" x1="68.4037" y1="520.845" x2="-71.1006" y2="221.677" gradientUnits="userSpaceOnUse">
<stop stop-color="#FF1CF7"/>
<stop offset="1" stop-color="#00F0FF"/>
</linearGradient>
<linearGradient id="paint9_linear_1018_710" x1="5.67169" y1="536.121" x2="-5.84847" y2="206.227" gradientUnits="userSpaceOnUse">
<stop stop-color="#FF1CF7"/>
<stop offset="1" stop-color="#00F0FF"/>
</linearGradient>
<linearGradient id="paint10_linear_1018_710" x1="-58.0424" y1="525.669" x2="60.2532" y2="217.499" gradientUnits="userSpaceOnUse">
<stop stop-color="#FF1CF7"/>
<stop offset="1" stop-color="#00F0FF"/>
</linearGradient>
<linearGradient id="paint11_linear_1018_710" x1="-112.607" y1="491.153" x2="116.696" y2="253.703" gradientUnits="userSpaceOnUse">
<stop stop-color="#FF1CF7"/>
<stop offset="1" stop-color="#00F0FF"/>
</linearGradient>
<linearGradient id="paint12_linear_1018_710" x1="-149.348" y1="438.061" x2="154.506" y2="309.083" gradientUnits="userSpaceOnUse">
<stop stop-color="#FF1CF7"/>
<stop offset="1" stop-color="#00F0FF"/>
</linearGradient>
<linearGradient id="paint13_linear_1018_710" x1="-162.424" y1="374.834" x2="167.672" y2="374.834" gradientUnits="userSpaceOnUse">
<stop stop-color="#FF1CF7"/>
<stop offset="1" stop-color="#00F0FF"/>
</linearGradient>
</defs>
</svg>
