<svg width="863" height="852" viewBox="0 0 863 852" fill="none" xmlns="http://www.w3.org/2000/svg">
<path opacity="0.010101" d="M348.427 420.279C342.421 414.386 341.069 405.271 345.128 398.038L523.661 79.8853C527.423 73.18 535.016 69.5785 542.686 70.86L918.571 133.661C926.609 135.004 932.905 141.397 934.096 149.425L986.901 505.437C988.092 513.466 983.9 521.255 976.563 524.646L633.509 683.185C626.508 686.421 618.162 684.941 612.594 679.479L348.427 420.279Z" stroke="url(#paint0_linear_1023_243)" stroke-width="3"/>
<path opacity="0.020202" d="M344.265 415.89C338.366 409.896 337.181 400.754 341.374 393.585L525.374 79.0581C529.259 72.4177 536.912 68.9435 544.554 70.351L918.497 139.224C926.51 140.7 932.687 147.198 933.73 155.248L979.877 511.363C980.92 519.413 976.586 527.134 969.188 530.403L623.937 682.949C616.881 686.066 608.569 684.449 603.104 678.897L344.265 415.89Z" stroke="url(#paint1_linear_1023_243)" stroke-width="3"/>
<path opacity="0.030303" d="M340.206 411.507C334.416 405.413 333.399 396.248 337.726 389.147L527.115 78.3278C531.12 71.754 538.832 68.4078 546.443 69.9409L918.336 144.841C926.32 146.449 932.377 153.051 933.272 161.12L972.773 517.227C973.668 525.296 969.192 532.946 961.735 536.092L614.404 682.619C607.296 685.618 599.018 683.864 593.658 678.223L340.206 411.507Z" stroke="url(#paint2_linear_1023_243)" stroke-width="3"/>
<path opacity="0.040404" d="M336.251 407.131C330.572 400.941 329.723 391.754 334.182 384.724L528.879 77.6952C533.004 71.1899 540.773 67.9726 548.352 69.6306L918.085 150.511C926.037 152.251 931.972 158.953 932.718 167.038L965.588 523.028C966.335 531.113 961.719 538.69 954.206 541.712L604.913 682.198C597.752 685.078 589.512 683.188 584.258 677.46L336.251 407.131Z" stroke="url(#paint3_linear_1023_243)" stroke-width="3"/>
<path opacity="0.050505" d="M332.398 402.764C326.833 396.479 326.153 387.276 330.742 380.318L530.666 77.16C534.91 70.725 542.734 67.6372 550.279 69.4197L917.744 156.232C925.663 158.102 931.473 164.903 932.071 173.001L958.326 528.766C958.924 536.863 954.169 544.364 946.602 547.261L595.464 681.686C588.254 684.446 580.053 682.42 574.905 676.607L332.398 402.764Z" stroke="url(#paint4_linear_1023_243)" stroke-width="3"/>
<path opacity="0.0606061" d="M328.648 398.405C323.198 392.027 322.688 382.812 327.405 375.93L532.474 76.7206C536.835 70.3574 544.712 67.3999 552.222 69.3065L917.312 161.999C925.195 164.001 930.879 170.898 931.328 179.005L950.986 534.436C951.435 542.543 946.543 549.966 938.924 552.737L586.059 681.082C578.801 683.721 570.64 681.56 565.601 675.664L328.648 398.405Z" stroke="url(#paint5_linear_1023_243)" stroke-width="3"/>
<path opacity="0.0707071" d="M325.001 394.058C319.668 387.591 319.328 378.366 324.172 371.561L534.301 76.3789C538.778 70.0893 546.707 67.2629 554.179 69.293L916.789 167.814C924.634 169.945 930.19 176.936 930.489 185.051L943.572 540.039C943.871 548.154 938.843 555.495 931.175 558.139L576.701 680.388C569.396 682.907 561.279 680.611 556.349 674.633L325.001 394.058Z" stroke="url(#paint6_linear_1023_243)" stroke-width="3"/>
<path opacity="0.0808081" d="M321.455 389.726C316.242 383.171 316.072 373.941 321.04 367.217L536.144 76.1363C540.736 69.9219 548.715 67.2272 556.148 69.3803L916.174 173.676C923.977 175.936 929.404 183.019 929.554 191.138L936.083 545.576C936.233 553.695 931.07 560.952 923.354 563.47L567.389 679.607C560.04 682.005 551.967 679.575 547.149 673.517L321.455 389.726Z" stroke="url(#paint7_linear_1023_243)" stroke-width="3"/>
<path opacity="0.0909091" d="M318.011 385.409C312.919 378.768 312.919 369.536 318.011 362.895L538.003 75.9905C542.709 69.8531 550.736 67.2908 558.127 69.5665L915.465 179.58C923.226 181.97 928.522 189.141 928.522 197.261V551.043C928.522 559.163 923.226 566.334 915.465 568.724L558.127 678.738C550.736 681.013 542.709 678.451 538.003 672.314L318.011 385.409Z" stroke="url(#paint8_linear_1023_243)" stroke-width="3"/>
<path opacity="0.10101" d="M314.668 381.108C309.699 374.384 309.869 365.153 315.082 358.598L539.874 75.9416C544.692 69.8829 552.766 67.4537 560.114 69.8513L914.663 185.526C922.379 188.044 927.541 195.301 927.392 203.42L920.889 556.439C920.739 564.558 915.312 571.64 907.508 573.901L548.915 677.781C541.483 679.934 533.504 677.24 528.912 671.025L314.668 381.108Z" stroke="url(#paint9_linear_1023_243)" stroke-width="3"/>
<path opacity="0.111111" d="M311.425 376.826C306.581 370.022 306.921 360.797 312.254 354.33L541.757 75.9923C546.687 70.0139 554.804 67.7184 562.109 70.2374L913.767 191.515C921.435 194.159 926.463 201.5 926.164 209.615L913.186 561.765C912.887 569.88 907.331 576.871 899.486 579.002L539.756 676.741C532.284 678.771 524.355 675.944 519.878 669.655L311.425 376.826Z" stroke="url(#paint10_linear_1023_243)" stroke-width="3"/>
<path opacity="0.121212" d="M308.282 372.563C303.565 365.681 304.075 356.465 309.525 350.088L543.649 76.1386C548.688 70.2422 556.849 68.0812 564.107 70.721L912.775 197.54C920.394 200.311 925.286 207.733 924.838 215.841L905.414 567.018C904.966 575.125 899.282 582.022 891.399 584.024L530.65 675.614C523.141 677.521 515.264 674.563 510.902 668.2L308.282 372.563Z" stroke="url(#paint11_linear_1023_243)" stroke-width="3"/>
<path opacity="0.131313" d="M305.238 368.324C300.65 361.366 301.329 352.163 306.895 345.878L545.549 76.3846C550.697 70.5718 558.898 68.5458 566.108 71.3059L911.689 203.604C919.256 206.5 924.011 214.002 923.413 222.099L897.576 572.199C896.979 580.296 891.168 587.097 883.25 588.968L521.6 674.406C514.055 676.189 506.231 673.101 501.987 666.666L305.238 368.324Z" stroke="url(#paint12_linear_1023_243)" stroke-width="3"/>
<path opacity="0.141414" d="M302.294 364.106C297.836 357.076 298.684 347.89 304.363 341.699L547.455 76.7274C552.71 70.9997 560.95 69.1095 568.11 71.9893L910.507 209.702C918.02 212.724 922.636 220.301 921.89 228.385L889.673 577.305C888.926 585.389 882.991 592.092 875.039 593.831L512.606 673.115C505.027 674.773 497.258 671.556 493.133 665.05L302.294 364.106Z" stroke="url(#paint13_linear_1023_243)" stroke-width="3"/>
<path opacity="0.151515" d="M299.448 359.914C295.121 352.813 296.138 343.647 301.928 337.554L549.364 77.1674C554.725 71.5264 563.002 69.7726 570.111 72.7716L909.229 215.834C916.685 218.98 921.161 226.63 920.266 234.699L881.705 582.335C880.81 590.404 874.753 597.005 866.769 598.613L503.67 671.743C496.059 673.276 488.347 669.929 484.341 663.356L299.448 359.914Z" stroke="url(#paint14_linear_1023_243)" stroke-width="3"/>
<path opacity="0.161616" d="M296.699 355.748C292.506 348.58 293.69 339.438 299.59 333.443L551.276 77.7051C556.74 72.1525 565.053 70.5356 572.109 73.6531L907.854 221.999C915.252 225.267 919.587 232.989 918.543 241.039L873.675 587.29C872.632 595.34 866.454 601.838 858.442 603.314L494.794 670.291C487.152 671.698 479.499 668.224 475.614 661.584L296.699 355.748Z" stroke="url(#paint15_linear_1023_243)" stroke-width="3"/>
<path opacity="0.171717" d="M294.047 351.611C289.988 344.378 291.34 335.263 297.346 329.37L553.187 78.3404C558.754 72.8776 567.1 71.3985 574.101 74.6338L906.382 228.194C913.719 231.585 917.911 239.374 916.72 247.403L865.583 592.168C864.392 600.196 858.097 606.589 850.058 607.932L485.978 668.761C478.307 670.042 470.715 666.441 466.952 659.736L294.047 351.611Z" stroke="url(#paint16_linear_1023_243)" stroke-width="3"/>
<path opacity="0.181818" d="M291.492 347.503C287.569 340.208 289.087 331.124 295.198 325.334L555.097 79.0724C560.766 73.7009 569.143 72.36 576.087 75.7125L904.812 234.418C912.086 237.93 916.135 245.784 914.797 253.789L857.433 596.968C856.095 604.972 849.683 611.257 841.62 612.467L477.225 667.153C469.527 668.308 461.997 664.58 458.358 657.812L291.492 347.503Z" stroke="url(#paint17_linear_1023_243)" stroke-width="3"/>
<path opacity="0.191919" d="M289.032 343.427C285.246 336.072 286.93 327.023 293.143 321.338L557.003 79.9012C562.772 74.6227 571.179 73.4207 578.064 76.8898L903.145 240.669C910.354 244.301 914.258 252.218 912.773 260.195L849.224 601.689C847.74 609.666 841.213 615.841 833.128 616.918L468.535 665.469C460.812 666.498 453.346 662.644 449.831 655.814L289.032 343.427Z" stroke="url(#paint18_linear_1023_243)" stroke-width="3"/>
<path opacity="0.20202" d="M286.667 339.382C283.02 331.97 284.868 322.959 291.18 317.381L558.904 80.8247C564.771 75.6406 573.206 74.578 580.031 78.1631L901.38 246.943C908.521 250.694 912.28 258.671 910.649 266.619L840.96 606.329C839.329 614.276 832.691 620.339 824.586 621.282L459.91 663.709C452.164 664.61 444.764 660.631 441.373 653.742L286.667 339.382Z" stroke="url(#paint19_linear_1023_243)" stroke-width="3"/>
<path opacity="0.212121" d="M284.396 335.373C280.888 327.907 282.9 318.938 289.31 313.47L560.798 81.8471C566.762 76.7588 575.222 75.8362 581.986 79.5364L899.516 253.243C906.588 257.112 910.2 265.147 908.424 273.062L832.64 610.891C830.865 618.805 824.116 624.754 815.995 625.563L451.351 661.877C443.583 662.651 436.251 658.548 432.987 651.601L284.396 335.373Z" stroke="url(#paint20_linear_1023_243)" stroke-width="3"/>
<path opacity="0.222222" d="M282.219 331.398C278.851 323.881 281.026 314.957 287.53 309.599L562.683 82.9631C568.742 77.9723 577.225 77.1902 583.926 81.0049L897.554 259.564C904.554 263.549 908.018 271.639 906.098 279.518L824.267 615.369C822.348 623.249 815.491 629.081 807.355 629.755L442.859 659.971C435.072 660.617 427.809 656.39 424.672 649.388L282.219 331.398Z" stroke="url(#paint21_linear_1023_243)" stroke-width="3"/>
<path opacity="0.232323" d="M280.133 327.462C276.907 319.897 279.243 311.021 285.84 305.776L564.557 84.176C570.71 79.2839 579.215 78.6431 585.85 82.5716L895.492 265.905C902.419 270.007 905.735 278.148 903.672 285.99L815.843 619.768C813.78 627.609 806.818 633.323 798.67 633.862L434.435 657.996C426.631 658.513 419.439 654.164 416.43 647.107L280.133 327.462Z" stroke="url(#paint22_linear_1023_243)" stroke-width="3"/>
<path opacity="0.242424" d="M278.14 323.565C275.057 315.954 277.552 307.129 284.238 301.999L566.419 85.4838C572.664 80.692 581.188 80.1928 587.756 84.2343L893.333 272.266C900.184 276.481 903.35 284.672 901.145 292.473L807.369 624.083C805.163 631.884 798.099 637.477 789.941 637.882L426.082 655.951C418.261 656.339 411.143 651.868 408.263 644.759L278.14 323.565Z" stroke="url(#paint23_linear_1023_243)" stroke-width="3"/>
<path opacity="0.252525" d="M276.237 319.707C273.297 312.053 275.951 303.284 282.724 298.269L568.266 86.8855C574.601 82.1954 583.143 81.8385 589.643 85.9921L891.073 278.641C897.847 282.971 900.863 291.208 898.516 298.965L798.847 628.314C796.499 636.071 789.334 641.542 781.169 641.813L417.799 653.836C409.965 654.095 402.92 649.503 400.17 642.345L276.237 319.707Z" stroke="url(#paint24_linear_1023_243)" stroke-width="3"/>
<path opacity="0.262626" d="M274.424 315.89C271.628 308.197 274.439 299.486 281.297 294.589L570.097 88.3811C576.522 83.7941 585.079 83.5798 591.508 87.845L888.715 285.032C895.409 289.473 898.275 297.754 895.787 305.466L790.278 632.461C787.79 640.172 780.527 645.519 772.356 645.654L409.588 651.654C401.742 651.784 394.774 647.072 392.155 639.865L274.424 315.89Z" stroke="url(#paint25_linear_1023_243)" stroke-width="3"/>
<path opacity="0.272727" d="M272.7 312.118C270.049 304.387 273.015 295.738 279.955 290.96L571.911 89.9715C578.422 85.4889 586.993 85.4179 593.349 89.7937L886.257 291.437C892.869 295.989 895.584 304.311 892.956 311.974L781.664 636.525C779.036 644.187 771.678 649.408 763.505 649.408L401.45 649.408C393.594 649.408 386.704 644.577 384.217 637.324L272.7 312.118Z" stroke="url(#paint26_linear_1023_243)" stroke-width="3"/>
<path opacity="0.282828" d="M271.064 308.39C268.558 300.625 271.678 292.04 278.698 287.383L573.705 91.6548C580.302 87.278 588.884 87.3506 595.166 91.8363L883.7 297.854C890.229 302.515 892.792 310.876 890.026 318.487L773.007 640.502C770.241 648.114 762.789 653.207 754.616 653.071L393.387 647.097C385.522 646.967 378.712 642.018 376.358 634.721L271.064 308.39Z" stroke="url(#paint27_linear_1023_243)" stroke-width="3"/>
<path opacity="0.292929" d="M269.514 304.709C267.155 296.913 270.427 288.395 277.523 283.859L575.478 93.4313C582.159 89.1617 590.75 89.3785 596.956 93.973L881.044 304.281C887.487 309.05 889.898 317.446 886.995 325.004L764.309 644.395C761.405 651.952 753.863 656.916 745.692 656.645L385.399 644.724C377.527 644.463 370.799 639.397 368.578 632.058L269.514 304.709Z" stroke="url(#paint28_linear_1023_243)" stroke-width="3"/>
<path opacity="0.30303" d="M268.051 301.073C265.838 293.248 269.26 284.801 276.431 280.389L577.229 95.2984C583.991 91.1373 592.588 91.4986 598.717 96.2013L878.289 310.715C884.644 315.591 886.902 324.02 883.863 331.521L755.57 648.199C752.531 655.701 744.9 660.533 736.734 660.127L377.486 642.288C369.61 641.897 362.966 636.714 360.879 629.335L268.051 301.073Z" stroke="url(#paint29_linear_1023_243)" stroke-width="3"/>
<path opacity="0.313131" d="M266.673 297.488C264.607 289.638 268.177 281.264 275.419 276.976L578.954 97.2588C585.796 93.2075 594.399 93.7137 600.448 98.5236L875.434 317.157C881.699 322.138 883.804 330.597 880.631 338.04L746.793 651.919C743.619 659.361 735.903 664.061 727.744 663.52L369.651 639.794C361.773 639.272 355.214 633.974 353.262 626.556L266.673 297.488Z" stroke="url(#paint30_linear_1023_243)" stroke-width="3"/>
<path opacity="0.323232" d="M265.378 293.952C263.46 286.078 267.177 277.781 274.487 273.619L580.654 99.3081C587.574 95.3679 596.179 96.0195 602.147 100.935L872.48 323.602C878.654 328.687 880.605 337.174 877.299 344.555L737.98 655.549C734.673 662.93 726.874 667.495 718.725 666.82L361.893 637.239C354.015 636.586 347.543 631.174 345.727 623.72L265.378 293.952Z" stroke="url(#paint31_linear_1023_243)" stroke-width="3"/>
<path opacity="0.333333" d="M264.167 290.468C262.396 282.574 266.258 274.356 273.634 270.321L582.325 101.449C589.322 97.6214 597.927 98.4186 603.812 103.44L869.427 330.051C875.508 335.239 877.306 343.751 873.867 351.069L729.132 659.092C725.693 666.411 717.814 670.84 709.677 670.029L354.215 634.629C346.339 633.845 339.956 628.319 338.276 620.831L264.167 290.468Z" stroke="url(#paint32_linear_1023_243)" stroke-width="3"/>
<path opacity="0.343434" d="M263.036 287.036C261.413 279.125 265.418 270.988 272.857 267.081L583.967 103.679C591.039 99.9644 599.641 100.908 605.442 106.033L866.275 336.501C872.26 341.79 873.904 350.324 870.335 357.576L720.25 662.546C716.681 669.799 708.725 674.091 700.602 673.146L346.616 631.962C338.744 631.046 332.452 625.409 330.909 617.889L263.036 287.036Z" stroke="url(#paint33_linear_1023_243)" stroke-width="3"/>
<path opacity="0.353535" d="M261.987 283.66C260.512 275.734 264.657 267.682 272.156 263.904L585.578 105.999C592.722 102.399 601.32 103.489 607.034 108.718L863.024 342.953C868.913 348.341 870.403 356.894 866.705 364.078L711.337 665.914C707.639 673.098 699.609 677.251 691.502 676.172L339.098 629.243C331.232 628.196 325.032 622.447 323.627 614.897L261.987 283.66Z" stroke="url(#paint34_linear_1023_243)" stroke-width="3"/>
<path opacity="0.363636" d="M261.017 280.337C259.69 272.4 263.973 264.435 271.53 260.786L587.156 108.405C594.371 104.922 602.962 106.158 608.588 111.489L859.675 349.401C865.465 354.887 866.8 363.457 862.975 370.571L702.395 669.19C698.57 676.304 690.467 680.317 682.38 679.104L331.662 626.47C323.803 625.29 317.698 619.432 316.431 611.854L261.017 280.337Z" stroke="url(#paint35_linear_1023_243)" stroke-width="3"/>
<path opacity="0.373737" d="M260.125 277.073C258.946 269.126 263.366 261.251 270.977 257.733L588.7 110.9C595.984 107.534 604.565 108.917 610.102 114.349L856.228 355.847C861.917 361.429 863.098 370.013 859.147 377.054L693.425 672.378C689.474 679.42 681.302 683.292 673.237 681.944L324.307 623.647C316.459 622.335 310.45 616.368 309.322 608.764L260.125 277.073Z" stroke="url(#paint36_linear_1023_243)" stroke-width="3"/>
<path opacity="0.383838" d="M259.31 273.865C258.28 265.912 262.833 258.129 270.497 254.743L590.209 113.481C597.559 110.233 606.129 111.763 611.573 117.295L852.682 362.286C858.269 367.963 859.296 376.559 855.221 383.526L684.429 675.475C680.353 682.442 672.116 686.172 664.074 684.691L317.036 620.773C309.2 619.33 303.29 613.254 302.301 605.627L259.31 273.865Z" stroke="url(#paint37_linear_1023_243)" stroke-width="3"/>
<path opacity="0.393939" d="M258.571 270.717C257.688 262.76 262.373 255.072 270.087 251.818L591.679 116.148C599.094 113.02 607.65 114.697 613.001 120.328L849.039 368.72C854.522 374.49 855.395 383.094 851.197 389.984L675.408 678.483C671.21 685.373 662.909 688.959 654.894 687.345L309.849 617.852C302.027 616.276 296.216 610.094 295.368 602.445L258.571 270.717Z" stroke="url(#paint38_linear_1023_243)" stroke-width="3"/>
<path opacity="0.40404" d="M257.907 267.627C257.172 259.67 261.986 252.078 269.746 248.957L593.111 118.899C600.589 115.891 609.128 117.715 614.384 123.444L845.299 375.143C850.676 381.004 851.395 389.615 847.076 396.426L666.365 681.399C662.046 688.21 653.684 691.651 645.699 689.904L302.746 614.882C294.941 613.175 289.232 606.887 288.524 599.219L257.907 267.627Z" stroke="url(#paint39_linear_1023_243)" stroke-width="3"/>
<path opacity="0.414141" d="M257.315 264.601C256.728 256.646 261.67 249.153 269.473 246.165L594.503 121.735C602.042 118.849 610.561 120.821 615.719 126.646L841.462 381.559C846.731 387.509 847.296 396.124 842.858 402.854L657.3 684.227C652.862 690.957 644.443 694.252 636.489 692.373L295.728 611.87C287.941 610.03 282.336 603.639 281.769 595.954L257.315 264.601Z" stroke="url(#paint40_linear_1023_243)" stroke-width="3"/>
<path opacity="0.424242" d="M256.796 261.637C256.356 253.686 261.423 246.294 269.267 243.441L595.853 124.655C603.45 121.891 611.948 124.011 617.007 129.931L837.528 387.963C842.688 394.001 843.099 402.617 838.544 409.264L648.217 686.963C643.661 693.61 635.187 696.759 627.267 694.748L288.795 608.813C281.03 606.842 275.53 600.348 275.104 592.648L256.796 261.637Z" stroke="url(#paint41_linear_1023_243)" stroke-width="3"/>
<path opacity="0.434343" d="M256.347 258.736C256.055 250.793 261.243 243.504 269.126 240.785L597.159 127.656C604.812 125.016 613.286 127.283 618.245 133.297L833.498 394.352C838.548 400.476 838.805 409.091 834.134 415.653L639.116 689.608C634.445 696.17 625.919 699.171 618.034 697.029L281.949 605.715C274.207 603.611 268.815 597.016 268.53 589.303L256.347 258.736Z" stroke="url(#paint42_linear_1023_243)" stroke-width="3"/>
<path opacity="0.444444" d="M255.968 255.901C255.822 247.967 261.131 240.783 269.049 238.2L598.42 130.739C606.128 128.224 614.575 130.639 619.431 136.745L829.372 400.728C834.31 406.936 834.413 415.547 829.628 422.022L629.999 692.162C625.214 698.637 616.64 701.49 608.794 699.217L275.19 602.576C267.474 600.341 262.19 593.645 262.048 585.922L255.968 255.901Z" stroke="url(#paint43_linear_1023_243)" stroke-width="3"/>
<path opacity="0.454545" d="M255.657 253.132C255.657 245.21 261.083 238.134 269.035 235.686L599.636 133.903C607.396 131.514 615.813 134.076 620.565 140.273L825.152 407.087C829.975 413.378 829.926 421.982 825.029 428.369L620.869 694.626C615.972 701.012 607.351 703.716 599.546 701.313L268.518 599.399C260.83 597.032 255.657 590.238 255.657 582.507L255.657 253.132Z" stroke="url(#paint44_linear_1023_243)" stroke-width="3"/>
<path opacity="0.464646" d="M255.412 250.429C255.558 242.522 261.1 235.554 269.081 233.242L600.804 137.146C608.613 134.884 616.999 137.593 621.644 143.879L820.836 413.428C825.545 419.8 825.342 428.395 820.335 434.691L611.726 696.998C606.719 703.294 598.056 705.847 590.294 703.315L261.934 596.184C254.276 593.686 249.216 586.795 249.359 579.058L255.412 250.429Z" stroke="url(#paint45_linear_1023_243)" stroke-width="3"/>
<path opacity="0.474747" d="M255.233 247.794C255.524 239.904 261.178 233.047 269.187 230.871L601.922 140.467C609.78 138.332 618.131 141.188 622.668 147.563L816.427 419.749C821.018 426.199 820.663 434.783 815.548 440.986L602.573 699.278C597.458 705.481 588.754 707.884 581.038 705.223L255.438 592.933C247.813 590.303 242.868 583.317 243.153 575.576L255.233 247.794Z" stroke="url(#paint46_linear_1023_243)" stroke-width="3"/>
<path opacity="0.484848" d="M255.118 245.228C255.553 237.358 261.317 230.613 269.351 228.573L602.991 143.866C610.894 141.859 619.207 144.862 623.635 151.324L811.924 426.049C816.397 432.576 815.89 441.145 810.668 447.255L593.412 701.467C588.191 707.576 579.449 709.828 571.781 707.039L249.032 589.648C241.441 586.887 236.612 579.807 237.04 572.065L255.118 245.228Z" stroke="url(#paint47_linear_1023_243)" stroke-width="3"/>
<path opacity="0.494949" d="M255.065 242.731C255.644 234.884 261.516 228.253 269.571 226.35L604.008 147.34C611.954 145.463 620.227 148.613 624.544 155.159L807.327 432.326C811.681 438.928 811.022 447.481 805.696 453.495L584.244 703.564C578.918 709.578 570.142 711.678 562.525 708.762L242.714 586.33C235.16 583.438 230.45 576.265 231.021 568.525L255.065 242.731Z" stroke="url(#paint48_linear_1023_243)" stroke-width="3"/>
<path opacity="0.50505" d="M255.072 240.306C255.794 232.484 261.772 225.969 269.847 224.202L604.971 150.892C612.958 149.145 621.188 152.441 625.392 159.071L802.639 438.58C806.872 445.255 806.061 453.789 800.633 459.706L575.07 705.571C569.642 711.488 560.835 713.436 553.27 710.394L236.485 582.982C228.972 579.96 224.381 572.697 225.096 564.959L255.072 240.306Z" stroke="url(#paint49_linear_1023_243)" stroke-width="3"/>
<path opacity="0.515152" d="M255.139 237.953C256.004 230.158 262.084 223.76 270.176 222.13L605.881 154.518C613.906 152.901 622.091 156.344 626.18 163.055L797.859 444.808C801.969 451.554 801.008 460.067 795.479 465.885L565.893 707.487C560.364 713.306 551.529 715.101 544.019 711.933L230.347 579.605C222.875 576.453 218.407 569.1 219.265 561.369L255.139 237.953Z" stroke="url(#paint50_linear_1023_243)" stroke-width="3"/>
<path opacity="0.525253" d="M255.264 235.672C256.271 227.907 262.451 221.627 270.557 220.134L606.735 158.216C614.796 156.731 622.932 160.319 626.905 167.111L792.987 451.009C796.974 457.824 795.862 466.313 790.235 472.031L556.714 709.312C551.087 715.03 542.227 716.672 534.774 713.38L224.299 576.199C216.872 572.918 212.527 565.477 213.528 557.754L255.264 235.672Z" stroke="url(#paint51_linear_1023_243)" stroke-width="3"/>
<path opacity="0.535354" d="M255.447 233.465C256.594 225.731 262.872 219.571 270.989 218.215L607.533 161.987C615.628 160.635 623.713 164.367 627.568 171.237L788.026 457.182C791.888 464.063 790.627 472.527 784.903 478.142L547.536 711.046C541.813 716.662 532.93 718.151 525.537 714.735L218.342 572.767C210.962 569.357 206.742 561.831 207.886 554.118L255.447 233.465Z" stroke="url(#paint52_linear_1023_243)" stroke-width="3"/>
<path opacity="0.545455" d="M255.683 231.333C256.97 223.633 263.344 217.594 271.47 216.374L608.272 165.829C616.398 164.609 624.429 168.487 628.164 175.433L782.975 463.324C786.711 470.27 785.3 478.705 779.483 484.218L538.359 712.689C532.541 718.202 523.639 719.538 516.308 715.999L212.475 569.311C205.144 565.772 201.052 558.162 202.339 550.462L255.683 231.333Z" stroke="url(#paint53_linear_1023_243)" stroke-width="3"/>
<path opacity="0.555556" d="M255.973 229.275C257.399 221.611 263.866 215.694 271.998 214.611L608.952 169.741C617.107 168.654 625.081 172.676 628.695 179.696L777.835 469.434C781.443 476.443 779.884 484.848 773.974 490.256L529.186 714.242C523.276 719.65 514.357 720.832 507.09 717.171L206.699 565.831C199.42 562.163 195.457 554.472 196.887 546.787L255.973 229.275Z" stroke="url(#paint54_linear_1023_243)" stroke-width="3"/>
<path opacity="0.565657" d="M256.316 227.294C257.88 219.669 264.437 213.875 272.573 212.929L609.572 173.722C617.754 172.77 625.668 176.934 629.159 184.028L772.608 475.513C776.087 482.582 774.381 490.954 768.38 496.256L520.018 715.705C514.018 721.007 505.085 722.035 497.885 718.254L201.015 562.33C193.79 558.535 189.958 550.764 191.531 543.097L256.316 227.294Z" stroke="url(#paint55_linear_1023_243)" stroke-width="3"/>
<path opacity="0.575758" d="M256.708 225.388C258.41 217.804 265.054 212.135 273.192 211.325L610.13 177.769C618.336 176.952 626.188 181.259 629.554 188.423L767.293 481.556C770.642 488.684 768.789 497.02 762.7 502.215L510.857 717.077C504.769 722.271 495.826 723.146 488.694 719.245L195.421 558.808C188.253 554.887 184.554 547.037 186.269 539.39L256.708 225.388Z" stroke="url(#paint56_linear_1023_243)" stroke-width="3"/>
<path opacity="0.585859" d="M257.15 223.561C258.987 216.02 265.717 210.477 273.854 209.802L610.627 181.885C618.854 181.203 626.64 185.651 629.88 192.884L761.891 487.564C765.11 494.749 763.111 503.048 756.936 508.133L501.705 718.36C495.531 723.446 486.58 724.167 479.519 720.147L189.919 555.269C182.811 551.222 179.245 543.297 181.103 535.672L257.15 223.561Z" stroke="url(#paint57_linear_1023_243)" stroke-width="3"/>
<path opacity="0.59596" d="M257.638 221.812C259.611 214.315 266.423 208.899 274.557 208.36L611.058 186.064C619.304 185.518 627.023 190.107 630.135 197.407L756.404 493.535C759.491 500.774 757.346 509.032 751.087 514.009L492.564 719.553C486.305 724.53 477.349 725.097 470.361 720.96L184.509 551.712C177.462 547.54 174.033 539.541 176.032 531.941L257.638 221.812Z" stroke="url(#paint58_linear_1023_243)" stroke-width="3"/>
<path opacity="0.606061" d="M258.173 220.142C260.279 212.692 267.172 207.403 275.3 207L611.426 190.308C619.689 189.898 627.336 194.627 630.319 201.992L750.833 499.468C753.787 506.759 751.497 514.975 745.156 519.84L483.434 720.658C477.093 725.524 468.135 725.937 461.223 721.684L179.191 548.14C172.208 543.844 168.916 535.773 171.058 528.2L258.173 220.142Z" stroke="url(#paint59_linear_1023_243)" stroke-width="3"/>
<path opacity="0.616162" d="M258.751 218.55C260.991 211.15 267.962 205.989 276.082 205.721L611.728 194.615C620.004 194.341 627.577 199.209 630.43 206.636L745.178 505.36C747.998 512.701 745.564 520.873 739.144 525.626L474.318 721.674C467.898 726.427 458.94 726.687 452.105 722.319L173.964 544.554C167.048 540.134 163.895 531.994 166.178 524.451L258.751 218.55Z" stroke="url(#paint60_linear_1023_243)" stroke-width="3"/>
<path opacity="0.626263" d="M259.372 217.04C261.743 209.691 268.79 204.659 276.899 204.525L611.963 198.984C620.25 198.846 627.746 203.852 630.467 211.34L739.44 511.212C742.124 518.601 739.548 526.727 733.05 531.366L465.218 722.602C458.719 727.242 449.766 727.349 443.01 722.867L168.829 540.957C161.982 536.414 158.97 528.207 161.394 520.696L259.372 217.04Z" stroke="url(#paint61_linear_1023_243)" stroke-width="3"/>
<path opacity="0.636364" d="M260.033 215.61C262.535 208.314 269.655 203.413 277.752 203.413L612.13 203.413C620.426 203.413 627.842 208.555 630.43 216.101L733.62 517.022C736.169 524.456 733.45 532.533 726.877 537.059L456.134 723.443C449.56 727.969 440.613 727.923 433.94 723.328L163.785 537.349C157.011 532.685 154.141 524.413 156.705 516.937L260.033 215.61Z" stroke="url(#paint62_linear_1023_243)" stroke-width="3"/>
<path opacity="0.646465" d="M260.734 214.261C263.366 207.02 270.556 202.249 278.638 202.383L612.229 207.9C620.531 208.037 627.864 213.315 630.317 220.917L727.719 522.788C730.132 530.264 727.272 538.291 720.625 542.701L447.07 724.196C440.422 728.606 431.484 728.407 424.895 723.702L158.834 533.731C152.133 528.947 149.408 520.612 152.111 513.173L260.734 214.261Z" stroke="url(#paint63_linear_1023_243)" stroke-width="3"/>
<path opacity="0.656566" d="M261.472 212.994C264.232 205.81 271.492 201.17 279.556 201.437L612.257 212.445C620.563 212.72 627.811 218.132 630.128 225.788L721.739 528.509C724.014 536.026 721.014 544 714.295 548.294L438.026 724.862C431.307 729.156 422.381 728.805 415.877 723.99L153.974 530.106C147.35 525.202 144.77 516.807 147.612 509.408L261.472 212.994Z" stroke="url(#paint64_linear_1023_243)" stroke-width="3"/>
<path opacity="0.666667" d="M262.247 211.808C265.134 204.682 272.459 200.175 280.504 200.574L612.216 217.046C620.522 217.459 627.682 223.003 629.861 230.71L715.679 534.183C717.816 541.738 714.677 549.657 707.889 553.834L429.003 725.441C422.215 729.618 413.304 729.115 406.888 724.192L149.205 526.473C142.661 521.452 140.228 512.999 143.209 505.641L262.247 211.808Z" stroke="url(#paint65_linear_1023_243)" stroke-width="3"/>
<path opacity="0.676768" d="M263.055 210.706C266.068 203.641 273.457 199.265 281.48 199.797L612.102 221.703C620.407 222.254 627.475 227.929 629.516 235.685L709.542 539.81C711.54 547.402 708.262 555.263 701.407 559.322L420.005 725.935C413.149 729.994 404.256 729.34 397.93 724.31L144.528 522.838C138.065 517.7 135.781 509.192 138.899 501.878L263.055 210.706Z" stroke="url(#paint66_linear_1023_243)" stroke-width="3"/>
<path opacity="0.686869" d="M263.896 209.686C267.033 202.683 274.484 198.441 282.483 199.104L611.917 226.413C620.217 227.101 627.191 232.906 629.092 240.709L703.328 545.388C705.186 553.014 701.771 560.816 694.851 564.756L411.031 726.344C404.11 730.284 395.237 729.478 389.003 724.343L139.942 519.198C133.564 513.944 131.429 505.384 134.684 498.117L263.896 209.686Z" stroke="url(#paint67_linear_1023_243)" stroke-width="3"/>
<path opacity="0.69697" d="M264.768 208.749C268.029 201.811 275.539 197.702 283.512 198.496L611.658 231.176C619.951 232.002 626.829 237.935 628.589 245.781L697.039 550.916C698.757 558.574 695.206 566.314 688.222 570.135L402.085 726.668C395.101 730.488 386.251 729.532 380.111 724.294L135.448 515.557C129.156 510.189 127.172 501.579 130.564 494.361L264.768 208.749Z" stroke="url(#paint68_linear_1023_243)" stroke-width="3"/>
<path opacity="0.707071" d="M265.669 207.898C269.052 201.025 276.619 197.05 284.563 197.974L611.325 235.99C619.608 236.954 626.386 243.014 628.004 250.901L690.675 556.395C692.252 564.082 688.565 571.759 681.521 575.459L393.166 726.91C386.122 730.609 377.297 729.503 371.253 724.163L131.043 511.917C124.841 506.437 123.01 497.779 126.537 490.613L265.669 207.898Z" stroke="url(#paint69_linear_1023_243)" stroke-width="3"/>
<path opacity="0.717172" d="M266.598 207.129C270.101 200.323 277.724 196.483 285.638 197.537L610.918 240.854C619.188 241.955 625.864 248.139 627.339 256.065L684.237 561.82C685.673 569.534 681.852 577.145 674.749 580.724L384.278 727.066C377.174 730.645 368.379 729.39 362.432 723.949L126.73 508.277C120.62 502.686 118.942 493.984 122.603 486.871L266.598 207.129Z" stroke="url(#paint70_linear_1023_243)" stroke-width="3"/>
<path opacity="0.727273" d="M267.553 206.446C271.175 199.709 278.851 196.004 286.732 197.187L610.435 245.766C618.69 247.005 625.261 253.312 626.592 261.274L677.728 567.193C679.021 574.931 675.068 582.475 667.908 585.932L375.42 727.142C368.261 730.598 359.496 729.195 353.649 723.655L122.508 504.641C116.491 498.941 114.968 490.197 118.763 483.141L267.553 206.446Z" stroke="url(#paint71_linear_1023_243)" stroke-width="3"/>
<path opacity="0.737374" d="M268.532 205.847C272.273 199.181 279.998 195.61 287.845 196.921L609.876 250.725C618.113 252.101 624.576 258.529 625.762 266.525L671.147 572.511C672.298 580.271 668.213 587.746 660.999 591.08L366.596 727.135C359.382 730.469 350.651 728.917 344.906 723.28L118.375 501.009C112.455 495.201 111.088 486.418 115.015 479.42L268.532 205.847Z" stroke="url(#paint72_linear_1023_243)" stroke-width="3"/>
<path opacity="0.747475" d="M269.533 205.334C273.39 198.74 281.164 195.305 288.975 196.743L609.24 255.73C617.457 257.244 623.809 263.79 624.849 271.817L664.496 577.774C665.504 585.554 661.288 592.957 654.022 596.168L357.806 727.048C350.54 730.258 341.845 728.56 336.203 722.827L114.332 497.384C108.511 491.469 107.301 482.651 111.359 475.714L269.533 205.334Z" stroke="url(#paint73_linear_1023_243)" stroke-width="3"/>
<path opacity="0.757576" d="M270.555 204.904C274.528 198.384 282.348 195.085 290.12 196.65L608.527 260.778C616.72 262.428 622.959 269.092 623.852 277.147L657.776 582.98C658.641 590.777 654.296 598.106 646.979 601.193L349.053 726.878C341.736 729.965 333.079 728.12 327.543 722.294L110.379 493.764C104.659 487.745 103.607 478.893 107.796 472.02L270.555 204.904Z" stroke="url(#paint74_linear_1023_243)" stroke-width="3"/>
<path opacity="0.767677" d="M271.597 204.56C275.684 198.116 283.548 194.953 291.28 196.644L607.735 265.87C615.902 267.656 622.025 274.435 622.771 282.515L650.99 588.129C651.711 595.94 647.237 603.195 639.872 606.157L340.336 726.631C332.971 729.593 324.356 727.603 318.927 721.685L106.515 490.155C100.899 484.033 100.006 475.151 104.323 468.343L271.597 204.56Z" stroke="url(#paint75_linear_1023_243)" stroke-width="3"/>
<path opacity="0.777778" d="M272.656 204.303C276.855 197.935 284.762 194.908 292.451 196.725L606.865 271.004C615.003 272.926 621.007 279.817 621.605 287.92L644.136 593.22C644.714 601.044 640.113 608.221 632.702 611.058L331.659 726.306C324.247 729.143 315.676 727.008 310.355 721L102.74 486.556C97.2293 480.333 96.4967 471.424 100.941 464.685L272.656 204.303Z" stroke="url(#paint76_linear_1023_243)" stroke-width="3"/>
<path opacity="0.787879" d="M273.73 204.131C278.041 197.842 285.988 194.951 293.633 196.892L605.915 276.178C614.021 278.236 619.905 285.237 620.354 293.36L637.218 598.252C637.651 606.086 632.925 613.183 625.469 615.895L323.021 725.902C315.566 728.614 307.041 726.336 301.831 720.239L99.0528 482.969C93.6505 476.648 93.0788 467.714 97.6497 461.045L273.73 204.131Z" stroke="url(#paint77_linear_1023_243)" stroke-width="3"/>
<path opacity="0.79798" d="M274.819 204.044C279.24 197.834 287.224 195.08 294.823 197.145L604.885 281.388C612.957 283.582 618.717 290.691 619.017 298.831L630.236 603.221C630.525 611.063 625.674 618.079 618.177 620.665L314.425 725.421C306.928 728.006 298.452 725.585 293.354 719.402L95.4539 479.393C90.1619 472.975 89.7518 464.021 94.4477 457.424L274.819 204.044Z" stroke="url(#paint78_linear_1023_243)" stroke-width="3"/>
<path opacity="0.808081" d="M275.921 204.044C280.45 197.915 288.47 195.298 296.021 197.485L603.775 286.638C611.81 288.966 617.445 296.181 617.595 304.334L623.191 608.131C623.336 615.978 618.362 622.911 610.825 625.371L305.873 724.864C298.335 727.323 289.911 724.761 284.926 718.494L91.9428 475.834C86.7633 469.321 86.5155 460.349 91.3349 453.827L275.921 204.044Z" stroke="url(#paint79_linear_1023_243)" stroke-width="3"/>
<path opacity="0.818182" d="M277.032 204.128C281.668 198.081 289.723 195.602 297.224 197.911L602.583 291.922C610.579 294.384 616.085 301.702 616.085 309.866L616.085 612.977C616.085 620.827 610.989 627.675 603.414 630.008L297.364 724.232C289.789 726.564 281.417 723.861 276.548 717.511L88.5179 472.289C83.4531 465.683 83.3682 456.697 88.3099 450.252L277.032 204.128Z" stroke="url(#paint80_linear_1023_243)" stroke-width="3"/>
<path opacity="0.828283" d="M278.153 204.298C282.895 198.336 290.981 195.993 298.431 198.424L601.31 297.241C609.263 299.836 614.639 307.254 614.489 315.427L608.919 617.761C608.775 625.61 603.558 632.373 595.948 634.577L288.901 723.525C281.29 725.73 272.975 722.888 268.223 716.457L85.1802 468.762C80.2322 462.066 80.3109 453.068 85.3731 446.702L278.153 204.298Z" stroke="url(#paint81_linear_1023_243)" stroke-width="3"/>
<path opacity="0.838384" d="M279.282 204.554C284.128 198.676 292.244 196.471 299.641 199.022L599.956 302.592C607.864 305.32 613.107 312.836 612.806 321.014L601.695 622.48C601.406 630.327 596.071 637.001 588.426 639.078L280.485 722.745C272.841 724.822 264.584 721.841 259.95 715.332L81.9288 465.253C77.0996 458.469 77.3423 449.462 82.5236 443.178L279.282 204.554Z" stroke="url(#paint82_linear_1023_243)" stroke-width="3"/>
<path opacity="0.848485" d="M280.415 204.896C285.364 199.105 293.509 197.038 300.851 199.708L598.518 307.976C606.379 310.835 611.487 318.447 611.034 326.627L594.413 627.136C593.979 634.978 588.526 641.561 580.85 643.51L272.118 721.894C264.442 723.843 256.245 720.725 251.731 714.139L78.7621 461.765C74.0537 454.895 74.4608 445.884 79.7596 439.684L280.415 204.896Z" stroke="url(#paint83_linear_1023_243)" stroke-width="3"/>
<path opacity="0.858586" d="M281.554 205.323C286.604 199.62 294.775 197.689 302.06 200.478L596.999 313.389C604.809 316.379 609.78 324.082 609.176 332.262L587.076 631.724C586.498 639.559 580.929 646.05 573.223 647.87L263.8 720.97C256.094 722.791 247.961 719.536 243.569 712.876L75.6811 458.298C71.0955 451.344 71.6673 442.331 77.0819 436.216L281.554 205.323Z" stroke="url(#paint84_linear_1023_243)" stroke-width="3"/>
<path opacity="0.868687" d="M282.694 205.835C287.844 200.221 296.04 198.429 303.266 201.335L595.395 318.83C603.153 321.95 607.984 329.744 607.229 337.919L579.684 636.246C578.961 644.072 573.277 650.469 565.544 652.16L255.533 719.977C247.8 721.668 239.731 718.28 235.462 711.546L72.6839 454.853C68.223 447.819 68.9599 438.807 74.4886 432.781L282.694 205.835Z" stroke="url(#paint85_linear_1023_243)" stroke-width="3"/>
<path opacity="0.878788" d="M283.836 206.434C289.084 200.91 297.302 199.255 304.468 202.278L593.709 324.299C601.411 327.548 606.101 335.429 605.195 343.598L572.239 640.702C571.372 648.515 565.575 654.817 557.816 656.379L247.318 718.915C239.56 720.477 231.559 716.955 227.413 710.151L69.7709 451.434C65.4366 444.321 66.3386 435.314 71.9797 429.378L283.836 206.434Z" stroke="url(#paint86_linear_1023_243)" stroke-width="3"/>
<path opacity="0.888889" d="M284.976 207.116C290.322 201.684 298.56 200.167 305.664 203.306L591.939 329.793C599.582 333.171 604.129 341.135 603.072 349.294L564.742 645.089C563.731 652.887 557.822 659.092 550.041 660.525L239.156 717.784C231.375 719.217 223.443 715.562 219.423 708.69L66.9408 448.039C62.735 440.85 63.8022 431.851 69.5538 426.007L284.976 207.116Z" stroke="url(#paint87_linear_1023_243)" stroke-width="3"/>
<path opacity="0.89899" d="M286.113 207.884C291.555 202.545 299.812 201.165 306.853 204.419L590.084 335.312C597.667 338.816 602.069 346.862 600.861 355.007L557.194 649.408C556.04 657.189 550.021 663.294 542.218 664.598L231.049 716.586C223.246 717.89 215.386 714.104 211.493 707.166L64.1928 444.671C60.117 437.408 61.3494 428.421 67.2098 422.671L286.113 207.884Z" stroke="url(#paint88_linear_1023_243)" stroke-width="3"/>
<path opacity="0.909091" d="M287.247 208.738C292.783 203.492 301.057 202.251 308.033 205.618L588.146 340.854C595.665 344.484 599.92 352.608 598.561 360.738L549.598 653.658C548.301 661.42 542.173 667.424 534.351 668.598L222.998 715.324C215.175 716.498 207.389 712.582 203.624 705.58L61.5274 441.333C57.5835 433.998 58.981 425.027 64.9482 419.373L287.247 208.738Z" stroke="url(#paint89_linear_1023_243)" stroke-width="3"/>
<path opacity="0.919192" d="M288.375 209.673C294.004 204.523 302.293 203.419 309.202 206.9L586.123 346.416C593.576 350.171 597.682 358.369 596.173 366.48L541.954 657.836C540.514 665.576 534.279 671.477 526.439 672.521L215.003 713.994C207.163 715.038 199.453 710.994 195.817 703.93L58.9424 438.021C55.132 430.618 56.6945 421.665 62.7665 416.109L288.375 209.673Z" stroke="url(#paint90_linear_1023_243)" stroke-width="3"/>
<path opacity="0.929293" d="M289.495 210.694C295.215 205.64 303.518 204.674 310.358 208.267L584.015 351.998C591.399 355.877 595.356 364.147 593.696 372.236L534.264 661.944C532.681 669.66 526.341 675.457 518.486 676.371L207.065 712.602C199.211 713.516 191.578 709.344 188.073 702.221L56.4379 434.741C52.7625 427.273 54.4897 418.342 60.6646 412.886L289.495 210.694Z" stroke="url(#paint91_linear_1023_243)" stroke-width="3"/>
<path opacity="0.939394" d="M290.607 211.798C296.417 206.842 304.731 206.014 311.501 209.718L581.822 357.599C589.136 361.599 592.94 369.938 591.131 378.002L526.53 665.981C524.805 673.67 518.361 679.361 510.493 680.145L199.187 711.148C191.319 711.931 183.767 707.634 180.393 700.453L54.0133 431.493C50.4744 423.962 52.366 415.056 58.6417 409.702L290.607 211.798Z" stroke="url(#paint92_linear_1023_243)" stroke-width="3"/>
<path opacity="0.949495" d="M291.708 212.987C297.606 208.129 305.93 207.439 312.628 211.253L579.544 363.217C586.784 367.339 590.435 375.743 588.477 383.779L518.752 669.948C516.885 677.607 510.339 683.191 502.46 683.844L191.369 709.633C183.49 710.286 176.02 705.864 172.778 698.628L51.6673 428.28C48.2664 420.688 50.3219 411.811 56.6964 406.56L291.708 212.987Z" stroke="url(#paint93_linear_1023_243)" stroke-width="3"/>
<path opacity="0.959596" d="M292.797 214.257C298.782 209.499 307.113 208.947 313.739 212.87L577.181 368.849C584.345 373.091 587.842 381.557 585.735 389.562L510.932 673.839C508.925 681.467 502.278 686.942 494.39 687.464L183.612 708.056C175.724 708.578 168.338 704.034 165.23 696.745L49.3997 425.098C46.1381 417.449 48.357 408.604 54.8282 403.459L292.797 214.257Z" stroke="url(#paint94_linear_1023_243)" stroke-width="3"/>
<path opacity="0.969697" d="M293.871 215.611C299.942 210.953 308.28 210.539 314.83 214.57L574.733 374.496C581.818 378.856 585.159 387.382 582.905 395.352L503.072 677.659C500.924 685.253 494.179 690.617 486.283 691.009L175.917 706.421C168.021 706.813 160.721 702.147 157.748 694.808L47.209 421.954C44.088 414.25 46.4697 405.441 53.0354 400.403L293.871 215.611Z" stroke="url(#paint95_linear_1023_243)" stroke-width="3"/>
<path opacity="0.979798" d="M294.931 217.045C301.085 212.489 309.428 212.213 315.902 216.351L572.199 380.154C579.204 384.631 582.387 393.212 579.986 401.146L495.173 681.404C492.886 688.961 486.044 694.213 478.143 694.474L168.285 704.727C160.384 704.988 153.172 700.202 150.334 692.814L45.0953 418.844C42.1161 411.089 44.6599 402.318 51.318 397.389L294.931 217.045Z" stroke="url(#paint96_linear_1023_243)" stroke-width="3"/>
<path opacity="0.989899" d="M295.974 218.562C302.211 214.109 310.556 213.971 316.952 218.215L569.58 385.825C576.501 390.417 579.526 399.05 576.979 406.944L487.237 685.076C484.811 692.595 477.873 697.732 469.97 697.863L160.717 702.978C152.813 703.108 145.69 698.203 142.989 690.77L43.0569 415.775C40.2208 407.97 42.9258 399.242 49.674 394.423L295.974 218.562Z" stroke="url(#paint97_linear_1023_243)" stroke-width="3"/>
<path d="M296.999 220.159C303.316 215.81 311.662 215.81 317.98 220.159L566.875 391.504C573.711 396.21 576.577 404.893 573.885 412.743L479.265 688.674C476.701 696.151 469.67 701.173 461.765 701.173H153.213C145.309 701.173 138.278 696.151 135.714 688.674L41.0937 412.743C38.4017 404.893 41.2671 396.21 48.1031 391.504L296.999 220.159Z" stroke="url(#paint98_linear_1023_243)" stroke-width="3"/>
<defs>
<linearGradient id="paint0_linear_1023_243" x1="711.281" y1="555.594" x2="659.273" y2="165.046" gradientUnits="userSpaceOnUse">
<stop stop-color="#FF1CF7"/>
<stop offset="1" stop-color="#00F0FF"/>
</linearGradient>
<linearGradient id="paint1_linear_1023_243" x1="703.886" y1="556.903" x2="658.449" y2="166.352" gradientUnits="userSpaceOnUse">
<stop stop-color="#FF1CF7"/>
<stop offset="1" stop-color="#00F0FF"/>
</linearGradient>
<linearGradient id="paint2_linear_1023_243" x1="696.497" y1="558.153" x2="657.612" y2="167.697" gradientUnits="userSpaceOnUse">
<stop stop-color="#FF1CF7"/>
<stop offset="1" stop-color="#00F0FF"/>
</linearGradient>
<linearGradient id="paint3_linear_1023_243" x1="689.113" y1="559.344" x2="656.761" y2="169.08" gradientUnits="userSpaceOnUse">
<stop stop-color="#FF1CF7"/>
<stop offset="1" stop-color="#00F0FF"/>
</linearGradient>
<linearGradient id="paint4_linear_1023_243" x1="681.738" y1="560.476" x2="655.899" y2="170.502" gradientUnits="userSpaceOnUse">
<stop stop-color="#FF1CF7"/>
<stop offset="1" stop-color="#00F0FF"/>
</linearGradient>
<linearGradient id="paint5_linear_1023_243" x1="674.37" y1="561.547" x2="655.024" y2="171.959" gradientUnits="userSpaceOnUse">
<stop stop-color="#FF1CF7"/>
<stop offset="1" stop-color="#00F0FF"/>
</linearGradient>
<linearGradient id="paint6_linear_1023_243" x1="667.012" y1="562.56" x2="654.137" y2="173.453" gradientUnits="userSpaceOnUse">
<stop stop-color="#FF1CF7"/>
<stop offset="1" stop-color="#00F0FF"/>
</linearGradient>
<linearGradient id="paint7_linear_1023_243" x1="659.665" y1="563.515" x2="653.239" y2="174.985" gradientUnits="userSpaceOnUse">
<stop stop-color="#FF1CF7"/>
<stop offset="1" stop-color="#00F0FF"/>
</linearGradient>
<linearGradient id="paint8_linear_1023_243" x1="652.329" y1="564.411" x2="652.329" y2="176.552" gradientUnits="userSpaceOnUse">
<stop stop-color="#FF1CF7"/>
<stop offset="1" stop-color="#00F0FF"/>
</linearGradient>
<linearGradient id="paint9_linear_1023_243" x1="645.006" y1="565.248" x2="651.408" y2="178.155" gradientUnits="userSpaceOnUse">
<stop stop-color="#FF1CF7"/>
<stop offset="1" stop-color="#00F0FF"/>
</linearGradient>
<linearGradient id="paint10_linear_1023_243" x1="637.697" y1="566.03" x2="650.477" y2="179.795" gradientUnits="userSpaceOnUse">
<stop stop-color="#FF1CF7"/>
<stop offset="1" stop-color="#00F0FF"/>
</linearGradient>
<linearGradient id="paint11_linear_1023_243" x1="630.403" y1="566.752" x2="649.535" y2="181.468" gradientUnits="userSpaceOnUse">
<stop stop-color="#FF1CF7"/>
<stop offset="1" stop-color="#00F0FF"/>
</linearGradient>
<linearGradient id="paint12_linear_1023_243" x1="623.125" y1="567.419" x2="648.583" y2="183.18" gradientUnits="userSpaceOnUse">
<stop stop-color="#FF1CF7"/>
<stop offset="1" stop-color="#00F0FF"/>
</linearGradient>
<linearGradient id="paint13_linear_1023_243" x1="615.863" y1="568.029" x2="647.622" y2="184.926" gradientUnits="userSpaceOnUse">
<stop stop-color="#FF1CF7"/>
<stop offset="1" stop-color="#00F0FF"/>
</linearGradient>
<linearGradient id="paint14_linear_1023_243" x1="608.62" y1="568.582" x2="646.651" y2="186.707" gradientUnits="userSpaceOnUse">
<stop stop-color="#FF1CF7"/>
<stop offset="1" stop-color="#00F0FF"/>
</linearGradient>
<linearGradient id="paint15_linear_1023_243" x1="601.396" y1="569.08" x2="645.67" y2="188.524" gradientUnits="userSpaceOnUse">
<stop stop-color="#FF1CF7"/>
<stop offset="1" stop-color="#00F0FF"/>
</linearGradient>
<linearGradient id="paint16_linear_1023_243" x1="594.191" y1="569.523" x2="644.681" y2="190.378" gradientUnits="userSpaceOnUse">
<stop stop-color="#FF1CF7"/>
<stop offset="1" stop-color="#00F0FF"/>
</linearGradient>
<linearGradient id="paint17_linear_1023_243" x1="587.008" y1="569.91" x2="643.683" y2="192.267" gradientUnits="userSpaceOnUse">
<stop stop-color="#FF1CF7"/>
<stop offset="1" stop-color="#00F0FF"/>
</linearGradient>
<linearGradient id="paint18_linear_1023_243" x1="579.847" y1="570.244" x2="642.676" y2="194.192" gradientUnits="userSpaceOnUse">
<stop stop-color="#FF1CF7"/>
<stop offset="1" stop-color="#00F0FF"/>
</linearGradient>
<linearGradient id="paint19_linear_1023_243" x1="572.709" y1="570.521" x2="641.661" y2="196.151" gradientUnits="userSpaceOnUse">
<stop stop-color="#FF1CF7"/>
<stop offset="1" stop-color="#00F0FF"/>
</linearGradient>
<linearGradient id="paint20_linear_1023_243" x1="565.595" y1="570.748" x2="640.637" y2="198.149" gradientUnits="userSpaceOnUse">
<stop stop-color="#FF1CF7"/>
<stop offset="1" stop-color="#00F0FF"/>
</linearGradient>
<linearGradient id="paint21_linear_1023_243" x1="558.505" y1="570.92" x2="639.606" y2="200.182" gradientUnits="userSpaceOnUse">
<stop stop-color="#FF1CF7"/>
<stop offset="1" stop-color="#00F0FF"/>
</linearGradient>
<linearGradient id="paint22_linear_1023_243" x1="551.442" y1="571.04" x2="638.566" y2="202.254" gradientUnits="userSpaceOnUse">
<stop stop-color="#FF1CF7"/>
<stop offset="1" stop-color="#00F0FF"/>
</linearGradient>
<linearGradient id="paint23_linear_1023_243" x1="544.405" y1="571.109" x2="637.519" y2="204.362" gradientUnits="userSpaceOnUse">
<stop stop-color="#FF1CF7"/>
<stop offset="1" stop-color="#00F0FF"/>
</linearGradient>
<linearGradient id="paint24_linear_1023_243" x1="537.396" y1="571.125" x2="636.463" y2="206.507" gradientUnits="userSpaceOnUse">
<stop stop-color="#FF1CF7"/>
<stop offset="1" stop-color="#00F0FF"/>
</linearGradient>
<linearGradient id="paint25_linear_1023_243" x1="530.416" y1="571.091" x2="635.399" y2="208.691" gradientUnits="userSpaceOnUse">
<stop stop-color="#FF1CF7"/>
<stop offset="1" stop-color="#00F0FF"/>
</linearGradient>
<linearGradient id="paint26_linear_1023_243" x1="523.465" y1="571.007" x2="634.328" y2="210.913" gradientUnits="userSpaceOnUse">
<stop stop-color="#FF1CF7"/>
<stop offset="1" stop-color="#00F0FF"/>
</linearGradient>
<linearGradient id="paint27_linear_1023_243" x1="516.545" y1="570.874" x2="633.248" y2="213.175" gradientUnits="userSpaceOnUse">
<stop stop-color="#FF1CF7"/>
<stop offset="1" stop-color="#00F0FF"/>
</linearGradient>
<linearGradient id="paint28_linear_1023_243" x1="509.656" y1="570.692" x2="632.16" y2="215.476" gradientUnits="userSpaceOnUse">
<stop stop-color="#FF1CF7"/>
<stop offset="1" stop-color="#00F0FF"/>
</linearGradient>
<linearGradient id="paint29_linear_1023_243" x1="502.8" y1="570.46" x2="631.064" y2="217.816" gradientUnits="userSpaceOnUse">
<stop stop-color="#FF1CF7"/>
<stop offset="1" stop-color="#00F0FF"/>
</linearGradient>
<linearGradient id="paint30_linear_1023_243" x1="495.976" y1="570.182" x2="629.959" y2="220.198" gradientUnits="userSpaceOnUse">
<stop stop-color="#FF1CF7"/>
<stop offset="1" stop-color="#00F0FF"/>
</linearGradient>
<linearGradient id="paint31_linear_1023_243" x1="489.186" y1="569.856" x2="628.845" y2="222.619" gradientUnits="userSpaceOnUse">
<stop stop-color="#FF1CF7"/>
<stop offset="1" stop-color="#00F0FF"/>
</linearGradient>
<linearGradient id="paint32_linear_1023_243" x1="482.431" y1="569.484" x2="627.722" y2="225.083" gradientUnits="userSpaceOnUse">
<stop stop-color="#FF1CF7"/>
<stop offset="1" stop-color="#00F0FF"/>
</linearGradient>
<linearGradient id="paint33_linear_1023_243" x1="475.71" y1="569.066" x2="626.589" y2="227.588" gradientUnits="userSpaceOnUse">
<stop stop-color="#FF1CF7"/>
<stop offset="1" stop-color="#00F0FF"/>
</linearGradient>
<linearGradient id="paint34_linear_1023_243" x1="469.027" y1="568.604" x2="625.447" y2="230.137" gradientUnits="userSpaceOnUse">
<stop stop-color="#FF1CF7"/>
<stop offset="1" stop-color="#00F0FF"/>
</linearGradient>
<linearGradient id="paint35_linear_1023_243" x1="462.38" y1="568.096" x2="624.293" y2="232.727" gradientUnits="userSpaceOnUse">
<stop stop-color="#FF1CF7"/>
<stop offset="1" stop-color="#00F0FF"/>
</linearGradient>
<linearGradient id="paint36_linear_1023_243" x1="455.772" y1="567.546" x2="623.129" y2="235.363" gradientUnits="userSpaceOnUse">
<stop stop-color="#FF1CF7"/>
<stop offset="1" stop-color="#00F0FF"/>
</linearGradient>
<linearGradient id="paint37_linear_1023_243" x1="449.201" y1="566.952" x2="621.954" y2="238.041" gradientUnits="userSpaceOnUse">
<stop stop-color="#FF1CF7"/>
<stop offset="1" stop-color="#00F0FF"/>
</linearGradient>
<linearGradient id="paint38_linear_1023_243" x1="442.67" y1="566.317" x2="620.765" y2="240.765" gradientUnits="userSpaceOnUse">
<stop stop-color="#FF1CF7"/>
<stop offset="1" stop-color="#00F0FF"/>
</linearGradient>
<linearGradient id="paint39_linear_1023_243" x1="436.179" y1="565.638" x2="619.565" y2="243.533" gradientUnits="userSpaceOnUse">
<stop stop-color="#FF1CF7"/>
<stop offset="1" stop-color="#00F0FF"/>
</linearGradient>
<linearGradient id="paint40_linear_1023_243" x1="429.729" y1="564.921" x2="618.35" y2="246.348" gradientUnits="userSpaceOnUse">
<stop stop-color="#FF1CF7"/>
<stop offset="1" stop-color="#00F0FF"/>
</linearGradient>
<linearGradient id="paint41_linear_1023_243" x1="423.32" y1="564.164" x2="617.122" y2="249.21" gradientUnits="userSpaceOnUse">
<stop stop-color="#FF1CF7"/>
<stop offset="1" stop-color="#00F0FF"/>
</linearGradient>
<linearGradient id="paint42_linear_1023_243" x1="416.953" y1="563.367" x2="615.878" y2="252.117" gradientUnits="userSpaceOnUse">
<stop stop-color="#FF1CF7"/>
<stop offset="1" stop-color="#00F0FF"/>
</linearGradient>
<linearGradient id="paint43_linear_1023_243" x1="410.629" y1="562.532" x2="614.618" y2="255.073" gradientUnits="userSpaceOnUse">
<stop stop-color="#FF1CF7"/>
<stop offset="1" stop-color="#00F0FF"/>
</linearGradient>
<linearGradient id="paint44_linear_1023_243" x1="404.348" y1="561.661" x2="613.341" y2="258.077" gradientUnits="userSpaceOnUse">
<stop stop-color="#FF1CF7"/>
<stop offset="1" stop-color="#00F0FF"/>
</linearGradient>
<linearGradient id="paint45_linear_1023_243" x1="398.111" y1="560.751" x2="612.046" y2="261.128" gradientUnits="userSpaceOnUse">
<stop stop-color="#FF1CF7"/>
<stop offset="1" stop-color="#00F0FF"/>
</linearGradient>
<linearGradient id="paint46_linear_1023_243" x1="391.918" y1="559.806" x2="610.732" y2="264.228" gradientUnits="userSpaceOnUse">
<stop stop-color="#FF1CF7"/>
<stop offset="1" stop-color="#00F0FF"/>
</linearGradient>
<linearGradient id="paint47_linear_1023_243" x1="385.771" y1="558.825" x2="609.398" y2="267.377" gradientUnits="userSpaceOnUse">
<stop stop-color="#FF1CF7"/>
<stop offset="1" stop-color="#00F0FF"/>
</linearGradient>
<linearGradient id="paint48_linear_1023_243" x1="379.669" y1="557.811" x2="608.042" y2="270.574" gradientUnits="userSpaceOnUse">
<stop stop-color="#FF1CF7"/>
<stop offset="1" stop-color="#00F0FF"/>
</linearGradient>
<linearGradient id="paint49_linear_1023_243" x1="373.613" y1="556.764" x2="606.664" y2="273.823" gradientUnits="userSpaceOnUse">
<stop stop-color="#FF1CF7"/>
<stop offset="1" stop-color="#00F0FF"/>
</linearGradient>
<linearGradient id="paint50_linear_1023_243" x1="367.604" y1="555.684" x2="605.262" y2="277.122" gradientUnits="userSpaceOnUse">
<stop stop-color="#FF1CF7"/>
<stop offset="1" stop-color="#00F0FF"/>
</linearGradient>
<linearGradient id="paint51_linear_1023_243" x1="361.642" y1="554.572" x2="603.835" y2="280.469" gradientUnits="userSpaceOnUse">
<stop stop-color="#FF1CF7"/>
<stop offset="1" stop-color="#00F0FF"/>
</linearGradient>
<linearGradient id="paint52_linear_1023_243" x1="355.729" y1="553.429" x2="602.382" y2="283.868" gradientUnits="userSpaceOnUse">
<stop stop-color="#FF1CF7"/>
<stop offset="1" stop-color="#00F0FF"/>
</linearGradient>
<linearGradient id="paint53_linear_1023_243" x1="349.863" y1="552.257" x2="600.901" y2="287.317" gradientUnits="userSpaceOnUse">
<stop stop-color="#FF1CF7"/>
<stop offset="1" stop-color="#00F0FF"/>
</linearGradient>
<linearGradient id="paint54_linear_1023_243" x1="344.046" y1="551.055" x2="599.391" y2="290.816" gradientUnits="userSpaceOnUse">
<stop stop-color="#FF1CF7"/>
<stop offset="1" stop-color="#00F0FF"/>
</linearGradient>
<linearGradient id="paint55_linear_1023_243" x1="338.279" y1="549.826" x2="597.851" y2="294.367" gradientUnits="userSpaceOnUse">
<stop stop-color="#FF1CF7"/>
<stop offset="1" stop-color="#00F0FF"/>
</linearGradient>
<linearGradient id="paint56_linear_1023_243" x1="332.561" y1="548.568" x2="596.278" y2="297.966" gradientUnits="userSpaceOnUse">
<stop stop-color="#FF1CF7"/>
<stop offset="1" stop-color="#00F0FF"/>
</linearGradient>
<linearGradient id="paint57_linear_1023_243" x1="326.893" y1="547.286" x2="594.672" y2="301.618" gradientUnits="userSpaceOnUse">
<stop stop-color="#FF1CF7"/>
<stop offset="1" stop-color="#00F0FF"/>
</linearGradient>
<linearGradient id="paint58_linear_1023_243" x1="321.275" y1="545.977" x2="593.031" y2="305.319" gradientUnits="userSpaceOnUse">
<stop stop-color="#FF1CF7"/>
<stop offset="1" stop-color="#00F0FF"/>
</linearGradient>
<linearGradient id="paint59_linear_1023_243" x1="315.708" y1="544.644" x2="591.353" y2="309.07" gradientUnits="userSpaceOnUse">
<stop stop-color="#FF1CF7"/>
<stop offset="1" stop-color="#00F0FF"/>
</linearGradient>
<linearGradient id="paint60_linear_1023_243" x1="310.192" y1="543.286" x2="589.637" y2="312.87" gradientUnits="userSpaceOnUse">
<stop stop-color="#FF1CF7"/>
<stop offset="1" stop-color="#00F0FF"/>
</linearGradient>
<linearGradient id="paint61_linear_1023_243" x1="304.728" y1="541.907" x2="587.881" y2="316.72" gradientUnits="userSpaceOnUse">
<stop stop-color="#FF1CF7"/>
<stop offset="1" stop-color="#00F0FF"/>
</linearGradient>
<linearGradient id="paint62_linear_1023_243" x1="299.315" y1="540.507" x2="586.083" y2="320.62" gradientUnits="userSpaceOnUse">
<stop stop-color="#FF1CF7"/>
<stop offset="1" stop-color="#00F0FF"/>
</linearGradient>
<linearGradient id="paint63_linear_1023_243" x1="293.955" y1="539.084" x2="584.242" y2="324.567" gradientUnits="userSpaceOnUse">
<stop stop-color="#FF1CF7"/>
<stop offset="1" stop-color="#00F0FF"/>
</linearGradient>
<linearGradient id="paint64_linear_1023_243" x1="288.647" y1="537.642" x2="582.357" y2="328.561" gradientUnits="userSpaceOnUse">
<stop stop-color="#FF1CF7"/>
<stop offset="1" stop-color="#00F0FF"/>
</linearGradient>
<linearGradient id="paint65_linear_1023_243" x1="283.391" y1="536.18" x2="580.425" y2="332.602" gradientUnits="userSpaceOnUse">
<stop stop-color="#FF1CF7"/>
<stop offset="1" stop-color="#00F0FF"/>
</linearGradient>
<linearGradient id="paint66_linear_1023_243" x1="278.188" y1="534.701" x2="578.444" y2="336.691" gradientUnits="userSpaceOnUse">
<stop stop-color="#FF1CF7"/>
<stop offset="1" stop-color="#00F0FF"/>
</linearGradient>
<linearGradient id="paint67_linear_1023_243" x1="273.039" y1="533.204" x2="576.414" y2="340.823" gradientUnits="userSpaceOnUse">
<stop stop-color="#FF1CF7"/>
<stop offset="1" stop-color="#00F0FF"/>
</linearGradient>
<linearGradient id="paint68_linear_1023_243" x1="267.943" y1="531.691" x2="574.333" y2="345.001" gradientUnits="userSpaceOnUse">
<stop stop-color="#FF1CF7"/>
<stop offset="1" stop-color="#00F0FF"/>
</linearGradient>
<linearGradient id="paint69_linear_1023_243" x1="262.9" y1="530.163" x2="572.198" y2="349.223" gradientUnits="userSpaceOnUse">
<stop stop-color="#FF1CF7"/>
<stop offset="1" stop-color="#00F0FF"/>
</linearGradient>
<linearGradient id="paint70_linear_1023_243" x1="257.911" y1="528.62" x2="570.009" y2="353.486" gradientUnits="userSpaceOnUse">
<stop stop-color="#FF1CF7"/>
<stop offset="1" stop-color="#00F0FF"/>
</linearGradient>
<linearGradient id="paint71_linear_1023_243" x1="252.976" y1="527.065" x2="567.763" y2="357.791" gradientUnits="userSpaceOnUse">
<stop stop-color="#FF1CF7"/>
<stop offset="1" stop-color="#00F0FF"/>
</linearGradient>
<linearGradient id="paint72_linear_1023_243" x1="248.095" y1="525.496" x2="565.46" y2="362.136" gradientUnits="userSpaceOnUse">
<stop stop-color="#FF1CF7"/>
<stop offset="1" stop-color="#00F0FF"/>
</linearGradient>
<linearGradient id="paint73_linear_1023_243" x1="243.268" y1="523.917" x2="563.096" y2="366.52" gradientUnits="userSpaceOnUse">
<stop stop-color="#FF1CF7"/>
<stop offset="1" stop-color="#00F0FF"/>
</linearGradient>
<linearGradient id="paint74_linear_1023_243" x1="238.495" y1="522.326" x2="560.672" y2="370.94" gradientUnits="userSpaceOnUse">
<stop stop-color="#FF1CF7"/>
<stop offset="1" stop-color="#00F0FF"/>
</linearGradient>
<linearGradient id="paint75_linear_1023_243" x1="233.777" y1="520.726" x2="558.186" y2="375.397" gradientUnits="userSpaceOnUse">
<stop stop-color="#FF1CF7"/>
<stop offset="1" stop-color="#00F0FF"/>
</linearGradient>
<linearGradient id="paint76_linear_1023_243" x1="229.113" y1="519.118" x2="555.636" y2="379.889" gradientUnits="userSpaceOnUse">
<stop stop-color="#FF1CF7"/>
<stop offset="1" stop-color="#00F0FF"/>
</linearGradient>
<linearGradient id="paint77_linear_1023_243" x1="224.503" y1="517.502" x2="553.02" y2="384.413" gradientUnits="userSpaceOnUse">
<stop stop-color="#FF1CF7"/>
<stop offset="1" stop-color="#00F0FF"/>
</linearGradient>
<linearGradient id="paint78_linear_1023_243" x1="219.948" y1="515.878" x2="550.338" y2="388.967" gradientUnits="userSpaceOnUse">
<stop stop-color="#FF1CF7"/>
<stop offset="1" stop-color="#00F0FF"/>
</linearGradient>
<linearGradient id="paint79_linear_1023_243" x1="215.447" y1="514.25" x2="547.588" y2="393.551" gradientUnits="userSpaceOnUse">
<stop stop-color="#FF1CF7"/>
<stop offset="1" stop-color="#00F0FF"/>
</linearGradient>
<linearGradient id="paint80_linear_1023_243" x1="211" y1="512.615" x2="544.769" y2="398.161" gradientUnits="userSpaceOnUse">
<stop stop-color="#FF1CF7"/>
<stop offset="1" stop-color="#00F0FF"/>
</linearGradient>
<linearGradient id="paint81_linear_1023_243" x1="206.608" y1="510.977" x2="541.879" y2="402.798" gradientUnits="userSpaceOnUse">
<stop stop-color="#FF1CF7"/>
<stop offset="1" stop-color="#00F0FF"/>
</linearGradient>
<linearGradient id="paint82_linear_1023_243" x1="202.271" y1="509.335" x2="538.919" y2="407.457" gradientUnits="userSpaceOnUse">
<stop stop-color="#FF1CF7"/>
<stop offset="1" stop-color="#00F0FF"/>
</linearGradient>
<linearGradient id="paint83_linear_1023_243" x1="197.987" y1="507.692" x2="535.885" y2="412.139" gradientUnits="userSpaceOnUse">
<stop stop-color="#FF1CF7"/>
<stop offset="1" stop-color="#00F0FF"/>
</linearGradient>
<linearGradient id="paint84_linear_1023_243" x1="193.758" y1="506.047" x2="532.779" y2="416.838" gradientUnits="userSpaceOnUse">
<stop stop-color="#FF1CF7"/>
<stop offset="1" stop-color="#00F0FF"/>
</linearGradient>
<linearGradient id="paint85_linear_1023_243" x1="189.583" y1="504.402" x2="529.599" y2="421.556" gradientUnits="userSpaceOnUse">
<stop stop-color="#FF1CF7"/>
<stop offset="1" stop-color="#00F0FF"/>
</linearGradient>
<linearGradient id="paint86_linear_1023_243" x1="185.463" y1="502.758" x2="526.343" y2="426.289" gradientUnits="userSpaceOnUse">
<stop stop-color="#FF1CF7"/>
<stop offset="1" stop-color="#00F0FF"/>
</linearGradient>
<linearGradient id="paint87_linear_1023_243" x1="181.396" y1="501.115" x2="523.012" y2="431.034" gradientUnits="userSpaceOnUse">
<stop stop-color="#FF1CF7"/>
<stop offset="1" stop-color="#00F0FF"/>
</linearGradient>
<linearGradient id="paint88_linear_1023_243" x1="177.382" y1="499.475" x2="519.605" y2="435.79" gradientUnits="userSpaceOnUse">
<stop stop-color="#FF1CF7"/>
<stop offset="1" stop-color="#00F0FF"/>
</linearGradient>
<linearGradient id="paint89_linear_1023_243" x1="173.423" y1="497.839" x2="516.121" y2="440.555" gradientUnits="userSpaceOnUse">
<stop stop-color="#FF1CF7"/>
<stop offset="1" stop-color="#00F0FF"/>
</linearGradient>
<linearGradient id="paint90_linear_1023_243" x1="169.516" y1="496.205" x2="512.56" y2="445.324" gradientUnits="userSpaceOnUse">
<stop stop-color="#FF1CF7"/>
<stop offset="1" stop-color="#00F0FF"/>
</linearGradient>
<linearGradient id="paint91_linear_1023_243" x1="165.663" y1="494.578" x2="508.921" y2="450.097" gradientUnits="userSpaceOnUse">
<stop stop-color="#FF1CF7"/>
<stop offset="1" stop-color="#00F0FF"/>
</linearGradient>
<linearGradient id="paint92_linear_1023_243" x1="161.863" y1="492.957" x2="505.205" y2="454.871" gradientUnits="userSpaceOnUse">
<stop stop-color="#FF1CF7"/>
<stop offset="1" stop-color="#00F0FF"/>
</linearGradient>
<linearGradient id="paint93_linear_1023_243" x1="158.115" y1="491.343" x2="501.411" y2="459.646" gradientUnits="userSpaceOnUse">
<stop stop-color="#FF1CF7"/>
<stop offset="1" stop-color="#00F0FF"/>
</linearGradient>
<linearGradient id="paint94_linear_1023_243" x1="154.42" y1="489.736" x2="497.539" y2="464.414" gradientUnits="userSpaceOnUse">
<stop stop-color="#FF1CF7"/>
<stop offset="1" stop-color="#00F0FF"/>
</linearGradient>
<linearGradient id="paint95_linear_1023_243" x1="150.777" y1="488.139" x2="493.589" y2="469.178" gradientUnits="userSpaceOnUse">
<stop stop-color="#FF1CF7"/>
<stop offset="1" stop-color="#00F0FF"/>
</linearGradient>
<linearGradient id="paint96_linear_1023_243" x1="147.187" y1="486.549" x2="489.561" y2="473.931" gradientUnits="userSpaceOnUse">
<stop stop-color="#FF1CF7"/>
<stop offset="1" stop-color="#00F0FF"/>
</linearGradient>
<linearGradient id="paint97_linear_1023_243" x1="143.648" y1="484.971" x2="485.456" y2="478.675" gradientUnits="userSpaceOnUse">
<stop stop-color="#FF1CF7"/>
<stop offset="1" stop-color="#00F0FF"/>
</linearGradient>
<linearGradient id="paint98_linear_1023_243" x1="140.16" y1="483.405" x2="481.275" y2="483.405" gradientUnits="userSpaceOnUse">
<stop stop-color="#FF1CF7"/>
<stop offset="1" stop-color="#00F0FF"/>
</linearGradient>
</defs>
</svg>
