<svg width="305" height="658" viewBox="0 0 305 658" fill="none" xmlns="http://www.w3.org/2000/svg">
<path d="M26.3379 82.7573C0.733506 81.6078 -112.522 98.6266 -134.458 156.166L-219.225 326.483" stroke="white" stroke-linecap="round"/>
<path d="M26.3379 82.7573C0.733506 81.6078 -112.522 98.6266 -134.458 156.166L-219.225 326.483" stroke="url(#paint0_linear_1023_182)" stroke-linecap="round"/>
<path d="M28.3428 82.058C8.47028 85.1128 -108.601 99.1975 -129.985 149.504L-222.112 312.243" stroke="white" stroke-linecap="round"/>
<path d="M28.3428 82.058C8.47028 85.1128 -108.601 99.1975 -129.985 149.504L-222.112 312.243" stroke="url(#paint1_linear_1023_182)" stroke-linecap="round"/>
<path d="M26.2848 83.9391C7.77085 83.1079 -102.334 100.268 -125.626 143.019L-224.528 297.907" stroke="white" stroke-linecap="round"/>
<path d="M26.2848 83.9391C7.77085 83.1079 -102.334 100.268 -125.626 143.019L-224.528 297.907" stroke="url(#paint2_linear_1023_182)" stroke-linecap="round"/>
<path d="M27.1612 82.0048C9.93976 83.3672 -95.3917 103.176 -121.391 136.701L-226.478 283.503" stroke="white" stroke-linecap="round"/>
<path d="M27.1612 82.0048C9.93976 83.3672 -95.3917 103.176 -121.391 136.701L-226.478 283.503" stroke="url(#paint3_linear_1023_182)" stroke-linecap="round"/>
<path d="M29.0599 83.6689C12.309 84.1223 -90.0763 99.0063 -117.288 130.539L-227.966 269.065" stroke="white" stroke-linecap="round"/>
<path d="M29.0599 83.6689C12.309 84.1223 -90.0763 99.0063 -117.288 130.539L-227.966 269.065" stroke="url(#paint4_linear_1023_182)" stroke-linecap="round"/>
<path d="M29.2013 80.5176C12.9667 80.1204 -85.0426 95.0099 -113.326 124.523L-229 254.623" stroke="white" stroke-linecap="round"/>
<path d="M29.2013 80.5176C12.9667 80.1204 -85.0426 95.0099 -113.326 124.523L-229 254.623" stroke="url(#paint5_linear_1023_182)" stroke-linecap="round"/>
<path d="M28.3605 81.6641C12.6829 80.4767 -80.2972 91.1656 -109.512 118.642L-229.588 240.206" stroke="white" stroke-linecap="round"/>
<path d="M28.3605 81.6641C12.6829 80.4767 -80.2972 91.1656 -109.512 118.642L-229.588 240.206" stroke="url(#paint6_linear_1023_182)" stroke-linecap="round"/>
<path d="M-233.269 292.543C-231.219 313.357 -217.522 362.137 -179.134 390.742L-11.2982 505.349" stroke="white" stroke-linecap="round"/>
<path d="M-233.269 292.543C-231.219 313.357 -217.522 362.137 -179.134 390.742L-11.2982 505.349" stroke="url(#paint7_linear_1023_182)" stroke-linecap="round"/>
<path d="M-232.442 284.886C-231.536 305.26 -220.673 353.536 -184.469 383.653L-25.6269 505.151" stroke="white" stroke-linecap="round"/>
<path d="M-232.442 284.886C-231.536 305.26 -220.673 353.536 -184.469 383.653L-25.6269 505.151" stroke="url(#paint8_linear_1023_182)" stroke-linecap="round"/>
<path d="M-231.559 277.74C-231.739 297.613 -223.606 345.226 -189.631 376.699L-40.0132 504.441" stroke="white" stroke-linecap="round"/>
<path d="M-231.559 277.74C-231.739 297.613 -223.606 345.226 -189.631 376.699L-40.0132 504.441" stroke="url(#paint9_linear_1023_182)" stroke-linecap="round"/>
<path d="M-230.651 271.1C-231.857 290.415 -226.342 337.214 -194.632 369.89L-54.4228 503.227" stroke="white" stroke-linecap="round"/>
<path d="M-230.651 271.1C-231.857 290.415 -226.342 337.214 -194.632 369.89L-54.4228 503.227" stroke="url(#paint10_linear_1023_182)" stroke-linecap="round"/>
<path d="M-113.779 503.259C-93.6776 509.035 -43.2864 514.308 -2.53338 489.186L152.878 385.259" stroke="white" stroke-linecap="round"/>
<path d="M-113.779 503.259C-93.6776 509.035 -43.2864 514.308 -2.53338 489.186L152.878 385.259" stroke="url(#paint11_linear_1023_182)" stroke-linecap="round"/>
<path d="M-120.59 499.664C-101.32 506.341 -52.4425 514.062 -11.0907 491.528L152.453 394.713" stroke="white" stroke-linecap="round"/>
<path d="M-120.59 499.664C-101.32 506.341 -52.4425 514.062 -11.0907 491.528L152.453 394.713" stroke="url(#paint12_linear_1023_182)" stroke-linecap="round"/>
<path d="M-126.905 496.206C-108.503 503.707 -61.2492 513.721 -19.459 493.76L154.484 401.849" stroke="white" stroke-linecap="round"/>
<path d="M-126.905 496.206C-108.503 503.707 -61.2492 513.721 -19.459 493.76L154.484 401.849" stroke="url(#paint13_linear_1023_182)" stroke-linecap="round"/>
<path d="M-132.742 492.911C-115.235 501.161 -69.7046 513.307 -27.6324 495.895L148.037 414.794" stroke="white" stroke-linecap="round"/>
<path d="M-132.742 492.911C-115.235 501.161 -69.7046 513.307 -27.6324 495.895L148.037 414.794" stroke="url(#paint14_linear_1023_182)" stroke-linecap="round"/>
<path d="M-138.119 489.808C-121.533 498.728 -77.8103 512.844 -35.6083 497.946L141.132 427.546" stroke="white" stroke-linecap="round"/>
<path d="M-138.119 489.808C-121.533 498.728 -77.8103 512.844 -35.6083 497.946L141.132 427.546" stroke="url(#paint15_linear_1023_182)" stroke-linecap="round"/>
<path d="M-143.059 486.922C-127.411 496.436 -85.5682 512.355 -43.3836 499.929L133.788 440.083" stroke="white" stroke-linecap="round"/>
<path d="M-143.059 486.922C-127.411 496.436 -85.5682 512.355 -43.3836 499.929L133.788 440.083" stroke="url(#paint16_linear_1023_182)" stroke-linecap="round"/>
<path d="M-147.583 484.276C-132.885 494.305 -92.9819 511.862 -50.9565 501.855L126.029 452.379" stroke="white" stroke-linecap="round"/>
<path d="M-147.583 484.276C-132.885 494.305 -92.9819 511.862 -50.9565 501.855L126.029 452.379" stroke="url(#paint17_linear_1023_182)" stroke-linecap="round"/>
<path d="M-151.715 481.893C-137.973 492.361 -100.056 511.386 -58.3262 503.739L117.878 464.412" stroke="white" stroke-linecap="round"/>
<path d="M-151.715 481.893C-137.973 492.361 -100.056 511.386 -58.3262 503.739L117.878 464.412" stroke="url(#paint18_linear_1023_182)" stroke-linecap="round"/>
<path d="M-155.48 479.791C-142.695 490.623 -106.798 510.949 -65.4929 505.595L109.359 476.164" stroke="white" stroke-linecap="round"/>
<path d="M-155.48 479.791C-142.695 490.623 -106.798 510.949 -65.4929 505.595L109.359 476.164" stroke="url(#paint19_linear_1023_182)" stroke-linecap="round"/>
<path d="M-154.188 481.596C-142.354 492.717 -113.214 510.57 -72.4569 507.436L100.499 487.616" stroke="white" stroke-linecap="round"/>
<path d="M-154.188 481.596C-142.354 492.717 -113.214 510.57 -72.4569 507.436L100.499 487.616" stroke="url(#paint20_linear_1023_182)" stroke-linecap="round"/>
<path d="M-153.042 482.437C-142.15 493.776 -119.314 510.271 -79.2208 509.276L91.3237 498.753" stroke="white" stroke-linecap="round"/>
<path d="M-153.042 482.437C-142.15 493.776 -119.314 510.271 -79.2208 509.276L91.3237 498.753" stroke="url(#paint21_linear_1023_182)" stroke-linecap="round"/>
<path d="M125.655 463.82C138.49 447.306 162.115 402.485 153.941 355.314L111.011 156.667" stroke="white" stroke-linecap="round"/>
<path d="M125.655 463.82C138.49 447.306 162.115 402.485 153.941 355.314L111.011 156.667" stroke="url(#paint22_linear_1023_182)" stroke-linecap="round"/>
<path d="M119.786 468.807C133.148 453.4 158.483 410.894 152.934 364.129L121.272 166.67" stroke="white" stroke-linecap="round"/>
<path d="M119.786 468.807C133.148 453.4 158.483 410.894 152.934 364.129L121.272 166.67" stroke="url(#paint23_linear_1023_182)" stroke-linecap="round"/>
<path d="M114.229 473.385C128.033 459.089 154.893 418.943 151.896 372.727L131.224 177.084" stroke="white" stroke-linecap="round"/>
<path d="M114.229 473.385C128.033 459.089 154.893 418.943 151.896 372.727L131.224 177.084" stroke="url(#paint24_linear_1023_182)" stroke-linecap="round"/>
<path d="M109.001 477.578C123.166 464.392 151.366 426.638 150.839 381.108L140.844 187.88" stroke="white" stroke-linecap="round"/>
<path d="M109.001 477.578C123.166 464.392 151.366 426.638 150.839 381.108L140.844 187.88" stroke="url(#paint25_linear_1023_182)" stroke-linecap="round"/>
<path d="M104.121 481.417C118.567 469.335 147.924 433.991 149.779 389.275L150.117 199.031" stroke="white" stroke-linecap="round"/>
<path d="M104.121 481.417C118.567 469.335 147.924 433.991 149.779 389.275L150.117 199.031" stroke="url(#paint26_linear_1023_182)" stroke-linecap="round"/>
<path d="M99.6059 484.93C114.254 473.939 144.586 441.012 148.729 397.231L159.025 210.508" stroke="white" stroke-linecap="round"/>
<path d="M99.6059 484.93C114.254 473.939 144.586 441.012 148.729 397.231L159.025 210.508" stroke="url(#paint27_linear_1023_182)" stroke-linecap="round"/>
<path d="M95.4682 488.147C110.242 478.23 141.372 447.711 147.703 404.977L167.556 222.282" stroke="white" stroke-linecap="round"/>
<path d="M95.4682 488.147C110.242 478.23 141.372 447.711 147.703 404.977L167.556 222.282" stroke="url(#paint28_linear_1023_182)" stroke-linecap="round"/>
<path d="M91.7195 491.097C106.546 482.23 138.301 454.101 146.713 412.519L175.698 234.322" stroke="white" stroke-linecap="round"/>
<path d="M91.7195 491.097C106.546 482.23 138.301 454.101 146.713 412.519L175.698 234.322" stroke="url(#paint29_linear_1023_182)" stroke-linecap="round"/>
<path d="M88.3689 493.811C103.177 485.968 135.389 460.198 145.772 419.862L183.442 246.598" stroke="white" stroke-linecap="round"/>
<path d="M88.3689 493.811C103.177 485.968 135.389 460.198 145.772 419.862L183.442 246.598" stroke="url(#paint30_linear_1023_182)" stroke-linecap="round"/>
<path d="M85.4237 496.319C100.147 489.467 132.653 466.013 144.893 427.012L190.78 259.08" stroke="white" stroke-linecap="round"/>
<path d="M85.4237 496.319C100.147 489.467 132.653 466.013 144.893 427.012L190.78 259.08" stroke="url(#paint31_linear_1023_182)" stroke-linecap="round"/>
<path d="M82.8886 498.652C97.4635 492.756 130.108 471.565 144.087 433.975L195.07 271.898" stroke="white" stroke-linecap="round"/>
<path d="M82.8886 498.652C97.4635 492.756 130.108 471.565 144.087 433.975L195.07 271.898" stroke="url(#paint32_linear_1023_182)" stroke-linecap="round"/>
<path d="M178.744 224.071C168.412 205.887 136.071 166.885 89.3704 156.352L-110.558 119.853" stroke="white" stroke-linecap="round"/>
<path d="M178.744 224.071C168.412 205.887 136.071 166.885 89.3704 156.352L-110.558 119.853" stroke="url(#paint33_linear_1023_182)" stroke-linecap="round"/>
<path d="M181.101 231.404C171.992 213.157 142.445 173.463 97.1259 160.661L-97.3858 114.21" stroke="white" stroke-linecap="round"/>
<path d="M181.101 231.404C171.992 213.157 142.445 173.463 97.1259 160.661L-97.3858 114.21" stroke="url(#paint34_linear_1023_182)" stroke-linecap="round"/>
<path d="M183.198 238.291C175.286 220.061 148.503 179.864 104.669 164.916L-83.953 109.011" stroke="white" stroke-linecap="round"/>
<path d="M183.198 238.291C175.286 220.061 148.503 179.864 104.669 164.916L-83.953 109.011" stroke="url(#paint35_linear_1023_182)" stroke-linecap="round"/>
<path d="M185.067 244.728C178.319 226.589 154.259 186.071 112.005 169.104L-70.2936 104.264" stroke="white" stroke-linecap="round"/>
<path d="M185.067 244.728C178.319 226.589 154.259 186.071 112.005 169.104L-70.2936 104.264" stroke="url(#paint36_linear_1023_182)" stroke-linecap="round"/>
<path d="M186.742 250.706C181.121 232.732 159.731 192.07 119.142 173.214L-56.44 99.9744" stroke="white" stroke-linecap="round"/>
<path d="M186.742 250.706C181.121 232.732 159.731 192.07 119.142 173.214L-56.44 99.9744" stroke="url(#paint37_linear_1023_182)" stroke-linecap="round"/>
<path d="M188.256 256.223C183.72 238.481 164.935 197.843 126.087 177.234L-42.4243 96.1461" stroke="white" stroke-linecap="round"/>
<path d="M188.256 256.223C183.72 238.481 164.935 197.843 126.087 177.234L-42.4243 96.1461" stroke="url(#paint38_linear_1023_182)" stroke-linecap="round"/>
<path d="M189.641 261.278C186.144 243.831 169.891 203.38 132.848 181.151L-28.28 92.7802" stroke="white" stroke-linecap="round"/>
<path d="M189.641 261.278C186.144 243.831 169.891 203.38 132.848 181.151L-28.28 92.7802" stroke="url(#paint39_linear_1023_182)" stroke-linecap="round"/>
<path d="M190.929 265.871C188.423 248.779 174.616 208.666 139.435 184.957L-14.0385 89.8758" stroke="white" stroke-linecap="round"/>
<path d="M190.929 265.871C188.423 248.779 174.616 208.666 139.435 184.957L-14.0385 89.8758" stroke="url(#paint40_linear_1023_182)" stroke-linecap="round"/>
<path d="M192.151 270.006C190.583 253.322 179.13 213.692 145.856 188.64L0.268345 87.4297" stroke="white" stroke-linecap="round"/>
<path d="M192.151 270.006C190.583 253.322 179.13 213.692 145.856 188.64L0.268345 87.4297" stroke="url(#paint41_linear_1023_182)" stroke-linecap="round"/>
<path d="M193.338 273.688C192.654 257.463 183.453 218.449 152.122 192.193L14.6096 85.4369" stroke="white" stroke-linecap="round"/>
<path d="M193.338 273.688C192.654 257.463 183.453 218.449 152.122 192.193L14.6096 85.4369" stroke="url(#paint42_linear_1023_182)" stroke-linecap="round"/>
<path d="M194.522 276.923C194.663 261.202 187.605 222.928 158.244 195.607L28.9559 83.8901" stroke="white" stroke-linecap="round"/>
<path d="M194.522 276.923C194.663 261.202 187.605 222.928 158.244 195.607L28.9559 83.8901" stroke="url(#paint43_linear_1023_182)" stroke-linecap="round"/>
<defs>
<linearGradient id="paint0_linear_1023_182" x1="-157.447" y1="196.695" x2="-33.1639" y2="213.425" gradientUnits="userSpaceOnUse">
<stop stop-color="#FF1CF7"/>
<stop offset="0.177083" stop-color="#00F0FF"/>
</linearGradient>
<linearGradient id="paint1_linear_1023_182" x1="-154.82" y1="186.213" x2="-36.8228" y2="209.078" gradientUnits="userSpaceOnUse">
<stop stop-color="#FF1CF7"/>
<stop offset="0.177083" stop-color="#00F0FF"/>
</linearGradient>
<linearGradient id="paint2_linear_1023_182" x1="-153.011" y1="177.508" x2="-43.2933" y2="205.406" gradientUnits="userSpaceOnUse">
<stop stop-color="#FF1CF7"/>
<stop offset="0.177083" stop-color="#00F0FF"/>
</linearGradient>
<linearGradient id="paint3_linear_1023_182" x1="-150.085" y1="167.082" x2="-47.4579" y2="199.571" gradientUnits="userSpaceOnUse">
<stop stop-color="#FF1CF7"/>
<stop offset="0.177083" stop-color="#00F0FF"/>
</linearGradient>
<linearGradient id="paint4_linear_1023_182" x1="-147.021" y1="158.528" x2="-50.2494" y2="195.417" gradientUnits="userSpaceOnUse">
<stop stop-color="#FF1CF7"/>
<stop offset="0.177083" stop-color="#00F0FF"/>
</linearGradient>
<linearGradient id="paint5_linear_1023_182" x1="-143.743" y1="148.197" x2="-54.5929" y2="188.2" gradientUnits="userSpaceOnUse">
<stop stop-color="#FF1CF7"/>
<stop offset="0.177083" stop-color="#00F0FF"/>
</linearGradient>
<linearGradient id="paint6_linear_1023_182" x1="-141.055" y1="140.216" x2="-58.8655" y2="182.94" gradientUnits="userSpaceOnUse">
<stop stop-color="#FF1CF7"/>
<stop offset="0.177083" stop-color="#00F0FF"/>
</linearGradient>
<linearGradient id="paint7_linear_1023_182" x1="-133.056" y1="441.313" x2="-110.547" y2="355.087" gradientUnits="userSpaceOnUse">
<stop stop-color="#FF1CF7"/>
<stop offset="0.177083" stop-color="#00F0FF"/>
</linearGradient>
<linearGradient id="paint8_linear_1023_182" x1="-141.878" y1="435.599" x2="-115.164" y2="353.043" gradientUnits="userSpaceOnUse">
<stop stop-color="#FF1CF7"/>
<stop offset="0.177083" stop-color="#00F0FF"/>
</linearGradient>
<linearGradient id="paint9_linear_1023_182" x1="-150.531" y1="429.791" x2="-119.959" y2="351.096" gradientUnits="userSpaceOnUse">
<stop stop-color="#FF1CF7"/>
<stop offset="0.177083" stop-color="#00F0FF"/>
</linearGradient>
<linearGradient id="paint10_linear_1023_182" x1="-159.012" y1="423.903" x2="-124.933" y2="349.231" gradientUnits="userSpaceOnUse">
<stop stop-color="#FF1CF7"/>
<stop offset="0.177083" stop-color="#00F0FF"/>
</linearGradient>
<linearGradient id="paint11_linear_1023_182" x1="53.826" y1="469.102" x2="-15.7339" y2="418.027" gradientUnits="userSpaceOnUse">
<stop stop-color="#FF1CF7"/>
<stop offset="0.177083" stop-color="#00F0FF"/>
</linearGradient>
<linearGradient id="paint12_linear_1023_182" x1="48.3711" y1="473.671" x2="-17.4167" y2="419.269" gradientUnits="userSpaceOnUse">
<stop stop-color="#FF1CF7"/>
<stop offset="0.177083" stop-color="#00F0FF"/>
</linearGradient>
<linearGradient id="paint13_linear_1023_182" x1="44.3158" y1="477.015" x2="-17.5409" y2="419.557" gradientUnits="userSpaceOnUse">
<stop stop-color="#FF1CF7"/>
<stop offset="0.177083" stop-color="#00F0FF"/>
</linearGradient>
<linearGradient id="paint14_linear_1023_182" x1="35.7134" y1="482.723" x2="-21.1097" y2="423.493" gradientUnits="userSpaceOnUse">
<stop stop-color="#FF1CF7"/>
<stop offset="0.177083" stop-color="#00F0FF"/>
</linearGradient>
<linearGradient id="paint15_linear_1023_182" x1="27.1128" y1="488.244" x2="-24.6831" y2="427.623" gradientUnits="userSpaceOnUse">
<stop stop-color="#FF1CF7"/>
<stop offset="0.177083" stop-color="#00F0FF"/>
</linearGradient>
<linearGradient id="paint16_linear_1023_182" x1="18.5278" y1="493.581" x2="-28.2745" y2="431.947" gradientUnits="userSpaceOnUse">
<stop stop-color="#FF1CF7"/>
<stop offset="0.177083" stop-color="#00F0FF"/>
</linearGradient>
<linearGradient id="paint17_linear_1023_182" x1="9.97105" y1="498.737" x2="-31.8973" y2="436.457" gradientUnits="userSpaceOnUse">
<stop stop-color="#FF1CF7"/>
<stop offset="0.177083" stop-color="#00F0FF"/>
</linearGradient>
<linearGradient id="paint18_linear_1023_182" x1="1.45521" y1="503.718" x2="-35.5645" y2="441.149" gradientUnits="userSpaceOnUse">
<stop stop-color="#FF1CF7"/>
<stop offset="0.177083" stop-color="#00F0FF"/>
</linearGradient>
<linearGradient id="paint19_linear_1023_182" x1="-7.00796" y1="508.53" x2="-39.2885" y2="446.018" gradientUnits="userSpaceOnUse">
<stop stop-color="#FF1CF7"/>
<stop offset="0.177083" stop-color="#00F0FF"/>
</linearGradient>
<linearGradient id="paint20_linear_1023_182" x1="-13.6704" y1="513.594" x2="-40.083" y2="454.302" gradientUnits="userSpaceOnUse">
<stop stop-color="#FF1CF7"/>
<stop offset="0.177083" stop-color="#00F0FF"/>
</linearGradient>
<linearGradient id="paint21_linear_1023_182" x1="-20.1516" y1="518.262" x2="-41.5398" y2="461.694" gradientUnits="userSpaceOnUse">
<stop stop-color="#FF1CF7"/>
<stop offset="0.177083" stop-color="#00F0FF"/>
</linearGradient>
<linearGradient id="paint22_linear_1023_182" x1="155.302" y1="286.913" x2="79.6382" y2="333.994" gradientUnits="userSpaceOnUse">
<stop stop-color="#FF1CF7"/>
<stop offset="0.177083" stop-color="#00F0FF"/>
</linearGradient>
<linearGradient id="paint23_linear_1023_182" x1="157.772" y1="297.129" x2="81.5826" y2="338.653" gradientUnits="userSpaceOnUse">
<stop stop-color="#FF1CF7"/>
<stop offset="0.177083" stop-color="#00F0FF"/>
</linearGradient>
<linearGradient id="paint24_linear_1023_182" x1="160.055" y1="307.297" x2="83.7219" y2="343.366" gradientUnits="userSpaceOnUse">
<stop stop-color="#FF1CF7"/>
<stop offset="0.177083" stop-color="#00F0FF"/>
</linearGradient>
<linearGradient id="paint25_linear_1023_182" x1="162.157" y1="317.405" x2="86.0487" y2="348.141" gradientUnits="userSpaceOnUse">
<stop stop-color="#FF1CF7"/>
<stop offset="0.177083" stop-color="#00F0FF"/>
</linearGradient>
<linearGradient id="paint26_linear_1023_182" x1="164.085" y1="327.442" x2="88.5555" y2="352.994" gradientUnits="userSpaceOnUse">
<stop stop-color="#FF1CF7"/>
<stop offset="0.177083" stop-color="#00F0FF"/>
</linearGradient>
<linearGradient id="paint27_linear_1023_182" x1="165.848" y1="337.395" x2="91.2339" y2="357.935" gradientUnits="userSpaceOnUse">
<stop stop-color="#FF1CF7"/>
<stop offset="0.177083" stop-color="#00F0FF"/>
</linearGradient>
<linearGradient id="paint28_linear_1023_182" x1="167.455" y1="347.256" x2="94.0747" y2="362.975" gradientUnits="userSpaceOnUse">
<stop stop-color="#FF1CF7"/>
<stop offset="0.177083" stop-color="#00F0FF"/>
</linearGradient>
<linearGradient id="paint29_linear_1023_182" x1="168.913" y1="357.013" x2="97.068" y2="368.124" gradientUnits="userSpaceOnUse">
<stop stop-color="#FF1CF7"/>
<stop offset="0.177083" stop-color="#00F0FF"/>
</linearGradient>
<linearGradient id="paint30_linear_1023_182" x1="170.235" y1="366.658" x2="100.203" y2="373.39" gradientUnits="userSpaceOnUse">
<stop stop-color="#FF1CF7"/>
<stop offset="0.177083" stop-color="#00F0FF"/>
</linearGradient>
<linearGradient id="paint31_linear_1023_182" x1="171.429" y1="376.183" x2="103.47" y2="378.783" gradientUnits="userSpaceOnUse">
<stop stop-color="#FF1CF7"/>
<stop offset="0.177083" stop-color="#00F0FF"/>
</linearGradient>
<linearGradient id="paint32_linear_1023_182" x1="170.42" y1="385.647" x2="106.335" y2="384.407" gradientUnits="userSpaceOnUse">
<stop stop-color="#FF1CF7"/>
<stop offset="0.177083" stop-color="#00F0FF"/>
</linearGradient>
<linearGradient id="paint33_linear_1023_182" x1="26.7164" y1="128.874" x2="41.1955" y2="216.805" gradientUnits="userSpaceOnUse">
<stop stop-color="#FF1CF7"/>
<stop offset="0.177083" stop-color="#00F0FF"/>
</linearGradient>
<linearGradient id="paint34_linear_1023_182" x1="37.0986" y1="130.509" x2="46.2447" y2="216.796" gradientUnits="userSpaceOnUse">
<stop stop-color="#FF1CF7"/>
<stop offset="0.177083" stop-color="#00F0FF"/>
</linearGradient>
<linearGradient id="paint35_linear_1023_182" x1="47.3656" y1="132.298" x2="51.417" y2="216.626" gradientUnits="userSpaceOnUse">
<stop stop-color="#FF1CF7"/>
<stop offset="0.177083" stop-color="#00F0FF"/>
</linearGradient>
<linearGradient id="paint36_linear_1023_182" x1="57.5072" y1="134.232" x2="56.7201" y2="216.308" gradientUnits="userSpaceOnUse">
<stop stop-color="#FF1CF7"/>
<stop offset="0.177083" stop-color="#00F0FF"/>
</linearGradient>
<linearGradient id="paint37_linear_1023_182" x1="67.5159" y1="136.298" x2="62.1629" y2="215.853" gradientUnits="userSpaceOnUse">
<stop stop-color="#FF1CF7"/>
<stop offset="0.177083" stop-color="#00F0FF"/>
</linearGradient>
<linearGradient id="paint38_linear_1023_182" x1="77.3852" y1="138.485" x2="67.7534" y2="215.273" gradientUnits="userSpaceOnUse">
<stop stop-color="#FF1CF7"/>
<stop offset="0.177083" stop-color="#00F0FF"/>
</linearGradient>
<linearGradient id="paint39_linear_1023_182" x1="87.1077" y1="140.781" x2="73.497" y2="214.581" gradientUnits="userSpaceOnUse">
<stop stop-color="#FF1CF7"/>
<stop offset="0.177083" stop-color="#00F0FF"/>
</linearGradient>
<linearGradient id="paint40_linear_1023_182" x1="96.6788" y1="143.174" x2="79.3998" y2="213.791" gradientUnits="userSpaceOnUse">
<stop stop-color="#FF1CF7"/>
<stop offset="0.177083" stop-color="#00F0FF"/>
</linearGradient>
<linearGradient id="paint41_linear_1023_182" x1="106.094" y1="145.651" x2="85.4661" y2="212.914" gradientUnits="userSpaceOnUse">
<stop stop-color="#FF1CF7"/>
<stop offset="0.177083" stop-color="#00F0FF"/>
</linearGradient>
<linearGradient id="paint42_linear_1023_182" x1="115.349" y1="148.199" x2="91.6991" y2="211.964" gradientUnits="userSpaceOnUse">
<stop stop-color="#FF1CF7"/>
<stop offset="0.177083" stop-color="#00F0FF"/>
</linearGradient>
<linearGradient id="paint43_linear_1023_182" x1="124.442" y1="150.806" x2="98.102" y2="210.956" gradientUnits="userSpaceOnUse">
<stop stop-color="#FF1CF7"/>
<stop offset="0.177083" stop-color="#00F0FF"/>
</linearGradient>
</defs>
</svg>
