<svg width="306" height="856" viewBox="0 0 306 856" fill="none" xmlns="http://www.w3.org/2000/svg">
<g clip-path="url(#clip0_1023_181)">
<path d="M317.919 295.491C850.88 354.505 942.121 425.372 368.341 723.893" stroke="url(#paint0_linear_1023_181)" stroke-width="6" stroke-linecap="round"/>
</g>
<g clip-path="url(#clip1_1023_181)">
<path d="M573.146 529.926C40.1845 470.913 -69.8121 396.965 503.968 98.4444" stroke="url(#paint1_linear_1023_181)" stroke-width="6" stroke-linecap="round"/>
<path d="M550.3 550.776C65.3988 484.057 -35.588 408.666 481.122 119.294" stroke="url(#paint2_linear_1023_181)" stroke-width="6" stroke-linecap="round"/>
<path d="M527.455 571.626C90.6133 497.202 -1.36369 420.366 458.277 140.144" stroke="url(#paint3_linear_1023_181)" stroke-width="6" stroke-linecap="round"/>
<path d="M504.61 592.476C115.828 510.347 32.8605 432.066 435.432 160.994" stroke="url(#paint4_linear_1023_181)" stroke-width="6" stroke-linecap="round"/>
<path d="M481.764 613.326C141.042 523.492 67.0847 443.766 412.587 181.844" stroke="url(#paint5_linear_1023_181)" stroke-width="6" stroke-linecap="round"/>
<path d="M458.919 634.176C166.257 536.636 101.309 455.467 389.741 202.694" stroke="url(#paint6_linear_1023_181)" stroke-width="6" stroke-linecap="round"/>
<path d="M436.074 655.026C191.471 549.781 135.533 467.167 366.896 223.544" stroke="url(#paint7_linear_1023_181)" stroke-width="6" stroke-linecap="round"/>
<path d="M413.228 675.876C216.685 562.926 169.757 478.867 344.051 244.394" stroke="url(#paint8_linear_1023_181)" stroke-width="6" stroke-linecap="round"/>
<path d="M390.383 696.726C241.9 576.071 203.982 490.568 321.205 265.244" stroke="url(#paint9_linear_1023_181)" stroke-width="6" stroke-linecap="round"/>
<path d="M367.538 717.576C267.114 589.215 238.206 502.268 298.36 286.094" stroke="url(#paint10_linear_1023_181)" stroke-width="6" stroke-linecap="round"/>
</g>
<defs>
<linearGradient id="paint0_linear_1023_181" x1="522.852" y1="348.716" x2="563.995" y2="605.338" gradientUnits="userSpaceOnUse">
<stop stop-color="#FF1CF7"/>
<stop offset="1" stop-color="#00F0FF"/>
</linearGradient>
<linearGradient id="paint1_linear_1023_181" x1="349.457" y1="473.621" x2="308.314" y2="216.999" gradientUnits="userSpaceOnUse">
<stop stop-color="#FF1CF7"/>
<stop offset="1" stop-color="#00F0FF"/>
</linearGradient>
<linearGradient id="paint2_linear_1023_181" x1="346.318" y1="491.312" x2="305.175" y2="234.689" gradientUnits="userSpaceOnUse">
<stop stop-color="#FF1CF7"/>
<stop offset="1" stop-color="#00F0FF"/>
</linearGradient>
<linearGradient id="paint3_linear_1023_181" x1="343.18" y1="509.002" x2="302.037" y2="252.38" gradientUnits="userSpaceOnUse">
<stop stop-color="#FF1CF7"/>
<stop offset="1" stop-color="#00F0FF"/>
</linearGradient>
<linearGradient id="paint4_linear_1023_181" x1="340.042" y1="526.693" x2="298.899" y2="270.07" gradientUnits="userSpaceOnUse">
<stop stop-color="#FF1CF7"/>
<stop offset="1" stop-color="#00F0FF"/>
</linearGradient>
<linearGradient id="paint5_linear_1023_181" x1="336.903" y1="544.383" x2="295.76" y2="287.761" gradientUnits="userSpaceOnUse">
<stop stop-color="#FF1CF7"/>
<stop offset="1" stop-color="#00F0FF"/>
</linearGradient>
<linearGradient id="paint6_linear_1023_181" x1="333.765" y1="562.074" x2="292.622" y2="305.451" gradientUnits="userSpaceOnUse">
<stop stop-color="#FF1CF7"/>
<stop offset="1" stop-color="#00F0FF"/>
</linearGradient>
<linearGradient id="paint7_linear_1023_181" x1="330.627" y1="579.764" x2="289.483" y2="323.142" gradientUnits="userSpaceOnUse">
<stop stop-color="#FF1CF7"/>
<stop offset="1" stop-color="#00F0FF"/>
</linearGradient>
<linearGradient id="paint8_linear_1023_181" x1="327.488" y1="597.454" x2="286.345" y2="340.832" gradientUnits="userSpaceOnUse">
<stop stop-color="#FF1CF7"/>
<stop offset="1" stop-color="#00F0FF"/>
</linearGradient>
<linearGradient id="paint9_linear_1023_181" x1="324.35" y1="615.145" x2="283.207" y2="358.523" gradientUnits="userSpaceOnUse">
<stop stop-color="#FF1CF7"/>
<stop offset="1" stop-color="#00F0FF"/>
</linearGradient>
<linearGradient id="paint10_linear_1023_181" x1="321.212" y1="632.835" x2="280.068" y2="376.213" gradientUnits="userSpaceOnUse">
<stop stop-color="#FF1CF7"/>
<stop offset="1" stop-color="#00F0FF"/>
</linearGradient>
<clipPath id="clip0_1023_181">
<rect width="586" height="473" fill="white" transform="translate(847.986 347.648) rotate(125.892)"/>
</clipPath>
<clipPath id="clip1_1023_181">
<rect width="627" height="477" fill="white" transform="translate(0 507.951) rotate(-54.1085)"/>
</clipPath>
</defs>
</svg>
