<svg width="277" height="411" viewBox="0 0 277 411" fill="none" xmlns="http://www.w3.org/2000/svg">
<mask id="path-1-outside-1_1018_673" maskUnits="userSpaceOnUse" x="0.46582" y="0.352051" width="277" height="410" fill="black">
<rect fill="white" x="0.46582" y="0.352051" width="277" height="410"/>
<path d="M3.46582 95.0001V3.35205H35.7218C40.0738 3.35205 44.1272 4.07738 47.8818 5.52805C51.7218 6.89338 55.0498 8.85605 57.8658 11.416C60.6818 13.976 62.9005 17.048 64.5218 20.632C66.1432 24.1307 66.9538 28.0134 66.9538 32.2801C66.9538 36.6321 66.1432 40.6001 64.5218 44.1841C62.9005 47.6827 60.6818 50.7121 57.8658 53.2721C55.0498 55.8321 51.7218 57.8374 47.8818 59.2881C44.1272 60.6534 40.0738 61.3361 35.7218 61.3361H20.7458V95.0001H3.46582ZM35.9778 44.952C40.5005 44.952 43.9138 43.6721 46.2178 41.112C48.5218 38.552 49.6738 35.6081 49.6738 32.2801C49.6738 30.6587 49.3752 29.0801 48.7778 27.5441C48.2658 26.0081 47.4125 24.6854 46.2178 23.576C45.1085 22.3814 43.7005 21.4427 41.9938 20.76C40.2872 20.0774 38.2818 19.7361 35.9778 19.7361H20.7458V44.952H35.9778ZM113.324 88.3441H112.3C110.337 90.7334 107.948 92.7814 105.132 94.4881C102.401 96.1947 98.8598 97.048 94.5078 97.048C91.2652 97.048 88.1932 96.4934 85.2918 95.3841C82.4758 94.3601 80.0012 92.9094 77.8678 91.0321C75.7345 89.1547 74.0705 86.8934 72.8758 84.2481C71.6812 81.6027 71.0838 78.7014 71.0838 75.5441C71.0838 72.3014 71.7238 69.4 73.0038 66.84C74.2838 64.1947 76.0758 61.9334 78.3798 60.0561C80.6838 58.1787 83.3718 56.7707 86.4438 55.8321C89.6012 54.8081 93.0145 54.2961 96.6838 54.2961C100.78 54.2961 104.15 54.6374 106.796 55.3201C109.441 55.9174 111.617 56.5574 113.324 57.2401V55.3201C113.324 51.9921 112.001 49.2614 109.356 47.1281C106.71 44.9094 103.425 43.8001 99.4998 43.8001C93.6972 43.8001 88.7905 46.2321 84.7798 51.0961L72.6198 42.7761C79.2758 34.4134 88.3638 30.232 99.8838 30.232C109.612 30.232 117.036 32.536 122.156 37.1441C127.276 41.6667 129.836 48.4081 129.836 57.3681V95.0001H113.324V88.3441ZM113.324 69.5281C111.361 68.5894 109.313 67.8641 107.18 67.3521C105.132 66.7547 102.87 66.4561 100.396 66.4561C96.3852 66.4561 93.2705 67.3521 91.0518 69.1441C88.9185 70.8507 87.8518 72.9841 87.8518 75.5441C87.8518 78.104 88.8758 80.152 90.9238 81.688C93.0572 83.2241 95.4892 83.9921 98.2198 83.9921C100.438 83.9921 102.486 83.608 104.364 82.84C106.241 81.9867 107.82 80.9201 109.1 79.6401C110.465 78.2747 111.489 76.7387 112.172 75.0321C112.94 73.2401 113.324 71.4054 113.324 69.5281ZM202.063 79.0001C199.332 84.2907 195.492 88.6427 190.543 92.0561C185.679 95.3841 179.577 97.048 172.239 97.048C167.375 97.048 162.895 96.2374 158.799 94.6161C154.788 92.9094 151.289 90.5627 148.303 87.576C145.401 84.5894 143.097 81.0907 141.391 77.0801C139.769 72.9841 138.959 68.5041 138.959 63.6401C138.959 58.7761 139.769 54.2961 141.391 50.2001C143.097 46.104 145.401 42.6054 148.303 39.7041C151.289 36.7174 154.788 34.4134 158.799 32.792C162.895 31.0854 167.375 30.232 172.239 30.232C179.492 30.232 185.593 31.896 190.543 35.2241C195.492 38.5521 199.119 42.8614 201.423 48.1521L186.063 54.5521C184.612 51.6507 182.735 49.4747 180.431 48.0241C178.212 46.4881 175.396 45.7201 171.983 45.7201C169.764 45.7201 167.673 46.1467 165.711 47C163.748 47.8534 161.999 49.0481 160.463 50.5841C159.012 52.1201 157.86 53.9974 157.007 56.2161C156.153 58.4347 155.727 60.9094 155.727 63.6401C155.727 66.3707 156.153 68.8454 157.007 71.0641C157.86 73.2827 159.012 75.16 160.463 76.6961C161.999 78.2321 163.748 79.4267 165.711 80.2801C167.673 81.1334 169.764 81.5601 171.983 81.5601C175.481 81.5601 178.425 80.7921 180.815 79.2561C183.289 77.6347 185.252 75.3307 186.703 72.3441L202.063 79.0001ZM212.293 3.35205H229.061V53.2721H229.829L250.821 32.2801H271.557V33.3041L248.261 55.9601L273.477 93.9761V95.0001H253.637L236.485 67.4801L229.061 74.7761V95.0001H212.293V3.35205ZM88.4658 158.352H105.746V250H88.4658V158.352ZM137.912 195.472H138.936C140.898 192.315 143.544 189.84 146.872 188.048C150.2 186.171 153.997 185.232 158.264 185.232C162.189 185.232 165.645 185.872 168.632 187.152C171.618 188.432 174.05 190.267 175.928 192.656C177.89 194.96 179.341 197.776 180.28 201.104C181.304 204.347 181.816 207.973 181.816 211.984V250H165.048V214.032C165.048 209.509 164.024 206.181 161.976 204.048C160.013 201.829 157.112 200.72 153.272 200.72C150.968 200.72 148.92 201.232 147.128 202.256C145.421 203.195 143.928 204.517 142.648 206.224C141.453 207.845 140.514 209.808 139.832 212.112C139.234 214.331 138.936 216.72 138.936 219.28V250H122.168V187.28H137.912V195.472ZM205.012 178.192C203.561 178.192 202.153 177.936 200.788 177.424C199.508 176.827 198.356 176.059 197.332 175.12C196.393 174.096 195.625 172.944 195.028 171.664C194.516 170.384 194.26 168.976 194.26 167.44C194.26 165.904 194.516 164.496 195.028 163.216C195.625 161.936 196.393 160.827 197.332 159.888C198.356 158.864 199.508 158.096 200.788 157.584C202.153 156.987 203.561 156.688 205.012 156.688C207.998 156.688 210.558 157.755 212.692 159.888C214.825 161.936 215.892 164.453 215.892 167.44C215.892 170.427 214.825 172.987 212.692 175.12C210.558 177.168 207.998 178.192 205.012 178.192ZM196.692 250V187.28H213.46V250H196.692ZM235.08 201.616H224.072V187.28H235.08V168.08H251.848V187.28H267.208V201.616H251.848V225.936C251.848 227.387 251.976 228.752 252.232 230.032C252.573 231.227 253.17 232.251 254.024 233.104C255.218 234.469 256.925 235.152 259.144 235.152C260.594 235.152 261.746 235.024 262.6 234.768C263.453 234.427 264.264 234 265.032 233.488L269.768 248.208C267.805 249.147 265.672 249.829 263.368 250.256C261.149 250.768 258.674 251.024 255.944 251.024C252.786 251.024 249.928 250.555 247.368 249.616C244.893 248.592 242.802 247.227 241.096 245.52C237.085 241.68 235.08 236.219 235.08 229.136V201.616ZM157.387 333.192C155.936 333.192 154.528 332.936 153.163 332.424C151.883 331.827 150.731 331.059 149.707 330.12C148.768 329.096 148 327.944 147.403 326.664C146.891 325.384 146.635 323.976 146.635 322.44C146.635 320.904 146.891 319.496 147.403 318.216C148 316.936 148.768 315.827 149.707 314.888C150.731 313.864 151.883 313.096 153.163 312.584C154.528 311.987 155.936 311.688 157.387 311.688C160.373 311.688 162.933 312.755 165.067 314.888C167.2 316.936 168.267 319.453 168.267 322.44C168.267 325.427 167.2 327.987 165.067 330.12C162.933 332.168 160.373 333.192 157.387 333.192ZM149.067 405V342.28H165.835V405H149.067ZM219.199 398.344H218.175C216.212 400.733 213.823 402.781 211.007 404.488C208.276 406.195 204.735 407.048 200.383 407.048C197.14 407.048 194.068 406.493 191.167 405.384C188.351 404.36 185.876 402.909 183.743 401.032C181.609 399.155 179.945 396.893 178.751 394.248C177.556 391.603 176.959 388.701 176.959 385.544C176.959 382.301 177.599 379.4 178.879 376.84C180.159 374.195 181.951 371.933 184.255 370.056C186.559 368.179 189.247 366.771 192.319 365.832C195.476 364.808 198.889 364.296 202.559 364.296C206.655 364.296 210.025 364.637 212.671 365.32C215.316 365.917 217.492 366.557 219.199 367.24V365.32C219.199 361.992 217.876 359.261 215.231 357.128C212.585 354.909 209.3 353.8 205.375 353.8C199.572 353.8 194.665 356.232 190.655 361.096L178.495 352.776C185.151 344.413 194.239 340.232 205.759 340.232C215.487 340.232 222.911 342.536 228.031 347.144C233.151 351.667 235.711 358.408 235.711 367.368V405H219.199V398.344ZM219.199 379.528C217.236 378.589 215.188 377.864 213.055 377.352C211.007 376.755 208.745 376.456 206.271 376.456C202.26 376.456 199.145 377.352 196.927 379.144C194.793 380.851 193.727 382.984 193.727 385.544C193.727 388.104 194.751 390.152 196.799 391.688C198.932 393.224 201.364 393.992 204.095 393.992C206.313 393.992 208.361 393.608 210.239 392.84C212.116 391.987 213.695 390.92 214.975 389.64C216.34 388.275 217.364 386.739 218.047 385.032C218.815 383.24 219.199 381.405 219.199 379.528ZM249.043 405V313.352H265.811V405H249.043Z"/>
</mask>
<path d="M3.46582 95.0001V3.35205H35.7218C40.0738 3.35205 44.1272 4.07738 47.8818 5.52805C51.7218 6.89338 55.0498 8.85605 57.8658 11.416C60.6818 13.976 62.9005 17.048 64.5218 20.632C66.1432 24.1307 66.9538 28.0134 66.9538 32.2801C66.9538 36.6321 66.1432 40.6001 64.5218 44.1841C62.9005 47.6827 60.6818 50.7121 57.8658 53.2721C55.0498 55.8321 51.7218 57.8374 47.8818 59.2881C44.1272 60.6534 40.0738 61.3361 35.7218 61.3361H20.7458V95.0001H3.46582ZM35.9778 44.952C40.5005 44.952 43.9138 43.6721 46.2178 41.112C48.5218 38.552 49.6738 35.6081 49.6738 32.2801C49.6738 30.6587 49.3752 29.0801 48.7778 27.5441C48.2658 26.0081 47.4125 24.6854 46.2178 23.576C45.1085 22.3814 43.7005 21.4427 41.9938 20.76C40.2872 20.0774 38.2818 19.7361 35.9778 19.7361H20.7458V44.952H35.9778ZM113.324 88.3441H112.3C110.337 90.7334 107.948 92.7814 105.132 94.4881C102.401 96.1947 98.8598 97.048 94.5078 97.048C91.2652 97.048 88.1932 96.4934 85.2918 95.3841C82.4758 94.3601 80.0012 92.9094 77.8678 91.0321C75.7345 89.1547 74.0705 86.8934 72.8758 84.2481C71.6812 81.6027 71.0838 78.7014 71.0838 75.5441C71.0838 72.3014 71.7238 69.4 73.0038 66.84C74.2838 64.1947 76.0758 61.9334 78.3798 60.0561C80.6838 58.1787 83.3718 56.7707 86.4438 55.8321C89.6012 54.8081 93.0145 54.2961 96.6838 54.2961C100.78 54.2961 104.15 54.6374 106.796 55.3201C109.441 55.9174 111.617 56.5574 113.324 57.2401V55.3201C113.324 51.9921 112.001 49.2614 109.356 47.1281C106.71 44.9094 103.425 43.8001 99.4998 43.8001C93.6972 43.8001 88.7905 46.2321 84.7798 51.0961L72.6198 42.7761C79.2758 34.4134 88.3638 30.232 99.8838 30.232C109.612 30.232 117.036 32.536 122.156 37.1441C127.276 41.6667 129.836 48.4081 129.836 57.3681V95.0001H113.324V88.3441ZM113.324 69.5281C111.361 68.5894 109.313 67.8641 107.18 67.3521C105.132 66.7547 102.87 66.4561 100.396 66.4561C96.3852 66.4561 93.2705 67.3521 91.0518 69.1441C88.9185 70.8507 87.8518 72.9841 87.8518 75.5441C87.8518 78.104 88.8758 80.152 90.9238 81.688C93.0572 83.2241 95.4892 83.9921 98.2198 83.9921C100.438 83.9921 102.486 83.608 104.364 82.84C106.241 81.9867 107.82 80.9201 109.1 79.6401C110.465 78.2747 111.489 76.7387 112.172 75.0321C112.94 73.2401 113.324 71.4054 113.324 69.5281ZM202.063 79.0001C199.332 84.2907 195.492 88.6427 190.543 92.0561C185.679 95.3841 179.577 97.048 172.239 97.048C167.375 97.048 162.895 96.2374 158.799 94.6161C154.788 92.9094 151.289 90.5627 148.303 87.576C145.401 84.5894 143.097 81.0907 141.391 77.0801C139.769 72.9841 138.959 68.5041 138.959 63.6401C138.959 58.7761 139.769 54.2961 141.391 50.2001C143.097 46.104 145.401 42.6054 148.303 39.7041C151.289 36.7174 154.788 34.4134 158.799 32.792C162.895 31.0854 167.375 30.232 172.239 30.232C179.492 30.232 185.593 31.896 190.543 35.2241C195.492 38.5521 199.119 42.8614 201.423 48.1521L186.063 54.5521C184.612 51.6507 182.735 49.4747 180.431 48.0241C178.212 46.4881 175.396 45.7201 171.983 45.7201C169.764 45.7201 167.673 46.1467 165.711 47C163.748 47.8534 161.999 49.0481 160.463 50.5841C159.012 52.1201 157.86 53.9974 157.007 56.2161C156.153 58.4347 155.727 60.9094 155.727 63.6401C155.727 66.3707 156.153 68.8454 157.007 71.0641C157.86 73.2827 159.012 75.16 160.463 76.6961C161.999 78.2321 163.748 79.4267 165.711 80.2801C167.673 81.1334 169.764 81.5601 171.983 81.5601C175.481 81.5601 178.425 80.7921 180.815 79.2561C183.289 77.6347 185.252 75.3307 186.703 72.3441L202.063 79.0001ZM212.293 3.35205H229.061V53.2721H229.829L250.821 32.2801H271.557V33.3041L248.261 55.9601L273.477 93.9761V95.0001H253.637L236.485 67.4801L229.061 74.7761V95.0001H212.293V3.35205ZM88.4658 158.352H105.746V250H88.4658V158.352ZM137.912 195.472H138.936C140.898 192.315 143.544 189.84 146.872 188.048C150.2 186.171 153.997 185.232 158.264 185.232C162.189 185.232 165.645 185.872 168.632 187.152C171.618 188.432 174.05 190.267 175.928 192.656C177.89 194.96 179.341 197.776 180.28 201.104C181.304 204.347 181.816 207.973 181.816 211.984V250H165.048V214.032C165.048 209.509 164.024 206.181 161.976 204.048C160.013 201.829 157.112 200.72 153.272 200.72C150.968 200.72 148.92 201.232 147.128 202.256C145.421 203.195 143.928 204.517 142.648 206.224C141.453 207.845 140.514 209.808 139.832 212.112C139.234 214.331 138.936 216.72 138.936 219.28V250H122.168V187.28H137.912V195.472ZM205.012 178.192C203.561 178.192 202.153 177.936 200.788 177.424C199.508 176.827 198.356 176.059 197.332 175.12C196.393 174.096 195.625 172.944 195.028 171.664C194.516 170.384 194.26 168.976 194.26 167.44C194.26 165.904 194.516 164.496 195.028 163.216C195.625 161.936 196.393 160.827 197.332 159.888C198.356 158.864 199.508 158.096 200.788 157.584C202.153 156.987 203.561 156.688 205.012 156.688C207.998 156.688 210.558 157.755 212.692 159.888C214.825 161.936 215.892 164.453 215.892 167.44C215.892 170.427 214.825 172.987 212.692 175.12C210.558 177.168 207.998 178.192 205.012 178.192ZM196.692 250V187.28H213.46V250H196.692ZM235.08 201.616H224.072V187.28H235.08V168.08H251.848V187.28H267.208V201.616H251.848V225.936C251.848 227.387 251.976 228.752 252.232 230.032C252.573 231.227 253.17 232.251 254.024 233.104C255.218 234.469 256.925 235.152 259.144 235.152C260.594 235.152 261.746 235.024 262.6 234.768C263.453 234.427 264.264 234 265.032 233.488L269.768 248.208C267.805 249.147 265.672 249.829 263.368 250.256C261.149 250.768 258.674 251.024 255.944 251.024C252.786 251.024 249.928 250.555 247.368 249.616C244.893 248.592 242.802 247.227 241.096 245.52C237.085 241.68 235.08 236.219 235.08 229.136V201.616ZM157.387 333.192C155.936 333.192 154.528 332.936 153.163 332.424C151.883 331.827 150.731 331.059 149.707 330.12C148.768 329.096 148 327.944 147.403 326.664C146.891 325.384 146.635 323.976 146.635 322.44C146.635 320.904 146.891 319.496 147.403 318.216C148 316.936 148.768 315.827 149.707 314.888C150.731 313.864 151.883 313.096 153.163 312.584C154.528 311.987 155.936 311.688 157.387 311.688C160.373 311.688 162.933 312.755 165.067 314.888C167.2 316.936 168.267 319.453 168.267 322.44C168.267 325.427 167.2 327.987 165.067 330.12C162.933 332.168 160.373 333.192 157.387 333.192ZM149.067 405V342.28H165.835V405H149.067ZM219.199 398.344H218.175C216.212 400.733 213.823 402.781 211.007 404.488C208.276 406.195 204.735 407.048 200.383 407.048C197.14 407.048 194.068 406.493 191.167 405.384C188.351 404.36 185.876 402.909 183.743 401.032C181.609 399.155 179.945 396.893 178.751 394.248C177.556 391.603 176.959 388.701 176.959 385.544C176.959 382.301 177.599 379.4 178.879 376.84C180.159 374.195 181.951 371.933 184.255 370.056C186.559 368.179 189.247 366.771 192.319 365.832C195.476 364.808 198.889 364.296 202.559 364.296C206.655 364.296 210.025 364.637 212.671 365.32C215.316 365.917 217.492 366.557 219.199 367.24V365.32C219.199 361.992 217.876 359.261 215.231 357.128C212.585 354.909 209.3 353.8 205.375 353.8C199.572 353.8 194.665 356.232 190.655 361.096L178.495 352.776C185.151 344.413 194.239 340.232 205.759 340.232C215.487 340.232 222.911 342.536 228.031 347.144C233.151 351.667 235.711 358.408 235.711 367.368V405H219.199V398.344ZM219.199 379.528C217.236 378.589 215.188 377.864 213.055 377.352C211.007 376.755 208.745 376.456 206.271 376.456C202.26 376.456 199.145 377.352 196.927 379.144C194.793 380.851 193.727 382.984 193.727 385.544C193.727 388.104 194.751 390.152 196.799 391.688C198.932 393.224 201.364 393.992 204.095 393.992C206.313 393.992 208.361 393.608 210.239 392.84C212.116 391.987 213.695 390.92 214.975 389.64C216.34 388.275 217.364 386.739 218.047 385.032C218.815 383.24 219.199 381.405 219.199 379.528ZM249.043 405V313.352H265.811V405H249.043Z" stroke="white" stroke-opacity="0.2" stroke-width="6" mask="url(#path-1-outside-1_1018_673)"/>
</svg>
